<svg width="29" height="29" viewBox="0 0 29 29" fill="none" xmlns="http://www.w3.org/2000/svg">
<path d="M0.448029 3.9959C0.448029 1.99222 2.07233 0.36792 4.07602 0.36792H25.3447C27.3484 0.36792 28.9727 1.99223 28.9727 3.99591V25.2675C28.9727 27.2712 27.3484 28.8955 25.3447 28.8955H4.07601C2.07233 28.8955 0.448029 27.2712 0.448029 25.2675V3.9959Z" fill="#663C67"/>
<path d="M27.6394 10.6204H21.8437C21.1043 10.6204 20.5076 10.0207 20.5076 9.28424C20.5076 8.54485 21.1072 7.9481 21.8437 7.9481H24.1696C22.0707 4.9789 18.6212 3.04311 14.7118 3.04311C8.31057 3.04311 3.12321 8.23046 3.12321 14.6317C3.12321 21.0329 8.31057 26.2203 14.7118 26.2203C21.113 26.2203 26.3004 21.0329 26.3004 14.6317C26.3004 13.8923 26.9001 13.2956 27.6365 13.2956C28.3759 13.2956 28.9727 13.8952 28.9727 14.6317C28.9727 22.5088 22.586 28.8955 14.7089 28.8955C6.83471 28.8955 0.448029 22.5088 0.448029 14.6317C0.448029 6.7546 6.83471 0.36792 14.7118 0.36792C19.4916 0.36792 23.7155 2.72581 26.3004 6.33542V3.93386C26.3004 3.19448 26.9001 2.59773 27.6365 2.59773C28.3759 2.59773 28.9727 3.19739 28.9727 3.93386V9.28424C28.9756 10.0207 28.3759 10.6204 27.6394 10.6204Z" fill="#F6F6F6"/>
</svg>
