<svg width="265" height="217" viewBox="0 0 265 217" fill="none" xmlns="http://www.w3.org/2000/svg">
<g clip-path="url(#clip0)">
<path d="M248.61 201.459C253.157 196.311 274.568 170.975 259.35 166.798C247.92 163.661 246.647 180.921 247.031 192.503C245.201 184.7 241.649 175.584 235.408 179.606C226.415 185.402 243.266 198.23 247.669 201.379C247.741 202.019 247.788 202.375 247.788 202.375C247.788 202.375 247.969 202.179 248.291 201.819C248.542 201.994 248.682 202.088 248.682 202.088C248.682 202.088 248.659 201.861 248.61 201.459Z" fill="#BDBABA"/>
<path d="M18.1012 215.55C23.3087 209.654 47.8313 180.636 30.4018 175.852C17.3111 172.259 15.8526 192.027 16.292 205.293C14.1959 196.355 10.1277 185.914 2.98029 190.521C-7.32049 197.16 11.9807 211.852 17.0225 215.459C17.1053 216.192 17.1599 216.6 17.1599 216.6C17.1599 216.6 17.3668 216.375 17.7354 215.962C18.0234 216.163 18.1836 216.271 18.1836 216.271C18.1836 216.271 18.1568 216.011 18.1012 215.55Z" fill="#BDBABA"/>
<path d="M75.4928 17.2908C75.0416 17.2913 74.6091 17.4699 74.29 17.7873C73.971 18.1048 73.7915 18.5352 73.791 18.9841V200.175C73.7915 200.624 73.971 201.054 74.29 201.372C74.6091 201.689 75.0416 201.868 75.4928 201.868H222.187C222.638 201.868 223.071 201.689 223.39 201.372C223.709 201.054 223.889 200.624 223.889 200.175V18.9841C223.889 18.5352 223.709 18.1048 223.39 17.7873C223.071 17.4699 222.638 17.2913 222.187 17.2908H75.4928Z" fill="#BDBABA"/>
<path d="M198.872 96.4135H98.8066C98.1296 96.4135 97.4803 96.1459 97.0016 95.6696C96.5228 95.1932 96.2539 94.5472 96.2539 93.8735C96.2539 93.1998 96.5228 92.5537 97.0016 92.0774C97.4803 91.601 98.1296 91.3334 98.8066 91.3334H198.872C199.549 91.3334 200.198 91.601 200.677 92.0774C201.156 92.5537 201.425 93.1998 201.425 93.8735C201.425 94.5472 201.156 95.1932 200.677 95.6696C200.198 96.1459 199.549 96.4135 198.872 96.4135Z" fill="white"/>
<path d="M199.732 49.0838H133.345C132.41 49.0838 131.652 47.9466 131.652 46.5438C131.652 45.141 132.41 44.0037 133.345 44.0037H199.732C200.667 44.0037 201.425 45.141 201.425 46.5438C201.425 47.9466 200.667 49.0838 199.732 49.0838Z" fill="white"/>
<path d="M199.732 63.6467H133.345C132.41 63.6467 131.652 62.5095 131.652 61.1067C131.652 59.7039 132.41 58.5667 133.345 58.5667H199.732C200.667 58.5667 201.425 59.7039 201.425 61.1067C201.425 62.5095 200.667 63.6467 199.732 63.6467Z" fill="white"/>
<path d="M198.872 112.839H98.8066C98.1296 112.839 97.4803 112.572 97.0016 112.095C96.5228 111.619 96.2539 110.973 96.2539 110.299C96.2539 109.625 96.5228 108.979 97.0016 108.503C97.4803 108.027 98.1296 107.759 98.8066 107.759H198.872C199.549 107.759 200.198 108.027 200.677 108.503C201.156 108.979 201.425 109.625 201.425 110.299C201.425 110.973 201.156 111.619 200.677 112.095C200.198 112.572 199.549 112.839 198.872 112.839Z" fill="white"/>
<path d="M198.872 129.265H98.8066C98.1296 129.265 97.4803 128.997 97.0016 128.521C96.5228 128.045 96.2539 127.398 96.2539 126.725C96.2539 126.051 96.5228 125.405 97.0016 124.929C97.4803 124.452 98.1296 124.185 98.8066 124.185H198.872C199.549 124.185 200.198 124.452 200.677 124.929C201.156 125.405 201.425 126.051 201.425 126.725C201.425 127.398 201.156 128.045 200.677 128.521C200.198 128.997 199.549 129.265 198.872 129.265Z" fill="white"/>
<path d="M198.872 145.691H98.8066C98.1296 145.691 97.4803 145.423 97.0016 144.947C96.5228 144.47 96.2539 143.824 96.2539 143.151C96.2539 142.477 96.5228 141.831 97.0016 141.354C97.4803 140.878 98.1296 140.61 98.8066 140.61H198.872C199.549 140.61 200.198 140.878 200.677 141.354C201.156 141.831 201.425 142.477 201.425 143.151C201.425 143.824 201.156 144.47 200.677 144.947C200.198 145.423 199.549 145.691 198.872 145.691Z" fill="white"/>
<path d="M198.872 162.116H98.8066C98.1296 162.116 97.4803 161.849 97.0016 161.372C96.5228 160.896 96.2539 160.25 96.2539 159.576C96.2539 158.903 96.5228 158.257 97.0016 157.78C97.4803 157.304 98.1296 157.036 98.8066 157.036H198.872C199.549 157.036 200.198 157.304 200.677 157.78C201.156 158.257 201.425 158.903 201.425 159.576C201.425 160.25 201.156 160.896 200.677 161.372C200.198 161.849 199.549 162.116 198.872 162.116Z" fill="white"/>
<path d="M198.872 178.542H98.8066C98.1296 178.542 97.4803 178.274 97.0016 177.798C96.5228 177.322 96.2539 176.676 96.2539 176.002C96.2539 175.328 96.5228 174.682 97.0016 174.206C97.4803 173.729 98.1296 173.462 98.8066 173.462H198.872C199.549 173.462 200.198 173.729 200.677 174.206C201.156 174.682 201.425 175.328 201.425 176.002C201.425 176.676 201.156 177.322 200.677 177.798C200.198 178.274 199.549 178.542 198.872 178.542Z" fill="white"/>
<path d="M109.698 67.3722C117.123 67.3722 123.142 61.3828 123.142 53.9946C123.142 46.6063 117.123 40.6169 109.698 40.6169C102.273 40.6169 96.2539 46.6063 96.2539 53.9946C96.2539 61.3828 102.273 67.3722 109.698 67.3722Z" fill="white"/>
<path d="M99.5236 100.913L79.4755 111.519L79.2217 102.68C85.7653 101.593 91.9908 99.7009 97.7472 96.62L99.844 91.4653C100.072 90.9036 100.444 90.4107 100.922 90.035C101.399 89.6592 101.967 89.4136 102.569 89.3221C103.171 89.2306 103.787 89.2965 104.355 89.5132C104.924 89.73 105.426 90.0901 105.813 90.5584C106.378 91.2434 106.661 92.1168 106.603 93.0015C106.546 93.8862 106.153 94.7161 105.503 95.3231L99.5236 100.913Z" fill="#FFB8B8"/>
<path d="M50.5382 162.147C50.3919 161.613 50.3608 161.054 50.447 160.508C50.5332 159.961 50.7347 159.439 51.0382 158.976L55.4422 152.25C56.4839 150.66 58.0822 149.511 59.9271 149.026C61.772 148.542 63.732 148.757 65.4267 149.629C63.5758 152.764 63.8338 155.514 66.0659 157.904C62.6009 159.587 59.3984 161.76 56.5576 164.354C56.039 164.706 55.4434 164.929 54.8205 165.006C54.1976 165.082 53.5653 165.009 52.9764 164.793C52.3874 164.577 51.8589 164.225 51.4348 163.764C51.0107 163.304 50.7033 162.749 50.5382 162.147Z" fill="#403E3E"/>
<path d="M100.437 153.353C99.7707 154.458 98.8299 155.375 97.7052 156.014C96.5805 156.653 95.3095 156.994 94.0142 157.004L64.7569 157.224L63.488 149.901L76.4305 146.114L65.5182 137.78L77.4456 123.892L99.1095 143.984C100.376 145.158 101.198 146.729 101.44 148.435C101.682 150.14 101.328 151.876 100.437 153.353Z" fill="#403E3E"/>
<path d="M60.1888 203.435H53.3369C47.1848 161.474 40.9227 119.396 59.4274 103.69L81.252 107.226L78.4605 125.66L66.2794 139.548L60.1888 203.435Z" fill="#403E3E"/>
<path d="M65.531 216.327C64.9946 216.473 64.4333 216.504 63.8841 216.418C63.3348 216.332 62.81 216.132 62.3442 215.83L55.5851 211.448C53.9865 210.412 52.8317 208.821 52.3448 206.986C51.858 205.15 52.0738 203.2 52.9504 201.513C56.101 203.355 58.8649 203.098 61.2666 200.877C62.9584 204.324 65.1418 207.511 67.7493 210.338C68.1028 210.854 68.3274 211.446 68.4042 212.066C68.481 212.686 68.4078 213.315 68.1908 213.901C67.9738 214.487 67.6192 215.013 67.1565 215.435C66.6938 215.857 66.1365 216.163 65.531 216.327Z" fill="#403E3E"/>
<path d="M90.0967 74.5267H57.5239C51.5085 66.0587 50.8025 57.961 57.5239 50.3813C57.5239 47.0297 61.8745 44.3126 67.2413 44.3126H67.2413C71.4453 44.3126 75.1726 46.0009 76.4782 48.4965L90.0967 74.5267Z" fill="#403E3E"/>
<path d="M76.4302 75.6609L63.7415 72.6307C65.8488 68.3384 66.0224 63.5623 65.0103 58.4897L73.6386 58.2372C73.909 64.5451 74.7269 70.4383 76.4302 75.6609Z" fill="#FFB8B8"/>
<path d="M79.9176 114.829C70.6807 121.092 64.1542 115.043 59.1737 105.711C59.8657 100 58.7452 93.166 56.6698 85.7403C55.7467 82.4651 56.0913 78.9645 57.6355 75.9297C59.1797 72.895 61.8112 70.5465 65.0105 69.3481L75.9228 73.8934C85.1886 81.4087 87.0123 89.5493 83.536 98.1352L79.9176 114.829Z" fill="#663C67"/>
<path d="M53.337 81.9739L43.186 87.2768L61.204 97.8825L63.711 104.036C63.8784 104.447 63.9599 104.887 63.9506 105.33C63.9414 105.773 63.8415 106.21 63.6571 106.613C63.4728 107.017 63.2077 107.379 62.8783 107.677C62.5488 107.975 62.1617 108.203 61.7406 108.348C61.262 108.512 60.7516 108.564 60.2496 108.499C59.7475 108.434 59.2673 108.255 58.8466 107.974C58.4259 107.694 58.0761 107.321 57.8246 106.883C57.5732 106.446 57.4268 105.957 57.3971 105.454L57.1436 101.165L34.2429 93.6455C33.4714 93.3921 32.7678 92.9674 32.1857 92.4034C31.6035 91.8394 31.1579 91.151 30.8827 90.3903C30.4815 89.2815 30.4611 88.0716 30.8246 86.95C31.1882 85.8284 31.9151 84.8584 32.8917 84.1917L51.3068 71.6207L53.337 81.9739Z" fill="#FFB8B8"/>
<path d="M63.4882 82.984C59.2547 81.1379 55.4049 83.1433 50.5458 84.7516L49.7844 71.3682C54.6094 68.8092 59.2097 68.1193 63.4882 70.1056V82.984Z" fill="#663C67"/>
<path d="M89.4994 74.5267H82.315C77.8436 66.3187 78.0466 51.8167 68.4362 55.0488C62.2618 51.4024 65.8045 65.7118 64.2692 74.5267H58.0212C56.3235 65.9141 56.2999 57.2839 58.2971 50.2657C58.3161 49.8059 58.4324 49.3553 58.6383 48.9434C58.8443 48.5314 59.1353 48.1673 59.4924 47.8749C59.8022 47.5919 60.1378 47.3382 60.4948 47.117C62.7027 45.733 64.1854 44.9446 67.4109 44.9446C69.2161 44.9407 71.0131 45.1865 72.7503 45.6752C72.9762 45.741 73.1995 45.8117 73.4152 45.8855C73.7121 45.9867 73.9988 46.0975 74.2729 46.2163C75.6839 46.82 76.7929 47.6373 77.3182 48.6601C83.3987 55.8757 86.5023 64.9796 89.4994 74.5267Z" fill="#403E3E"/>
<path d="M68.5529 64.8665C73.0271 64.8665 76.6542 61.2574 76.6542 56.8054C76.6542 52.3533 73.0271 48.7442 68.5529 48.7442C64.0787 48.7442 60.4517 52.3533 60.4517 56.8054C60.4517 61.2574 64.0787 64.8665 68.5529 64.8665Z" fill="#FFB8B8"/>
<path d="M76.7684 53.696C74.3312 50.3905 67.9753 54.3336 60.3345 57.1508V49.32C66.6199 46.5667 70.2852 45.7725 74.4538 48.629L76.7684 53.696Z" fill="#403E3E"/>
<path d="M219.24 39.0551C230.078 39.0551 238.865 30.3123 238.865 19.5276C238.865 8.74279 230.078 0 219.24 0C208.402 0 199.615 8.74279 199.615 19.5276C199.615 30.3123 208.402 39.0551 219.24 39.0551Z" fill="#663C67"/>
<path d="M211.064 18.239C210.72 18.239 210.391 18.3748 210.148 18.6164C209.905 18.8581 209.769 19.1859 209.769 19.5276C209.769 19.8694 209.905 20.1972 210.148 20.4388C210.391 20.6805 210.72 20.8163 211.064 20.8163H217.946V27.664C217.946 28.0057 218.082 28.3335 218.325 28.5751C218.568 28.8168 218.897 28.9525 219.241 28.9525C219.584 28.9525 219.913 28.8168 220.156 28.5751C220.399 28.3335 220.535 28.0057 220.535 27.664V20.8163H227.417C227.761 20.8163 228.09 20.6805 228.333 20.4388C228.576 20.1972 228.712 19.8694 228.712 19.5276C228.712 19.1859 228.576 18.8581 228.333 18.6164C228.09 18.3748 227.761 18.239 227.417 18.239H220.535V11.3911C220.535 11.0493 220.399 10.7216 220.156 10.4799C219.913 10.2383 219.584 10.1025 219.241 10.1025C218.897 10.1025 218.568 10.2383 218.325 10.4799C218.082 10.7216 217.946 11.0493 217.946 11.3911V18.239H211.064Z" fill="white"/>
</g>
<defs>
<clipPath id="clip0">
<rect width="264.733" height="216.6" fill="white"/>
</clipPath>
</defs>
</svg>
