<svg width="856" height="653" viewBox="0 0 856 653" fill="none" xmlns="http://www.w3.org/2000/svg">
<g clip-path="url(#clip0)">
<path opacity="0.1" d="M488.639 103.268C434.724 101.394 383.374 83.9935 334.332 64.9525C285.29 45.9115 236.731 24.8214 184.106 14.7262C150.259 8.23759 111.555 7.32136 84.281 25.4628C58.0397 42.9545 49.5592 73.0653 44.994 101.035C41.5702 122.076 39.5542 144.223 48.951 163.922C55.4739 177.599 67.0617 189.094 75.0758 202.188C102.95 247.766 83.248 304.006 53.0497 348.477C38.8877 369.359 22.4431 389.291 11.5051 411.497C0.567036 433.703 -4.48962 459.183 5.07388 481.856C14.5624 504.345 37.1633 521.204 61.6469 533.073C111.364 557.228 169.944 564.083 227.101 567.99C353.575 576.644 480.733 572.896 607.541 569.148C654.476 567.757 701.61 566.349 747.787 559.094C773.42 555.071 799.895 548.674 818.505 533.273C842.131 513.674 847.987 480.49 832.159 455.91C805.601 414.687 732.192 404.451 713.606 360.213C703.385 335.858 713.881 308.737 728.726 286.148C760.583 237.704 813.973 195.199 816.789 139.825C818.722 101.793 793.055 63.7031 753.368 45.7032C711.765 26.8455 654.084 29.2194 623.411 60.4379C591.772 92.5478 536.223 104.934 488.639 103.268Z" fill="#5C184E"/>
<path opacity="0.1" d="M482.998 628.17C653.681 628.17 792.046 617.885 792.046 605.198C792.046 592.51 653.681 582.225 482.998 582.225C312.316 582.225 173.95 592.51 173.95 605.198C173.95 617.885 312.316 628.17 482.998 628.17Z" fill="#5C184E"/>
<path d="M244.036 530.791C244.036 530.791 261.53 527.992 272.027 540.361C272.027 540.361 264.329 546.425 247.768 538.029L244.036 530.791Z" fill="#5C184E"/>
<path d="M242.155 530.566C242.155 530.566 231 544.326 236.473 559.594C236.473 559.594 245.57 555.946 246.561 537.404L242.155 530.566Z" fill="#5C184E"/>
<path d="M232.157 507.935C232.157 507.935 239.154 495.107 267.145 513.066C267.145 513.066 263.413 521.695 251.05 520.995C238.688 520.295 235.406 514.74 232.157 507.935Z" fill="#5C184E"/>
<path d="M230.331 507.01C230.331 507.01 215.811 505.345 214.403 538.587C214.403 538.587 223.609 540.495 230.148 529.983C236.688 519.471 233.989 513.574 230.331 507.01Z" fill="#5C184E"/>
<path d="M221.877 480.506C221.877 480.506 230.041 457.884 259.664 473.976C259.664 473.976 252.9 494.733 224.909 488.203L221.877 480.506Z" fill="#5C184E"/>
<path d="M212.771 446.689C212.771 446.689 228.175 423.825 255.466 445.023C255.466 445.023 245.902 466.48 215.104 454.818L212.771 446.689Z" fill="#5C184E"/>
<path d="M209.505 414.496C209.505 414.496 227.474 393.506 254.532 414.496C254.532 414.496 237.504 432.921 209.505 419.86V414.496Z" fill="#5C184E"/>
<path d="M206.707 383.244C206.707 383.244 224.909 361.321 250.801 382.078C250.801 382.078 230.274 401.435 206.707 388.375V383.244Z" fill="#5C184E"/>
<path d="M208.34 355.49C208.34 355.49 227.5 327.262 251.734 346.395C251.734 346.395 231.207 370.65 208.34 360.855V355.49Z" fill="#5C184E"/>
<path d="M212.771 323.064C212.771 323.064 233.073 295.077 256.632 316.534C256.632 316.534 232.607 340.797 212.771 328.195V323.064Z" fill="#5C184E"/>
<path d="M219.545 294.086C219.545 294.086 243.57 267.79 264.53 278.26C264.53 278.26 239.488 306.189 218.495 301.058L219.545 294.086Z" fill="#5C184E"/>
<path d="M227.941 266.624C227.941 266.624 255.699 234.439 271.793 245.167C271.793 245.167 251.367 270.156 225.975 272.655L227.941 266.624Z" fill="#5C184E"/>
<path d="M240.062 234.764C240.062 234.764 264.329 208.46 282.057 214.99C282.057 214.99 261.297 242.277 236.805 242.977L240.062 234.764Z" fill="#5C184E"/>
<path d="M251.033 204.961C251.033 204.961 277.858 179.765 289.521 184.196C289.521 184.196 270.16 212.191 249.867 210.559L251.033 204.961Z" fill="#5C184E"/>
<path d="M261.764 177.399C261.764 177.399 284.856 147.314 297.452 149.646C297.452 149.646 283.456 176.466 261.764 180.465V177.399Z" fill="#5C184E"/>
<path d="M273.41 140.334C273.41 140.334 293.82 117.261 304.841 117.319C304.841 117.319 288.73 148.138 272.569 147.855L273.41 140.334Z" fill="#5C184E"/>
<path d="M280.308 115.628L300.018 67.5762C300.018 67.5762 301.009 111.014 277.8 124.541L280.308 115.628Z" fill="#5C184E"/>
<path d="M288.314 62.6368C288.314 62.6368 291.58 22.5224 289.48 19.2573C289.48 19.2573 303.576 52.5749 288.172 80.3618L288.314 62.6368Z" fill="#5C184E"/>
<path d="M221.111 479.965C221.111 479.965 200.667 467.296 187.43 498.289C187.43 498.289 205.624 510.359 223.51 487.869L221.111 479.965Z" fill="#5C184E"/>
<path d="M212.163 445.398C212.163 445.398 187.088 433.962 174.917 466.321C174.917 466.321 194.294 479.649 214.446 453.577L212.163 445.398Z" fill="#5C184E"/>
<path d="M208.34 416.453C208.34 416.453 190.379 395.463 163.355 416.453C163.355 416.453 180.383 434.878 208.34 421.817V416.453Z" fill="#5C184E"/>
<path d="M206.098 383.244C206.098 383.244 187.904 361.321 162.004 382.078C162.004 382.078 182.539 401.435 206.098 388.375V383.244Z" fill="#5C184E"/>
<path d="M208.339 356.29C208.339 356.29 195.577 324.638 167.836 338.273C167.836 338.273 182.831 366.302 207.215 361.529L208.339 356.29Z" fill="#5C184E"/>
<path d="M214.379 322.906C214.379 322.906 201.7 290.746 173.56 305.664C173.56 305.664 190.787 335.142 213.13 327.878L214.379 322.906Z" fill="#5C184E"/>
<path d="M222.244 294.253C222.244 294.253 217.246 258.994 193.92 255.837C193.92 255.837 198.86 293.02 219.095 300.608L222.244 294.253Z" fill="#5C184E"/>
<path d="M228.532 266.682C228.532 266.682 226.583 224.202 207.298 222.728C207.298 222.728 207.948 254.971 226.358 272.705L228.532 266.682Z" fill="#5C184E"/>
<path d="M242.061 233.548C242.061 233.548 236.305 198.223 217.902 193.9C217.902 193.9 220.185 228.117 240.245 242.21L242.061 233.548Z" fill="#5C184E"/>
<path d="M253.217 205.211C253.217 205.211 253.017 168.42 241.779 163.006C241.779 163.006 234.798 196.324 249.959 209.909L253.217 205.211Z" fill="#5C184E"/>
<path d="M262.622 177.025C262.622 177.025 261.047 139.134 249.401 133.795C249.401 133.795 245.411 163.781 260.872 179.507L262.622 177.025Z" fill="#5C184E"/>
<path d="M275.034 143.349C275.034 143.349 274.959 112.53 266.654 105.308C266.654 105.308 258.381 139.067 270.694 149.554L275.034 143.349Z" fill="#5C184E"/>
<path d="M279.325 114.096L271.245 62.7949C271.245 62.7949 260.256 104.825 279.717 123.341L279.325 114.096Z" fill="#5C184E"/>
<path d="M280.907 63.1287C280.907 63.1287 260.147 28.645 260.572 24.8135C260.572 24.8135 262.78 60.9547 288.896 78.9546L280.907 63.1287Z" fill="#5C184E"/>
<path d="M283.34 52.9417C283.34 52.9417 263.746 3.96485 254.882 -0.0166016C254.882 -0.0166016 282.873 14.21 284.972 51.5257L283.34 52.9417Z" fill="#5C184E"/>
<path d="M272.46 148.146L271.127 147.73C287.663 93.8221 291.787 59.4384 282.74 50.8258L283.706 49.8096C293.295 58.9053 289.404 92.9059 272.46 148.146Z" fill="#444053"/>
<path d="M226.932 274.345L224.95 273.646C226.699 268.706 228.598 263.692 230.581 258.753C247.842 215.715 262.529 175.734 271.951 145.006L273.675 144.173C264.237 174.901 249.808 216.464 232.531 259.536C230.556 264.45 228.673 269.431 226.932 274.345Z" fill="#444053"/>
<path d="M268.652 571.147C268.386 570.847 241.578 540.678 222.901 489.152C211.948 458.994 205.846 427.29 204.823 395.222C203.549 355.132 211.954 310.362 226.374 269.706L227.941 271.538C195.585 362.795 208.439 441 225.491 488.086C243.977 539.137 270.477 568.981 270.735 569.281L268.652 571.147Z" fill="#444053"/>
<path d="M151.85 564.567C151.85 564.567 120.152 562.659 123.893 584.865C123.893 584.865 123.151 588.789 126.708 590.571C126.708 590.571 126.758 588.905 129.957 589.48C131.094 589.671 132.249 589.727 133.398 589.647C134.954 589.542 136.434 588.934 137.613 587.914C137.613 587.914 146.519 584.232 149.984 569.673C149.984 569.673 152.55 566.499 152.442 565.683L147.093 567.965C147.093 567.965 148.926 571.822 147.485 575.029C147.485 575.029 147.31 568.107 146.285 568.265C146.077 568.265 143.503 569.606 143.503 569.606C143.503 569.606 146.652 576.328 144.278 581.209C144.278 581.209 145.177 572.93 142.528 570.089L138.763 572.288C138.763 572.288 142.437 579.226 139.946 584.89C139.946 584.89 140.579 576.203 137.971 572.821L134.556 575.487C134.556 575.487 138.005 582.325 135.905 587.023C135.905 587.023 135.631 576.911 133.814 576.145C133.814 576.145 130.832 578.777 130.374 579.86C130.374 579.86 132.74 584.857 131.274 587.448C131.274 587.448 130.374 580.709 129.608 580.676C129.608 580.676 126.634 585.14 126.325 588.172C126.469 585.346 127.351 582.606 128.883 580.226C127.169 580.55 125.587 581.37 124.334 582.583C124.334 582.583 124.792 579.426 129.616 579.152C129.616 579.152 132.115 575.762 132.731 575.553C132.731 575.553 127.933 575.153 125.026 576.445C125.026 576.445 127.583 573.471 133.615 574.779L136.947 572.03C136.947 572.03 130.632 571.197 127.95 572.122C127.95 572.122 131.032 569.49 137.855 571.405L141.52 569.215C141.52 569.215 136.139 568.057 132.923 568.473C132.923 568.473 136.314 566.649 142.595 568.623L145.219 567.449C145.219 567.449 141.27 566.674 140.121 566.549C138.971 566.424 138.896 566.108 138.896 566.108C141.397 565.692 143.964 565.98 146.31 566.941C146.31 566.941 151.942 564.917 151.85 564.567Z" fill="#5C184E"/>
<path d="M59.7134 574.87C59.7134 574.87 28.0572 572.963 31.7643 595.169C31.7643 595.169 31.0146 599.092 34.5717 600.874C34.5717 600.874 34.63 599.209 37.829 599.783C38.9648 599.979 40.1202 600.035 41.2695 599.95C42.8234 599.847 44.301 599.239 45.4764 598.217C45.4764 598.217 54.3902 594.536 57.8557 579.976C57.8557 579.976 60.4132 576.803 60.3549 575.986L55.0066 578.269C55.0066 578.269 56.8394 582.125 55.3982 585.332C55.3982 585.332 55.2232 578.41 54.1986 578.568C53.9903 578.568 51.4161 579.909 51.4161 579.909C51.4161 579.909 54.5651 586.631 52.1909 591.512C52.1909 591.512 53.0906 583.233 50.4331 580.392L46.6677 582.591C46.6677 582.591 50.3415 589.53 47.8507 595.194C47.8507 595.194 48.4921 586.506 45.8763 583.125L42.4691 585.79C42.4691 585.79 45.918 592.628 43.8187 597.326C43.8187 597.326 43.5438 587.214 41.7277 586.448C41.7277 586.448 38.7453 589.08 38.2872 590.163C38.2872 590.163 40.653 595.16 39.1869 597.751C39.1869 597.751 38.2872 591.012 37.5207 590.979C37.5207 590.979 34.5551 595.444 34.2385 598.476C34.3873 595.649 35.2718 592.91 36.8043 590.529C35.0881 590.854 33.5043 591.674 32.2475 592.887C32.2475 592.887 32.714 589.73 37.5374 589.455C37.5374 589.455 40.0366 586.065 40.653 585.865C40.653 585.865 35.8546 585.457 32.9473 586.748C32.9473 586.748 35.5047 583.774 41.5361 585.082L44.8683 582.333C44.8683 582.333 38.5537 581.5 35.8713 582.425C35.8713 582.425 38.9536 579.793 45.7764 581.709L49.4418 579.518C49.4418 579.518 44.0519 578.36 40.8447 578.777C40.8447 578.777 44.2352 576.952 50.5165 578.927L53.1406 577.752C53.1406 577.752 49.1919 576.977 48.0339 576.853C46.876 576.728 46.8177 576.411 46.8177 576.411C49.3186 576 51.8844 576.289 54.2319 577.244C54.2319 577.244 59.78 575.22 59.7134 574.87Z" fill="#5C184E"/>
<path d="M111.064 599.059C111.064 599.059 79.4075 597.151 83.1063 619.357C83.1063 619.357 82.3649 623.28 85.922 625.063C85.922 625.063 85.9803 623.397 89.1709 623.972C90.3099 624.163 91.4676 624.219 92.6198 624.138C94.1728 624.032 95.6493 623.424 96.8267 622.406C96.8267 622.406 105.732 618.724 109.198 604.164C109.198 604.164 111.763 600.991 111.697 600.175L106.349 602.457C106.349 602.457 108.173 606.313 106.74 609.52C106.74 609.52 106.565 602.599 105.532 602.757C105.324 602.757 102.758 604.098 102.758 604.098C102.758 604.098 105.899 610.811 103.525 615.701C103.525 615.701 104.424 607.421 101.775 604.581L98.0097 606.78C98.0097 606.78 101.683 613.718 99.1926 619.382C99.1926 619.382 99.8341 610.695 97.2183 607.313L93.8027 609.978C93.8027 609.978 97.2599 616.817 95.1523 621.515C95.1523 621.515 94.8774 611.403 93.0696 610.636C93.0696 610.636 90.079 613.269 89.6291 614.351C89.6291 614.351 91.995 619.349 90.5205 621.939C90.5205 621.939 89.6208 615.201 88.8544 615.168C88.8544 615.168 85.8803 619.632 85.5721 622.664C85.7161 619.838 86.5979 617.098 88.1296 614.718C86.4156 615.042 84.8342 615.862 83.5811 617.075C83.5811 617.075 84.0393 613.918 88.871 613.643C88.871 613.643 91.3202 610.253 91.9783 610.045C91.9783 610.045 87.1799 609.645 84.2725 610.936C84.2725 610.936 86.8384 607.963 92.8614 609.312L96.1936 606.563C96.1936 606.563 89.879 605.73 87.1966 606.655C87.1966 606.655 90.2872 604.023 97.1016 605.939L100.775 603.748C100.775 603.748 95.4189 602.615 92.2033 603.032C92.2033 603.032 95.5855 601.208 101.875 603.182L104.491 602.007C104.491 602.007 100.551 601.233 99.3926 601.108C98.2346 600.983 98.1763 600.666 98.1763 600.666C100.677 600.25 103.244 600.539 105.591 601.499C105.591 601.499 111.155 599.408 111.064 599.059Z" fill="#5C184E"/>
<path opacity="0.1" d="M86.3551 631.185C98.7452 631.185 108.789 629.488 108.789 627.395C108.789 625.302 98.7452 623.605 86.3551 623.605C73.9651 623.605 63.9209 625.302 63.9209 627.395C63.9209 629.488 73.9651 631.185 86.3551 631.185Z" fill="#5C184E"/>
<path opacity="0.1" d="M797.936 631.185C810.326 631.185 820.37 629.488 820.37 627.395C820.37 625.302 810.326 623.605 797.936 623.605C785.546 623.605 775.501 625.302 775.501 627.395C775.501 629.488 785.546 631.185 797.936 631.185Z" fill="#5C184E"/>
<path opacity="0.1" d="M583.099 653C595.489 653 605.534 651.303 605.534 649.21C605.534 647.117 595.489 645.42 583.099 645.42C570.709 645.42 560.665 647.117 560.665 649.21C560.665 651.303 570.709 653 583.099 653Z" fill="#5C184E"/>
<path opacity="0.1" d="M833.416 598.334C845.806 598.334 855.85 596.637 855.85 594.544C855.85 592.451 845.806 590.754 833.416 590.754C821.026 590.754 810.981 592.451 810.981 594.544C810.981 596.637 821.026 598.334 833.416 598.334Z" fill="#5C184E"/>
<path opacity="0.1" d="M130.016 595.969C142.406 595.969 152.45 594.272 152.45 592.179C152.45 590.086 142.406 588.389 130.016 588.389C117.626 588.389 107.582 590.086 107.582 592.179C107.582 594.272 117.626 595.969 130.016 595.969Z" fill="#5C184E"/>
<path opacity="0.1" d="M37.8542 606.605C50.2443 606.605 60.2884 604.908 60.2884 602.815C60.2884 600.722 50.2443 599.025 37.8542 599.025C25.4641 599.025 15.4199 600.722 15.4199 602.815C15.4199 604.908 25.4641 606.605 37.8542 606.605Z" fill="#5C184E"/>
<path d="M603.376 66.4185H260.364C255.855 66.4185 252.2 70.0731 252.2 74.5813V592.487C252.2 596.995 255.855 600.65 260.364 600.65H603.376C607.885 600.65 611.54 596.995 611.54 592.487V74.5813C611.54 70.0731 607.885 66.4185 603.376 66.4185Z" fill="#3A3768"/>
<path opacity="0.1" d="M558.766 112.338H309.423C295.984 112.338 285.089 123.231 285.089 136.669V193.034C285.089 206.471 295.984 217.364 309.423 217.364H558.766C572.205 217.364 583.099 206.471 583.099 193.034V136.669C583.099 123.231 572.205 112.338 558.766 112.338Z" fill="#93E1D8"/>
<path d="M572.002 114.388H295.502C290.809 114.388 287.005 118.191 287.005 122.884V207.469C287.005 212.161 290.809 215.965 295.502 215.965H572.002C576.695 215.965 580.5 212.161 580.5 207.469V122.884C580.5 118.191 576.695 114.388 572.002 114.388Z" fill="#E6E8EC"/>
<path opacity="0.1" d="M345.744 261.11H304.457C299.493 261.11 295.469 265.134 295.469 270.097V317.958C295.469 322.922 299.493 326.945 304.457 326.945H345.744C350.708 326.945 354.733 322.922 354.733 317.958V270.097C354.733 265.134 350.708 261.11 345.744 261.11Z" fill="#93E1D8"/>
<path opacity="0.1" d="M418.179 261.11H376.893C371.928 261.11 367.904 265.134 367.904 270.097V317.958C367.904 322.922 371.928 326.945 376.893 326.945H418.179C423.143 326.945 427.168 322.922 427.168 317.958V270.097C427.168 265.134 423.143 261.11 418.179 261.11Z" fill="#93E1D8"/>
<path opacity="0.1" d="M490.612 261.11H449.326C444.362 261.11 440.337 265.134 440.337 270.097V317.958C440.337 322.922 444.362 326.945 449.326 326.945H490.612C495.577 326.945 499.601 322.922 499.601 317.958V270.097C499.601 265.134 495.577 261.11 490.612 261.11Z" fill="#93E1D8"/>
<path opacity="0.1" d="M548.011 262.509H536.798C523.529 262.509 512.772 273.264 512.772 286.531V304.323C512.772 317.59 523.529 328.345 536.798 328.345H548.011C561.28 328.345 572.036 317.59 572.036 304.323V286.531C572.036 273.264 561.28 262.509 548.011 262.509Z" fill="#93E1D8"/>
<path d="M563.048 261.11H521.761C516.797 261.11 512.772 265.134 512.772 270.097V317.958C512.772 322.922 516.797 326.945 521.761 326.945H563.048C568.012 326.945 572.036 322.922 572.036 317.958V270.097C572.036 265.134 568.012 261.11 563.048 261.11Z" fill="#5C184E"/>
<path opacity="0.1" d="M345.744 333.534H304.457C299.493 333.534 295.469 337.558 295.469 342.521V390.382C295.469 395.346 299.493 399.37 304.457 399.37H345.744C350.708 399.37 354.733 395.346 354.733 390.382V342.521C354.733 337.558 350.708 333.534 345.744 333.534Z" fill="#93E1D8"/>
<path opacity="0.1" d="M418.179 333.534H376.893C371.928 333.534 367.904 337.558 367.904 342.521V390.382C367.904 395.346 371.928 399.37 376.893 399.37H418.179C423.143 399.37 427.168 395.346 427.168 390.382V342.521C427.168 337.558 423.143 333.534 418.179 333.534Z" fill="#93E1D8"/>
<path opacity="0.1" d="M490.612 333.534H449.326C444.362 333.534 440.337 337.558 440.337 342.521V390.382C440.337 395.346 444.362 399.37 449.326 399.37H490.612C495.577 399.37 499.601 395.346 499.601 390.382V342.521C499.601 337.558 495.577 333.534 490.612 333.534Z" fill="#93E1D8"/>
<path opacity="0.1" d="M345.744 413.48H304.457C299.493 413.48 295.469 417.503 295.469 422.467V470.328C295.469 475.291 299.493 479.315 304.457 479.315H345.744C350.708 479.315 354.733 475.291 354.733 470.328V422.467C354.733 417.503 350.708 413.48 345.744 413.48Z" fill="#93E1D8"/>
<path opacity="0.1" d="M418.179 413.48H376.893C371.928 413.48 367.904 417.503 367.904 422.467V470.328C367.904 475.291 371.928 479.315 376.893 479.315H418.179C423.143 479.315 427.168 475.291 427.168 470.328V422.467C427.168 417.503 423.143 413.48 418.179 413.48Z" fill="#93E1D8"/>
<path opacity="0.1" d="M490.612 413.48H449.326C444.362 413.48 440.337 417.503 440.337 422.467V470.328C440.337 475.291 444.362 479.315 449.326 479.315H490.612C495.577 479.315 499.601 475.291 499.601 470.328V422.467C499.601 417.503 495.577 413.48 490.612 413.48Z" fill="#93E1D8"/>
<path opacity="0.1" d="M490.612 493.425H449.326C444.362 493.425 440.337 497.449 440.337 502.413V550.273C440.337 555.237 444.362 559.261 449.326 559.261H490.612C495.577 559.261 499.601 555.237 499.601 550.273V502.413C499.601 497.449 495.577 493.425 490.612 493.425Z" fill="#93E1D8"/>
<path opacity="0.1" d="M548.011 334.933H536.798C523.529 334.933 512.772 345.688 512.772 358.955V376.747C512.772 390.014 523.529 400.769 536.798 400.769H548.011C561.28 400.769 572.036 390.014 572.036 376.747V358.955C572.036 345.688 561.28 334.933 548.011 334.933Z" fill="#93E1D8"/>
<path d="M562.623 333.534H522.186C516.987 333.534 512.772 337.748 512.772 342.946V389.957C512.772 395.156 516.987 399.37 522.186 399.37H562.623C567.822 399.37 572.036 395.156 572.036 389.957V342.946C572.036 337.748 567.822 333.534 562.623 333.534Z" fill="#5C184E"/>
<path opacity="0.2" d="M562.623 333.534H522.186C516.987 333.534 512.772 337.748 512.772 342.946V389.957C512.772 395.156 516.987 399.37 522.186 399.37H562.623C567.822 399.37 572.036 395.156 572.036 389.957V342.946C572.036 337.748 567.822 333.534 562.623 333.534Z" fill="#8ECDCB"/>
<path opacity="0.1" d="M418.803 493.425H303.833C299.213 493.425 295.469 497.169 295.469 501.788V550.898C295.469 555.517 299.213 559.261 303.833 559.261H418.803C423.422 559.261 427.167 555.517 427.167 550.898V501.788C427.167 497.169 423.422 493.425 418.803 493.425Z" fill="#93E1D8"/>
<path opacity="0.1" d="M562.314 413.48H516.837C511.472 413.48 507.124 417.828 507.124 423.192V549.557C507.124 554.921 511.472 559.269 516.837 559.269H562.314C567.678 559.269 572.027 554.921 572.027 549.557V423.192C572.027 417.828 567.678 413.48 562.314 413.48Z" fill="#93E1D8"/>
<path d="M567.321 198.223H541.379V201.03H567.321V198.223Z" fill="#5C184E"/>
<path d="M529.342 198.223H503.401V201.03H529.342V198.223Z" fill="#5C184E"/>
<path d="M491.354 198.223H465.413V201.03H491.354V198.223Z" fill="#5C184E"/>
<path d="M453.375 198.223H427.433V201.03H453.375V198.223Z" fill="#5C184E"/>
<path d="M732.983 395.263C735.658 386.267 732.983 377.272 732.983 377.272V368.784C732.983 368.784 736.041 352.192 722.395 341.547L713.348 333.567C713.348 333.567 708.275 329.211 706.8 328.936C706.526 328.877 706.247 328.835 705.967 328.811L705.701 328.653C704.923 327.323 704.26 325.93 703.718 324.488C704.304 324.564 704.899 324.504 705.458 324.314C706.017 324.123 706.525 323.807 706.942 323.389C707.269 323.013 707.526 322.581 707.7 322.114C708.225 320.94 708.317 319.516 708.758 318.266C709.145 317.253 709.709 316.317 710.424 315.501C710.333 315.651 710.233 315.792 710.149 315.951C711.432 314.351 713.107 312.985 714.315 311.303C714.554 310.969 714.774 310.621 714.973 310.262C714.923 310.337 714.856 310.403 714.798 310.478C716.464 307.804 716.972 304.564 717.455 301.441C717.688 300.378 717.705 299.279 717.505 298.209C717.271 297.499 716.97 296.813 716.605 296.16C714.639 292.104 714.673 286.998 711.532 283.757C709.166 281.334 705.584 280.592 702.21 280.176C698.836 279.759 695.288 279.518 692.388 277.752C691.579 277.138 690.683 276.647 689.731 276.294C689.252 276.127 688.729 276.132 688.253 276.308C687.778 276.485 687.378 276.821 687.124 277.261C687.064 277.521 686.944 277.763 686.774 277.969C686.623 278.054 686.454 278.104 686.281 278.114C686.107 278.124 685.934 278.094 685.774 278.027L681.284 276.827L681.334 277.052H681.217L681.384 277.76C681.472 277.745 681.562 277.76 681.64 277.805C681.717 277.849 681.777 277.918 681.809 278.002L681.084 279.118C679.694 279.093 678.322 278.81 677.035 278.285C677.027 278.357 677.027 278.43 677.035 278.502H676.969C676.885 279.768 678.326 280.592 678.768 281.783C678.945 282.305 678.945 282.87 678.768 283.391C678.588 283.874 678.303 284.312 677.935 284.674C676.344 286.248 674.303 285.94 672.47 286.931C672.312 286.999 672.17 287.1 672.055 287.228C671.94 287.356 671.854 287.508 671.804 287.672C671.731 287.795 671.71 287.942 671.745 288.08C671.818 288.272 671.949 288.435 672.12 288.547C672.654 288.978 673.238 289.342 673.861 289.63C673.678 289.796 673.503 289.963 673.336 290.138C671.01 292.501 669.306 295.404 668.376 298.587C667.446 301.77 667.319 305.133 668.006 308.377C668.693 311.621 670.174 314.644 672.315 317.177C674.456 319.709 677.191 321.672 680.276 322.889C680.342 323.239 680.392 323.597 680.442 323.972C680.442 324.013 680.442 324.038 680.442 324.08L680.492 324.563L674.444 327.137C673.532 327.13 672.641 326.864 671.874 326.37C671.107 325.876 670.496 325.174 670.112 324.347C668.705 321.44 663.731 324.347 663.731 324.347C663.731 324.347 648.561 323.214 642.905 326.013C642.905 326.013 633.849 322.214 632.575 321.956C631.3 321.698 629.393 320.69 628.501 320.948C627.61 321.206 626.46 319.282 625.819 319.424C625.177 319.566 624.927 318.158 622.886 317.65C620.845 317.142 620.079 317.783 617.788 315.501C615.497 313.219 596.87 304.223 596.87 304.223L588.506 297.343L579.584 290.246L579.426 290.538C579.367 290.329 579.309 290.113 579.251 289.88C578.363 286.344 577.25 282.869 575.919 279.476C575.344 278.102 575.085 276.369 574.311 277.286C573.836 277.835 573.028 276.627 571.812 275.811C571.554 275.633 571.259 275.515 570.95 275.465C570.641 275.415 570.324 275.434 570.023 275.522C569.722 275.61 569.445 275.763 569.211 275.972C568.977 276.181 568.793 276.439 568.671 276.727C561.723 287.622 559.232 288.389 563.256 292.395C566.847 295.952 569.229 299.059 572.153 300.041L572.503 300.15C572.44 300.166 572.374 300.166 572.311 300.15L589.272 320.423C589.272 320.423 601.51 331.068 609.932 334.484C618.355 337.899 617.705 338.923 617.705 338.923C617.705 338.923 643.213 351.842 647.162 351.592C651.11 351.342 650.352 378.071 648.695 382.411C647.037 386.751 644.363 417.886 644.363 417.886C644.363 417.886 641.805 424.474 644.488 429.031C644.488 429.031 645.079 437.76 644.546 439.859C642.222 443.44 638.906 449.521 638.365 455.776C638.365 456.109 638.298 456.418 638.265 456.743C638.095 456.94 637.892 457.106 637.665 457.234L638.231 457.067C637.99 459.675 637.431 462.243 636.565 464.714C635.217 468.184 634.503 471.869 634.458 475.592V495.716L632.791 508.21C632.791 508.21 630.75 517.664 632.791 519.871C633.652 520.972 634.052 522.363 633.908 523.753C633.823 525.366 634.28 526.961 635.207 528.284C635.562 528.671 635.821 529.135 635.966 529.639C636.111 530.144 636.136 530.675 636.04 531.191C635.366 533.381 637.04 556.695 637.04 556.695C637.04 556.695 636.549 563.117 635.874 563.459C635.199 563.8 637.04 570.889 637.04 570.889C637.04 570.889 630.151 576.636 631.908 579.676L633.666 582.375L633.2 582.833L632.916 583.125C632.385 582.818 631.765 582.701 631.159 582.791C628.993 585.006 626.678 587.068 624.228 588.963C621.12 591.204 612.665 594.453 612.665 594.453L606 594.994H605.875C605.875 594.994 602.685 594.694 604.476 599.633C606.267 604.573 622.278 603.057 622.278 603.057L631.625 601.583C631.625 601.583 648.286 601.666 653.06 600.608C655.051 600.167 655.559 599.1 655.392 598.026L655.342 597.976C655.113 596.951 654.645 595.995 653.976 595.186C653.942 595.132 653.903 595.082 653.86 595.036L654.159 591.621C661.232 587.547 652.16 579.535 652.16 579.535C652.16 579.535 655.267 572.779 656.859 570.589C658.45 568.398 658.45 536.122 658.45 536.122C658.45 536.122 659.283 524.461 657.092 521.762C657.054 520.883 657.256 520.01 657.675 519.237C658.095 518.464 658.717 517.82 659.474 517.372C661.049 516.298 665.806 501.496 669.538 489.211L671.887 503.687C671.887 503.687 671.379 510.617 672.903 512.641C673.19 513.023 673.394 513.46 673.503 513.924C673.612 514.389 673.623 514.871 673.536 515.34C673.175 517.282 673.292 519.284 673.878 521.17C674.057 521.98 674.492 522.71 675.119 523.253C676.477 523.927 676.56 526.335 677.069 526.843C677.577 527.351 680.726 526.126 680.892 527.984C680.987 529.615 680.987 531.25 680.892 532.882L681.917 562.951C681.917 562.951 680.251 565.45 679.876 572.113C679.734 574.953 679.201 576.569 678.651 577.494C678.346 577.99 678.206 578.57 678.251 579.15C678.296 579.731 678.524 580.282 678.901 580.726L679.193 581.067L677.935 582.033C677.429 582.426 677.075 582.982 676.933 583.605C676.79 584.229 676.867 584.883 677.152 585.457C676.746 585.81 676.455 586.276 676.317 586.796C676.179 587.315 676.2 587.864 676.377 588.372C676.429 588.539 676.501 588.699 676.594 588.847C675.638 588.997 674.751 589.436 674.053 590.105C672.796 591.831 671.282 593.353 669.563 594.619C667.068 596.531 664.679 598.577 662.407 600.75C661.336 602.207 659.899 603.357 658.241 604.081C657.835 604.246 657.414 604.372 656.983 604.456C653.651 605.139 654.693 608.621 657.408 609.196C660.124 609.77 669.138 612.527 676.152 610.92C676.152 610.92 678.235 611.753 681.292 610.203C684.349 608.654 691.172 606.755 691.172 606.755C691.172 606.755 694.996 606.755 695.512 605.239C695.647 604.756 695.72 604.258 695.729 603.757L695.837 603.648L695.737 603.557C695.747 602.421 695.66 601.287 695.479 600.167C695.379 599.583 695.271 599.067 695.171 598.651C694.846 597.385 694.238 595.744 693.98 595.052C694.023 594.997 694.062 594.939 694.096 594.877C695.554 592.379 693.13 586.448 693.13 586.448C693.926 585.185 694.893 584.039 696.004 583.041C697.362 582.025 700.936 555.671 700.936 555.671C700.936 555.671 700.761 548.916 702.602 545.875C704.443 542.835 700.053 524.427 700.053 524.427C700.053 524.427 698.178 520.204 698.861 518.68C699.544 517.156 698.178 511.583 698.178 511.583V504.92C698.174 504.126 698.042 503.339 697.787 502.588C697.262 501.022 696.487 498.015 697.329 495.857C698.52 492.817 701.236 474.068 701.236 474.068C701.236 474.068 699.111 465.797 702.227 459.208C702.47 458.682 702.748 458.173 703.06 457.684C705.368 454.06 704.676 447.622 703.535 442.433C703.368 441.6 703.177 440.85 702.985 440.125C702.91 439.809 702.827 439.509 702.743 439.209L703.11 439.059C703.11 439.059 703.11 438.568 703.227 437.726C704.484 437.477 705.678 436.972 706.732 436.243C707.787 435.514 708.681 434.576 709.358 433.487C709.358 433.487 717.139 424.741 724.02 421.068C730.901 417.394 731.417 412.072 731.417 412.072C730.401 410.298 733.242 403.076 733.242 403.076L732.983 395.263ZM710.541 406.924L703.177 415.462V415.412C701.26 412.747 704.959 406.791 704.959 406.791L711.082 393.131C711.032 394.88 710.816 396.463 710.249 397.154C708.583 399.436 713.315 403.243 713.315 403.243C710.791 403.251 710.541 406.924 710.541 406.924Z" fill="url(#paint0_linear)"/>
<path d="M580.883 294.985L576.86 302.79C575.586 302.681 574.33 302.418 573.119 302.007C571.201 301.434 569.425 300.461 567.91 299.152C566.395 297.842 565.175 296.226 564.331 294.411C560.74 286.481 566.68 281.359 569.446 279.843C572.211 278.327 574.786 276.602 576.86 281.575C578.162 284.949 579.25 288.401 580.117 291.912C580.6 293.736 580.883 294.985 580.883 294.985Z" fill="#CC818C"/>
<path d="M708.666 335.583L702.243 345.145C702.243 345.145 671.894 359.622 677.692 342.647C680.242 335.15 680.541 329.678 680.083 325.888C680.083 325.846 680.083 325.821 680.083 325.78C679.483 321.04 677.701 318.983 677.701 318.983C677.701 318.983 707.283 303.84 702.876 314.193C701.977 316.345 701.619 318.685 701.834 321.007C702.198 324.351 703.284 327.577 705.017 330.461C706.059 332.286 707.281 334.002 708.666 335.583Z" fill="#CC818C"/>
<path d="M699.428 525.002C699.428 525.002 703.793 543.326 701.927 546.317C700.061 549.307 700.261 556.054 700.261 556.054C700.261 556.054 696.737 582.241 695.396 583.241C694.295 584.215 693.333 585.336 692.538 586.573C692.538 586.573 694.937 592.503 693.496 594.952C693.274 595.325 692.938 595.617 692.538 595.785C690.289 596.735 681.975 592.52 677.243 589.954C676.862 589.746 676.537 589.449 676.295 589.088C676.054 588.727 675.903 588.313 675.855 587.881C675.808 587.45 675.866 587.013 676.023 586.608C676.181 586.203 676.433 585.843 676.76 585.557C676.476 584.989 676.396 584.34 676.536 583.72C676.676 583.101 677.026 582.549 677.527 582.158L678.776 581.192L678.485 580.85C678.111 580.409 677.885 579.86 677.84 579.283C677.796 578.706 677.933 578.13 678.235 577.635C678.776 576.727 679.301 575.136 679.443 572.296C679.784 565.749 681.459 563.234 681.459 563.234L680.451 533.348C680.546 531.728 680.546 530.104 680.451 528.484C680.284 526.643 677.177 527.859 676.677 527.351C676.177 526.843 676.085 524.46 674.744 523.786C674.126 523.243 673.7 522.516 673.528 521.712C672.935 519.826 672.818 517.823 673.186 515.881C673.273 515.415 673.262 514.936 673.154 514.475C673.047 514.013 672.845 513.579 672.561 513.199C671.054 511.183 671.554 504.312 671.554 504.312L669.238 489.918C665.547 502.129 660.857 516.839 659.299 517.905C658.552 518.353 657.939 518.994 657.526 519.76C657.112 520.527 656.913 521.391 656.95 522.261C659.133 524.952 658.291 536.538 658.291 536.538C658.291 536.538 658.291 568.59 656.717 570.78C655.142 572.971 652.093 579.709 652.093 579.709C652.093 579.709 661.09 587.714 654.009 591.754H653.934C646.712 595.785 631.775 584.54 631.775 584.54L633.333 582.983L633.791 582.525L632.025 579.893C630.292 576.869 637.09 571.163 637.09 571.163C637.09 571.163 635.274 564.108 635.94 563.775C636.607 563.442 637.09 557.062 637.09 557.062C637.09 557.062 635.424 533.898 636.107 531.715C636.198 531.202 636.17 530.675 636.026 530.174C635.881 529.673 635.624 529.211 635.274 528.825C634.357 527.511 633.905 525.928 633.991 524.327C634.136 522.947 633.739 521.564 632.883 520.471C630.867 518.288 632.883 508.893 632.883 508.893L634.549 496.465V476.733C634.572 472.924 635.286 469.15 636.657 465.597C637.675 462.716 638.291 459.708 638.489 456.659C639.039 450.295 642.463 444.115 644.762 440.592C645.979 438.726 646.887 437.61 646.887 437.61L700.602 435.511C700.602 435.511 701.435 437.901 702.335 441.225C702.518 441.949 702.701 442.716 702.876 443.515C704.001 448.68 704.676 455.077 702.402 458.675C702.093 459.163 701.815 459.669 701.569 460.191C698.495 466.738 700.594 474.959 700.594 474.959C700.594 474.959 697.911 493.583 696.737 496.615C695.904 498.756 696.67 501.746 697.195 503.279C697.44 504.029 697.567 504.813 697.57 505.603V512.241C697.57 512.241 698.919 517.78 698.245 519.296C697.57 520.812 699.428 525.002 699.428 525.002Z" fill="#444053"/>
<path opacity="0.1" d="M701.9 459.208C701.589 459.691 701.311 460.195 701.067 460.715L698.043 460.549C698.335 458.991 696.277 444.39 696.277 444.39L702.367 444.048C703.492 449.204 704.175 455.601 701.9 459.208Z" fill="#93E1D8"/>
<path d="M702.401 458.7C702.093 459.188 701.815 459.694 701.568 460.216L698.544 460.041C698.836 458.492 696.778 443.882 696.778 443.882L702.868 443.54C704.001 448.705 704.676 455.101 702.401 458.7Z" fill="#444053"/>
<path opacity="0.05" d="M702.401 458.7C702.093 459.188 701.815 459.694 701.568 460.216L698.544 460.041C698.836 458.492 696.778 443.882 696.778 443.882L702.868 443.54C704.001 448.705 704.676 455.101 702.401 458.7Z" fill="#93E1D8"/>
<path opacity="0.1" d="M693.504 594.986C693.281 595.359 692.946 595.651 692.546 595.819C690.296 596.768 681.982 592.554 677.251 589.988C676.66 589.662 676.212 589.127 675.993 588.489C678.692 587.997 680.458 590.988 680.458 590.988C680.908 590.706 681.41 590.516 681.934 590.431C682.458 590.346 682.994 590.366 683.51 590.491C684.027 590.616 684.513 590.843 684.94 591.159C685.367 591.474 685.727 591.872 685.998 592.329C688.305 595.727 693.254 594.295 693.254 594.295L693.504 594.986Z" fill="#93E1D8"/>
<path d="M694.894 605.272C694.394 606.788 690.612 606.788 690.612 606.788C690.612 606.788 683.856 608.721 680.832 610.228C677.808 611.736 675.759 610.945 675.759 610.945C668.836 612.536 659.931 609.77 657.248 609.22C654.566 608.671 653.516 605.197 656.832 604.523C657.257 604.435 657.673 604.307 658.073 604.14C659.734 603.421 661.173 602.271 662.238 600.808C664.483 598.651 666.844 596.618 669.311 594.719C671.009 593.458 672.504 591.944 673.743 590.229C677.692 586.748 680.499 591.529 680.499 591.529C680.949 591.247 681.452 591.058 681.976 590.974C682.501 590.889 683.037 590.91 683.553 591.036C684.07 591.162 684.555 591.389 684.982 591.706C685.409 592.022 685.768 592.421 686.039 592.878C688.346 596.277 693.295 594.836 693.295 594.836C693.295 594.836 694.186 597.11 694.603 598.742C694.702 599.159 694.811 599.675 694.911 600.258C695.136 601.949 695.277 604.14 694.894 605.272Z" fill="#FF748F"/>
<path d="M683.35 594.661C683.603 594.661 683.808 594.456 683.808 594.203C683.808 593.95 683.603 593.745 683.35 593.745C683.097 593.745 682.892 593.95 682.892 594.203C682.892 594.456 683.097 594.661 683.35 594.661Z" fill="#E06666"/>
<path d="M679.409 598.351C679.662 598.351 679.867 598.146 679.867 597.893C679.867 597.64 679.662 597.434 679.409 597.434C679.156 597.434 678.951 597.64 678.951 597.893C678.951 598.146 679.156 598.351 679.409 598.351Z" fill="#E06666"/>
<path d="M675.402 601.666C675.655 601.666 675.861 601.461 675.861 601.208C675.861 600.955 675.655 600.75 675.402 600.75C675.149 600.75 674.944 600.955 674.944 601.208C674.944 601.461 675.149 601.666 675.402 601.666Z" fill="#E06666"/>
<path d="M677.476 600.183C677.729 600.183 677.934 599.978 677.934 599.725C677.934 599.472 677.729 599.267 677.476 599.267C677.223 599.267 677.018 599.472 677.018 599.725C677.018 599.978 677.223 600.183 677.476 600.183Z" fill="#E06666"/>
<path d="M681.467 596.393C681.72 596.393 681.925 596.188 681.925 595.935C681.925 595.682 681.72 595.477 681.467 595.477C681.213 595.477 681.008 595.682 681.008 595.935C681.008 596.188 681.213 596.393 681.467 596.393Z" fill="#E06666"/>
<path d="M694.894 605.272C694.394 606.788 690.612 606.788 690.612 606.788C690.612 606.788 683.856 608.721 680.832 610.228C677.808 611.736 675.759 610.945 675.759 610.945C668.836 612.536 659.931 609.77 657.248 609.22C654.566 608.671 653.516 605.197 656.832 604.523C657.257 604.435 657.673 604.307 658.073 604.14C661.001 605.148 664.059 605.728 667.153 605.864C673.993 606.155 679.408 605.864 679.408 605.864L686.33 603.64C687.641 602.845 689.096 602.318 690.612 602.091C692.145 601.778 693.595 601.148 694.869 600.241C695.136 601.949 695.277 604.14 694.894 605.272Z" fill="#DCE6F2"/>
<path opacity="0.5" d="M677.668 609.612C677.282 609.615 676.897 609.578 676.518 609.504L676.618 609.012C678.034 609.229 679.482 609.026 680.783 608.429C681.4 608.188 682.016 607.896 682.616 607.596C683.216 607.296 684.057 606.922 684.807 606.647L685.49 606.413C685.865 606.28 686.248 606.155 686.615 605.997C686.823 605.914 687.031 605.814 687.231 605.714C687.723 605.457 688.243 605.258 688.781 605.122C689.056 605.071 689.334 605.035 689.614 605.014C689.871 604.997 690.126 604.966 690.38 604.922C690.884 604.795 691.373 604.614 691.838 604.381C692.335 604.125 692.861 603.93 693.404 603.798L693.771 603.74C694.166 603.73 694.547 603.589 694.854 603.34L695.229 603.681C694.846 604.017 694.362 604.214 693.854 604.239L693.504 604.298C692.999 604.421 692.51 604.603 692.046 604.839C691.547 605.087 691.022 605.28 690.48 605.414C690.205 605.468 689.927 605.501 689.647 605.514C689.384 605.533 689.123 605.567 688.864 605.614C688.364 605.743 687.88 605.931 687.423 606.172L686.79 606.463C686.406 606.622 686.007 606.755 685.623 606.888L684.957 607.121C684.224 607.388 683.507 607.729 682.808 608.054C682.108 608.379 681.575 608.637 680.942 608.887C679.905 609.33 678.795 609.575 677.668 609.612Z" fill="#E06666"/>
<path opacity="0.1" d="M679.283 526.218C679.283 526.218 682.765 521.22 688.73 521.22C694.695 521.22 697.244 520.546 697.244 520.546C697.244 520.546 693.429 522.811 690.788 523.103C688.147 523.394 679.283 526.218 679.283 526.218Z" fill="#93E1D8"/>
<path opacity="0.1" d="M681.3 527.392C681.3 527.392 684.449 525.21 686.248 525.127C688.048 525.044 689.58 524.877 689.58 524.877C688.736 525.469 687.802 525.922 686.815 526.218C685.34 526.634 681.3 527.392 681.3 527.392Z" fill="#93E1D8"/>
<path opacity="0.1" d="M682.008 528.9C682.008 528.9 686.748 529.275 686.79 530.566L682.008 528.9Z" fill="#93E1D8"/>
<path opacity="0.1" d="M637.797 458.1C638.047 458.142 642.287 453.694 642.579 451.936C642.81 450.824 643.472 449.848 644.42 449.221C644.42 449.221 647.152 450.312 644.72 453.66C642.287 457.009 637.797 458.1 637.797 458.1Z" fill="#93E1D8"/>
<path opacity="0.1" d="M702.835 314.176C701.868 316.459 701.019 316.675 701.169 318.849C700.044 320.04 698.75 321.059 697.328 321.873C694.329 323.655 691.064 327.145 687.331 327.145C684.831 327.147 682.352 326.678 680.026 325.763C679.426 321.023 677.643 318.966 677.643 318.966C677.643 318.966 707.233 303.823 702.835 314.176Z" fill="#93E1D8"/>
<path d="M707.366 306.122C707.366 310.076 706.193 313.941 703.996 317.228C701.799 320.515 698.677 323.078 695.023 324.591C691.37 326.104 687.35 326.5 683.472 325.728C679.593 324.957 676.031 323.053 673.235 320.257C670.439 317.462 668.535 313.9 667.763 310.022C666.992 306.144 667.388 302.125 668.901 298.472C670.414 294.819 672.977 291.697 676.265 289.5C679.552 287.304 683.418 286.131 687.372 286.131C692.675 286.131 697.76 288.237 701.51 291.986C705.259 295.735 707.366 300.82 707.366 306.122Z" fill="#CC818C"/>
<path opacity="0.1" d="M708.666 335.583L702.243 345.145C702.243 345.145 671.894 359.622 677.692 342.646C680.242 335.15 680.541 329.677 680.083 325.888H680.133C680.492 327.144 680.696 328.439 680.741 329.744C680.833 332.36 680.9 335.666 687.406 336.757C698.236 338.573 704.017 331.81 705.033 330.485C706.071 332.301 707.288 334.009 708.666 335.583Z" fill="#93E1D8"/>
<path opacity="0.1" d="M580.883 294.986L576.86 302.79C575.586 302.681 574.33 302.418 573.119 302.007L572.77 301.591C574.436 302.224 579.942 291.771 579.942 291.771L580.117 291.912C580.6 293.736 580.883 294.986 580.883 294.986Z" fill="#93E1D8"/>
<path opacity="0.1" d="M702.334 441.25C689.371 446.88 644.536 442.083 644.536 442.083C644.67 441.605 644.746 441.113 644.761 440.617C645.977 438.751 646.885 437.635 646.885 437.635L700.601 435.536C700.601 435.536 701.476 437.926 702.334 441.25Z" fill="#93E1D8"/>
<path d="M680.1 326.354L674.119 328.911C673.216 328.904 672.334 328.639 671.577 328.147C670.82 327.656 670.219 326.959 669.845 326.137C668.454 323.247 663.547 326.137 663.547 326.137C663.547 326.137 648.552 325.005 643.02 327.803C643.02 327.803 634.082 324.022 632.824 323.772C631.566 323.522 629.675 322.514 628.792 322.764C627.909 323.014 626.784 321.098 626.151 321.256C625.518 321.415 625.268 319.999 623.252 319.491C621.236 318.983 620.486 319.616 618.254 317.35C616.021 315.084 597.602 306.147 597.602 306.147L589.272 299.35L580.458 292.303C580.458 292.303 574.918 302.749 573.277 302.115L590.021 322.264C590.021 322.264 602.109 332.834 610.423 336.233C618.737 339.631 618.104 340.639 618.104 340.639C618.104 340.639 643.287 353.483 647.186 353.233C651.084 352.983 650.351 379.512 648.685 383.794C647.019 388.075 644.412 419.044 644.412 419.044C644.412 419.044 641.913 425.59 644.537 430.122C644.537 430.122 645.161 439.442 644.537 441.075C644.537 441.075 689.647 445.898 702.451 440.192C702.451 440.192 704.342 419.293 702.451 416.653C700.56 414.013 704.217 408.124 704.217 408.124L712.273 390.124L731.916 370.358C731.916 370.358 734.932 353.866 721.461 343.296L712.523 335.358C712.523 335.358 707.524 331.035 706.058 330.76C704.592 330.485 705.133 330.76 705.133 330.76C705.133 330.76 699.302 339.265 687.339 337.249C680.858 336.158 680.791 332.851 680.675 330.244C680.641 328.929 680.448 327.623 680.1 326.354Z" fill="#67647E"/>
<path opacity="0.1" d="M704.717 394.122C704.717 394.122 677.01 395.255 671.478 403.959C671.478 403.959 678.659 400.552 685.074 401.56C691.488 402.568 704.717 394.122 704.717 394.122Z" fill="#93E1D8"/>
<path opacity="0.1" d="M674.118 424.458C674.118 424.458 687.214 425.341 689.988 422.567C692.762 419.793 692.77 418.161 692.77 418.161L674.118 424.458Z" fill="#93E1D8"/>
<path opacity="0.1" d="M707.367 367.426C707.367 367.426 696.279 380.52 709.758 386.184L707.367 367.426Z" fill="#93E1D8"/>
<path opacity="0.1" d="M641.763 342.13C641.763 342.13 645.795 350.351 647.811 350.893L641.763 342.13Z" fill="#93E1D8"/>
<path opacity="0.1" d="M628.168 338.598C628.168 338.598 638.24 347.669 640.131 348.544C640.131 348.544 629.676 338.598 628.168 338.598Z" fill="#93E1D8"/>
<path opacity="0.1" d="M668.33 329.919C668.33 329.919 658.633 344.395 664.931 353.241C664.931 353.208 661.407 342.755 668.33 329.919Z" fill="#93E1D8"/>
<path d="M692.771 439.567L689.806 442.358L689.389 442.741L685.957 445.989C685.715 446.172 685.474 446.356 685.224 446.522C671.253 456.518 668.454 441.325 668.454 441.325C668.454 441.325 662.29 445.356 661.407 442.083C660.523 438.809 675.76 434.153 678.068 434.403C678.27 434.424 678.474 434.424 678.676 434.403C679.777 434.22 680.837 433.845 681.808 433.295L682.483 432.937C683.259 432.5 684.012 432.025 684.741 431.513L692.771 439.567Z" fill="#CC818C"/>
<path opacity="0.1" d="M707.833 306.122C707.84 309.589 706.946 312.999 705.237 316.016C703.528 319.033 701.064 321.554 698.086 323.331C697.807 322.863 697.562 322.376 697.353 321.873C696.636 320.207 696.195 318.408 695.47 316.734C694.678 314.906 693.547 313.244 692.138 311.836C691.899 311.557 691.592 311.345 691.247 311.22C690.923 311.175 690.593 311.197 690.278 311.284C689.962 311.372 689.669 311.523 689.414 311.728C688.566 312.302 687.62 312.717 686.623 312.952C686.124 313.066 685.604 313.05 685.114 312.904C684.623 312.758 684.179 312.488 683.824 312.119C683.041 311.186 683.149 309.82 683.374 308.629C683.866 306.022 684.682 303.457 684.69 300.808C684.699 298.159 683.682 295.31 681.358 293.994C679.325 292.837 676.801 293.161 674.544 292.512C674.194 292.42 673.852 292.303 673.519 292.162C676.295 289.314 679.857 287.358 683.75 286.544C687.643 285.731 691.691 286.097 695.375 287.596C699.059 289.095 702.212 291.658 704.431 294.958C706.65 298.258 707.835 302.145 707.833 306.122Z" fill="#93E1D8"/>
<path d="M672.152 288.963C671.794 289.155 671.394 289.505 671.502 289.905C671.572 290.095 671.7 290.259 671.869 290.371C672.802 291.124 673.879 291.677 675.035 291.995C677.292 292.612 679.825 292.32 681.857 293.478C684.157 294.786 685.19 297.643 685.19 300.291C685.19 302.94 684.356 305.505 683.882 308.104C683.657 309.304 683.54 310.67 684.323 311.603C684.68 311.969 685.124 312.238 685.614 312.384C686.104 312.53 686.623 312.547 687.122 312.436C688.119 312.205 689.065 311.793 689.913 311.219C690.169 311.013 690.464 310.861 690.78 310.772C691.097 310.683 691.428 310.66 691.754 310.703C692.097 310.833 692.403 311.045 692.645 311.319C694.055 312.73 695.186 314.395 695.978 316.225C696.711 317.891 697.144 319.682 697.86 321.365C698.485 323.081 699.655 324.544 701.193 325.529C702.792 326.412 705.008 326.362 706.241 324.996C707.474 323.63 707.374 321.756 707.957 320.115C708.957 317.258 711.747 315.467 713.497 313.002C715.454 310.228 715.996 306.747 716.529 303.39C716.766 302.333 716.783 301.238 716.579 300.175C716.351 299.47 716.055 298.79 715.696 298.142C713.747 294.111 713.788 289.038 710.698 285.823C708.365 283.408 704.825 282.675 701.492 282.258C698.16 281.842 694.661 281.608 691.804 279.851C691.003 279.245 690.119 278.757 689.18 278.402C688.704 278.234 688.185 278.239 687.713 278.416C687.241 278.593 686.846 278.93 686.597 279.368C686.539 279.624 686.422 279.864 686.256 280.067C686.107 280.154 685.939 280.204 685.767 280.214C685.595 280.224 685.423 280.194 685.264 280.126L680.833 278.935L681.341 281.167C679.73 281.234 678.124 280.95 676.634 280.334C676.551 281.6 677.975 282.416 678.417 283.599C678.576 284.137 678.582 284.709 678.435 285.25C678.288 285.791 677.993 286.281 677.584 286.664C675.976 288.28 673.968 287.972 672.152 288.963Z" fill="#585268"/>
<path opacity="0.1" d="M654.191 589.755L654.008 591.762H653.933C646.711 595.793 631.774 584.549 631.774 584.549L633.332 582.991C633.587 583.275 633.78 583.609 633.898 583.972C634.016 584.335 634.056 584.719 634.015 585.099L637.064 585.265L640.713 589.205C640.713 589.205 650.584 590.346 653.258 589.713L654.191 589.755Z" fill="#93E1D8"/>
<path d="M652.926 600.699C648.228 601.749 631.775 601.674 631.775 601.674L622.545 603.132C622.545 603.132 606.717 604.648 604.959 599.733C603.201 594.819 606.342 595.127 606.342 595.127H606.467L613.056 594.594C613.056 594.594 621.387 591.362 624.477 589.138C626.896 587.255 629.181 585.207 631.317 583.008C631.317 583.008 634.066 582.475 634.016 585.657L637.065 585.823L640.714 589.771C640.714 589.771 650.585 590.912 653.259 590.271H654.192L653.768 595.144L653.884 595.285C654.517 596.052 657.125 599.767 652.926 600.699Z" fill="#FF748F"/>
<path d="M635.89 588.947C636.143 588.947 636.348 588.742 636.348 588.489C636.348 588.236 636.143 588.031 635.89 588.031C635.637 588.031 635.432 588.236 635.432 588.489C635.432 588.742 635.637 588.947 635.89 588.947Z" fill="#E06666"/>
<path d="M624.052 594.077C624.305 594.077 624.51 593.872 624.51 593.619C624.51 593.366 624.305 593.161 624.052 593.161C623.799 593.161 623.594 593.366 623.594 593.619C623.594 593.872 623.799 594.077 624.052 594.077Z" fill="#E06666"/>
<path d="M617.954 595.927C618.207 595.927 618.413 595.722 618.413 595.469C618.413 595.216 618.207 595.011 617.954 595.011C617.701 595.011 617.496 595.216 617.496 595.469C617.496 595.722 617.701 595.927 617.954 595.927Z" fill="#E06666"/>
<path d="M627.159 593.095C627.412 593.095 627.617 592.89 627.617 592.637C627.617 592.384 627.412 592.178 627.159 592.178C626.906 592.178 626.701 592.384 626.701 592.637C626.701 592.89 626.906 593.095 627.159 593.095Z" fill="#E06666"/>
<path d="M620.995 595.002C621.248 595.002 621.453 594.797 621.453 594.544C621.453 594.291 621.248 594.086 620.995 594.086C620.742 594.086 620.537 594.291 620.537 594.544C620.537 594.797 620.742 595.002 620.995 595.002Z" fill="#E06666"/>
<path d="M630.301 591.637C630.554 591.637 630.759 591.432 630.759 591.179C630.759 590.926 630.554 590.721 630.301 590.721C630.048 590.721 629.843 590.926 629.843 591.179C629.843 591.432 630.048 591.637 630.301 591.637Z" fill="#E06666"/>
<path d="M633.407 590.288C633.66 590.288 633.865 590.083 633.865 589.83C633.865 589.577 633.66 589.371 633.407 589.371C633.154 589.371 632.949 589.577 632.949 589.83C632.949 590.083 633.154 590.288 633.407 590.288Z" fill="#E06666"/>
<path d="M652.926 600.7C648.228 601.749 631.775 601.674 631.775 601.674L622.545 603.132C622.545 603.132 606.717 604.648 604.959 599.733C603.201 594.819 606.342 595.127 606.342 595.127H606.467C607.475 596.435 609.499 597.917 613.473 597.992L624.852 598.451L636.64 597.618C636.64 597.618 647.686 597.293 649.486 596.91C650.997 596.503 652.469 595.962 653.884 595.294C654.517 596.052 657.125 599.767 652.926 600.7Z" fill="#DCE6F2"/>
<path opacity="0.5" d="M623.435 602.024C622.806 602.033 622.178 601.954 621.569 601.791L621.703 601.307C623.255 601.641 624.868 601.569 626.384 601.099C626.943 600.949 627.492 600.791 628.05 600.624C629.059 600.305 630.085 600.046 631.124 599.85C632.804 599.632 634.5 599.581 636.189 599.7H636.548C641.595 599.965 646.656 599.739 651.659 599.025C652.847 598.943 653.978 598.488 654.892 597.726L655.25 598.084C654.262 598.923 653.035 599.427 651.743 599.525C646.706 600.243 641.611 600.469 636.531 600.2H636.164C634.498 600.083 632.823 600.133 631.166 600.35C630.149 600.539 629.144 600.792 628.159 601.108C627.601 601.274 627.042 601.441 626.493 601.582C625.495 601.854 624.469 602.002 623.435 602.024Z" fill="#E06666"/>
<path opacity="0.1" d="M692.77 439.567L689.805 442.358L682.44 432.929C683.216 432.492 683.97 432.017 684.698 431.504L692.77 439.567Z" fill="#93E1D8"/>
<path d="M726.159 362.312L731.99 370.367V378.804C731.99 378.804 734.631 387.742 731.99 396.679L732.274 404.484C732.274 404.484 729.466 411.655 730.474 413.421C730.474 413.421 729.974 418.71 723.177 422.359C716.379 426.007 708.665 434.653 708.665 434.653C708.665 434.653 705.766 440.192 697.96 438.934L690.529 442.083L681.974 431.13L693.553 424.833C693.553 424.833 697.585 419.427 699.976 419.677L709.798 408.215C709.798 408.215 710.048 404.567 712.563 404.567C712.563 404.567 707.907 400.794 709.539 398.528C711.172 396.263 709.798 386.184 709.798 386.184L726.159 362.312Z" fill="#67647E"/>
<path opacity="0.1" d="M715.33 399.028C715.33 399.028 728.551 398.778 730.184 402.177C731.816 405.575 719.32 397.137 715.33 399.028Z" fill="#93E1D8"/>
<path opacity="0.1" d="M689.447 442.083C689.449 442.303 689.429 442.524 689.389 442.741C689.237 443.754 688.739 444.684 687.98 445.374C687.221 446.063 686.247 446.468 685.223 446.522H684.99C683.81 446.522 682.679 446.054 681.845 445.22C681.01 444.385 680.542 443.254 680.542 442.074C680.543 441.583 680.627 441.096 680.792 440.633C678.692 438.968 678.576 435.902 678.634 434.386C679.735 434.203 680.795 433.828 681.766 433.279C682.314 434.852 683.05 436.354 683.957 437.751C684.296 437.671 684.642 437.63 684.99 437.626C685.576 437.626 686.155 437.742 686.696 437.966C687.237 438.19 687.728 438.518 688.142 438.932C688.556 439.346 688.884 439.837 689.108 440.377C689.332 440.918 689.447 441.498 689.447 442.083Z" fill="#93E1D8"/>
<path d="M682.166 432.279C682.166 432.279 679.184 432.954 679.184 433.495C679.184 434.037 678.509 438.951 681.783 440.992C685.057 443.032 684.724 438.176 684.724 438.176C684.724 438.176 681.908 433.862 682.166 432.279Z" fill="#E06666"/>
<path d="M685.491 446.531C687.947 446.531 689.939 444.539 689.939 442.083C689.939 439.626 687.947 437.635 685.491 437.635C683.034 437.635 681.042 439.626 681.042 442.083C681.042 444.539 683.034 446.531 685.491 446.531Z" fill="#E4AAB4"/>
<path d="M685.49 445.898C687.597 445.898 689.306 444.19 689.306 442.083C689.306 439.976 687.597 438.268 685.49 438.268C683.383 438.268 681.675 439.976 681.675 442.083C681.675 444.19 683.383 445.898 685.49 445.898Z" fill="#DCE6F2"/>
<path opacity="0.1" d="M668.163 443.807C668.163 443.807 677.568 451.603 689.647 446.656V450.437C689.647 450.437 681.592 455.976 674.294 452.62C666.996 449.263 668.163 443.807 668.163 443.807Z" fill="#93E1D8"/>
<path opacity="0.1" d="M668.163 442.799C668.163 442.799 677.568 450.604 689.647 445.648V449.429C689.647 449.429 681.592 454.968 674.294 451.612C666.996 448.255 668.163 442.799 668.163 442.799Z" fill="#93E1D8"/>
<path d="M668.163 442.799C668.163 442.799 677.568 450.604 689.647 445.648V449.429C689.647 449.429 681.592 454.968 674.294 451.612C666.996 448.255 668.163 442.799 668.163 442.799Z" fill="#444053"/>
<path opacity="0.05" d="M668.413 442.799C668.413 442.799 677.819 450.604 689.906 445.648V449.429C689.906 449.429 681.851 454.968 674.545 451.612C667.239 448.255 668.413 442.799 668.413 442.799Z" fill="#93E1D8"/>
<path opacity="0.1" d="M638.614 582.991C638.614 582.991 651.21 585.307 653.051 585.807C654.892 586.306 652.551 587.189 652.551 587.189C652.551 587.189 641.055 585.132 638.614 582.991Z" fill="#93E1D8"/>
<path opacity="0.1" d="M638.322 576.319C638.53 576.319 646.886 573.97 648.685 569.947L638.322 576.319Z" fill="#93E1D8"/>
<path opacity="0.1" d="M650.51 528.151C650.51 528.151 653.892 532.599 656.075 532.474C658.258 532.349 652.493 527.984 650.51 528.151Z" fill="#93E1D8"/>
<path opacity="0.1" d="M652.384 535.564C652.384 535.564 653.808 538.704 655.908 537.696L652.384 535.564Z" fill="#93E1D8"/>
<path opacity="0.05" d="M660.349 466.43L669.279 489.977C669.279 489.977 670.537 474.826 667.879 470.294C667.124 468.999 666.014 467.946 664.679 467.261C663.345 466.576 661.842 466.288 660.349 466.43Z" fill="#93E1D8"/>
<g opacity="0.1">
<path opacity="0.1" d="M682.291 279.851L682.216 279.509L680.784 279.126L680.942 279.826C681.391 279.859 681.842 279.867 682.291 279.851Z" fill="#93E1D8"/>
<path opacity="0.1" d="M678.351 285.532L678.501 285.398C678.911 285.016 679.206 284.526 679.354 283.984C679.501 283.443 679.494 282.871 679.334 282.333C679.161 281.915 678.918 281.53 678.617 281.192C677.912 281.053 677.22 280.849 676.551 280.584C676.468 281.842 677.884 282.658 678.326 283.841C678.53 284.384 678.539 284.982 678.351 285.532Z" fill="#93E1D8"/>
<path opacity="0.1" d="M702.169 324.238C700.616 323.26 699.43 321.796 698.795 320.074C698.087 318.408 697.645 316.609 696.92 314.943C696.129 313.112 694.998 311.447 693.588 310.037C693.348 309.76 693.041 309.548 692.697 309.42C692.373 309.378 692.044 309.401 691.729 309.488C691.414 309.575 691.12 309.725 690.864 309.928C690.016 310.503 689.07 310.918 688.073 311.153C687.575 311.266 687.055 311.248 686.565 311.102C686.075 310.957 685.63 310.687 685.274 310.32C684.491 309.387 684.6 308.013 684.824 306.822C685.316 304.223 686.132 301.649 686.141 299.009C686.149 296.368 685.133 293.503 682.808 292.195C680.776 291.037 678.252 291.362 675.994 290.713C674.836 290.394 673.756 289.841 672.82 289.088C672.761 289.04 672.705 288.987 672.653 288.93C672.464 289.003 672.28 289.089 672.104 289.188C671.737 289.38 671.346 289.73 671.446 290.129C671.521 290.319 671.651 290.482 671.82 290.596C672.752 291.35 673.83 291.903 674.986 292.22C677.244 292.837 679.768 292.545 681.8 293.703C684.1 295.011 685.133 297.867 685.133 300.516C685.133 303.165 684.3 305.73 683.816 308.329C683.591 309.529 683.483 310.895 684.266 311.828C684.622 312.195 685.067 312.464 685.557 312.61C686.047 312.756 686.567 312.773 687.065 312.66C688.062 312.43 689.008 312.018 689.856 311.444C690.11 311.238 690.404 311.086 690.719 310.997C691.034 310.909 691.364 310.885 691.689 310.928C692.033 311.056 692.339 311.268 692.58 311.544C693.987 312.958 695.117 314.622 695.912 316.45C696.646 318.116 697.079 319.907 697.795 321.59C698.419 323.305 699.59 324.769 701.127 325.754C702.719 326.637 704.943 326.587 706.126 325.221C706.453 324.85 706.708 324.421 706.875 323.955C706.204 324.456 705.401 324.749 704.564 324.8C703.728 324.85 702.896 324.655 702.169 324.238Z" fill="#93E1D8"/>
<path opacity="0.1" d="M709.367 317.833C710.625 316.242 712.282 314.885 713.465 313.219C713.699 312.885 713.915 312.536 714.115 312.186C712.591 314.127 710.5 315.667 709.367 317.833Z" fill="#93E1D8"/>
</g>
</g>
<defs>
<linearGradient id="paint0_linear" x1="647.753" y1="611.428" x2="647.753" y2="275.436" gradientUnits="userSpaceOnUse">
<stop stop-color="#808080" stop-opacity="0.25"/>
<stop offset="0.54" stop-color="#808080" stop-opacity="0.12"/>
<stop offset="1" stop-color="#808080" stop-opacity="0.1"/>
</linearGradient>
<clipPath id="clip0">
<rect width="855.842" height="653" fill="white"/>
</clipPath>
</defs>
</svg>
