<svg width="17" height="17" viewBox="0 0 17 17" fill="none" xmlns="http://www.w3.org/2000/svg">
<circle cx="8.5" cy="8.5" r="8" stroke="#797979"/>
<mask id="path-2-outside-1" maskUnits="userSpaceOnUse" x="1.64426" y="1.60776" width="14.1421" height="14.1421" fill="black">
<rect fill="white" x="1.64426" y="1.60776" width="14.1421" height="14.1421"/>
<path fill-rule="evenodd" clip-rule="evenodd" d="M8.30867 8.71504L5.6655 11.3582L6.07215 11.7649L8.71532 9.12169L11.3585 11.7649L11.7651 11.3582L9.12196 8.71504L11.7652 6.07182L11.3585 5.66518L8.71532 8.3084L6.07211 5.66519L5.66547 6.07184L8.30867 8.71504Z"/>
</mask>
<path fill-rule="evenodd" clip-rule="evenodd" d="M8.30867 8.71504L5.6655 11.3582L6.07215 11.7649L8.71532 9.12169L11.3585 11.7649L11.7651 11.3582L9.12196 8.71504L11.7652 6.07182L11.3585 5.66518L8.71532 8.3084L6.07211 5.66519L5.66547 6.07184L8.30867 8.71504Z" fill="#797979"/>
<path d="M5.6655 11.3582L5.3494 11.0421C5.26556 11.1259 5.21847 11.2397 5.21847 11.3582C5.21847 11.4768 5.26556 11.5905 5.3494 11.6743L5.6655 11.3582ZM8.30867 8.71504L8.62478 9.03114C8.70861 8.94731 8.75571 8.8336 8.75571 8.71504C8.75571 8.59648 8.70861 8.48278 8.62478 8.39894L8.30867 8.71504ZM6.07215 11.7649L5.75605 12.081C5.93062 12.2555 6.21367 12.2555 6.38825 12.081L6.07215 11.7649ZM8.71532 9.12169L9.03142 8.80559C8.85684 8.63101 8.5738 8.63101 8.39922 8.80559L8.71532 9.12169ZM11.3585 11.7649L11.0424 12.081C11.1262 12.1648 11.2399 12.2119 11.3585 12.2119C11.4771 12.2119 11.5908 12.1648 11.6746 12.081L11.3585 11.7649ZM11.7651 11.3582L12.0813 11.6743C12.2558 11.4998 12.2558 11.2167 12.0813 11.0421L11.7651 11.3582ZM9.12196 8.71504L8.80586 8.39894C8.72203 8.48278 8.67493 8.59648 8.67493 8.71504C8.67493 8.8336 8.72203 8.94731 8.80586 9.03114L9.12196 8.71504ZM11.7652 6.07182L12.0813 6.38793C12.1651 6.30409 12.2122 6.19039 12.2122 6.07182C12.2122 5.95326 12.1651 5.83956 12.0813 5.75572L11.7652 6.07182ZM11.3585 5.66518L11.6746 5.34908C11.5001 5.1745 11.217 5.1745 11.0424 5.34908L11.3585 5.66518ZM8.71532 8.3084L8.39922 8.6245C8.48305 8.70833 8.59676 8.75543 8.71532 8.75543C8.83388 8.75543 8.94759 8.70833 9.03142 8.6245L8.71532 8.3084ZM6.07211 5.66519L6.38822 5.34909C6.30438 5.26525 6.19067 5.21816 6.07211 5.21816C5.95355 5.21816 5.83985 5.26525 5.75601 5.34909L6.07211 5.66519ZM5.66547 6.07184L5.34937 5.75573C5.17479 5.93031 5.17479 6.21336 5.34937 6.38794L5.66547 6.07184ZM5.9816 11.6743L8.62478 9.03114L7.99257 8.39894L5.3494 11.0421L5.9816 11.6743ZM6.38825 11.4488L5.9816 11.0421L5.3494 11.6743L5.75605 12.081L6.38825 11.4488ZM8.39922 8.80559L5.75605 11.4488L6.38825 12.081L9.03142 9.43779L8.39922 8.80559ZM11.6746 11.4488L9.03142 8.80559L8.39922 9.43779L11.0424 12.081L11.6746 11.4488ZM11.449 11.0421L11.0424 11.4488L11.6746 12.081L12.0813 11.6743L11.449 11.0421ZM8.80586 9.03114L11.449 11.6743L12.0813 11.0421L9.43807 8.39894L8.80586 9.03114ZM11.4491 5.75572L8.80586 8.39894L9.43807 9.03114L12.0813 6.38793L11.4491 5.75572ZM11.0424 5.98128L11.4491 6.38793L12.0813 5.75572L11.6746 5.34908L11.0424 5.98128ZM9.03142 8.6245L11.6746 5.98128L11.0424 5.34908L8.39922 7.9923L9.03142 8.6245ZM5.75601 5.98129L8.39922 8.6245L9.03142 7.9923L6.38822 5.34909L5.75601 5.98129ZM5.98157 6.38794L6.38822 5.98129L5.75601 5.34909L5.34937 5.75573L5.98157 6.38794ZM8.62478 8.39894L5.98157 5.75573L5.34937 6.38794L7.99257 9.03114L8.62478 8.39894Z" fill="#797979" mask="url(#path-2-outside-1)"/>
</svg>
