<svg width="233" height="205" viewBox="0 0 233 205" fill="none" xmlns="http://www.w3.org/2000/svg">
<g clip-path="url(#clip0)">
<path opacity="0.1" d="M104.164 79.3159C95.0768 76.3894 85.4687 73.936 75.6493 74.1889C61.2133 74.5619 47.3333 81.256 40.4876 91.1495C34.7012 99.5335 33.9288 109.387 31.4029 118.71C28.2908 130.195 22.3835 141.095 16.0788 151.755C12.6924 157.48 9.1199 163.326 8.53119 169.617C7.72359 178.351 13.0421 187.083 21.4275 192.936C29.8129 198.789 40.9707 201.908 52.1814 202.637C58.1465 203.022 64.3808 202.724 69.6918 200.586C75.3097 198.333 79.4181 194.21 85.0586 191.982C90.2866 189.919 96.38 189.654 102.244 189.957C109.839 190.339 117.361 191.622 124.651 193.777C132.825 196.21 140.42 199.713 148.577 202.181C156.733 204.65 165.85 206.046 174.208 204.061C182.055 202.199 188.279 197.607 193.892 192.956C202.937 185.479 211.348 177.274 219.038 168.423C224.108 162.567 228.83 156.384 231.094 149.542C235.419 136.459 229.625 121.646 216.661 112.636C205.921 105.169 191.472 101.872 177.323 99.8689C164.419 98.0239 149.49 97.8411 137.63 93.1422C126.319 88.6486 116.029 83.1361 104.164 79.3159Z" fill="#446C68"/>
<path opacity="0.1" d="M219.999 123.899C223.211 123.899 225.814 123.544 225.814 123.106C225.814 122.667 223.211 122.312 219.999 122.312C216.788 122.312 214.185 122.667 214.185 123.106C214.185 123.544 216.788 123.899 219.999 123.899Z" fill="#446C68"/>
<path opacity="0.1" d="M197.727 126.147C200.938 126.147 203.541 125.792 203.541 125.354C203.541 124.915 200.938 124.56 197.727 124.56C194.515 124.56 191.912 124.915 191.912 125.354C191.912 125.792 194.515 126.147 197.727 126.147Z" fill="#446C68"/>
<path opacity="0.1" d="M171.491 123.106C174.702 123.106 177.305 122.75 177.305 122.312C177.305 121.874 174.702 121.518 171.491 121.518C168.28 121.518 165.677 121.874 165.677 122.312C165.677 122.75 168.28 123.106 171.491 123.106Z" fill="#446C68"/>
<path opacity="0.1" d="M206.64 132.318C208.923 132.318 210.774 132.065 210.774 131.752C210.774 131.44 208.923 131.187 206.64 131.187C204.357 131.187 202.507 131.44 202.507 131.752C202.507 132.065 204.357 132.318 206.64 132.318Z" fill="#446C68"/>
<path opacity="0.1" d="M183.524 131.752C185.807 131.752 187.658 131.499 187.658 131.187C187.658 130.874 185.807 130.621 183.524 130.621C181.242 130.621 179.391 130.874 179.391 131.187C179.391 131.499 181.242 131.752 183.524 131.752Z" fill="#446C68"/>
<path d="M197.601 125.174C197.601 125.174 205.757 98.5722 196.325 87.9176C189.281 79.9467 181.26 80.908 177.675 81.8869C176.747 82.1326 175.884 82.5763 175.145 83.1871C174.407 83.7979 173.811 84.5612 173.398 85.4242C172.14 88.1154 172.372 92.4838 181.223 97.5833C196.044 106.122 196.967 117.836 196.967 117.836L197.601 125.174Z" fill="#446C68"/>
<path d="M178.951 85.6595C178.951 85.6595 202.992 93.1398 197.601 125.174" stroke="#565987" stroke-miterlimit="10"/>
<path d="M192.989 88.3406C192.989 88.3406 189.678 90.5611 190.725 93.8957" stroke="#565987" stroke-miterlimit="10"/>
<path d="M181.364 90.3158C181.364 90.3158 183.376 88.2681 185.849 89.3971" stroke="#565987" stroke-miterlimit="10"/>
<path d="M190.866 100.617C190.866 100.617 194.418 98.825 195.336 101.071" stroke="#565987" stroke-miterlimit="10"/>
<path d="M199.659 104.358C199.659 104.358 196.989 104.147 196.942 105.416" stroke="#565987" stroke-miterlimit="10"/>
<path d="M197.93 125.386C197.93 125.386 188.37 106.052 185.756 106.475C184.498 106.676 183.935 107.897 183.675 109.122C183.353 110.706 183.535 112.351 184.196 113.828C185.552 116.922 189.193 122.798 197.93 125.386Z" fill="#446C68"/>
<path d="M185.827 110.146C185.827 110.146 195.852 124.61 197.79 125.246" stroke="#565987" stroke-miterlimit="10"/>
<path d="M184.906 112.403H187.245" stroke="#565987" stroke-miterlimit="10"/>
<path d="M187.708 117.696L191.376 117.851" stroke="#565987" stroke-miterlimit="10"/>
<path d="M189.94 113.463L189.542 115.363" stroke="#565987" stroke-miterlimit="10"/>
<path d="M193.839 119.248L193.769 120.975" stroke="#565987" stroke-miterlimit="10"/>
<path d="M197.649 125.386C197.649 125.386 207.209 106.052 209.823 106.475C211.081 106.676 211.644 107.897 211.904 109.122C212.226 110.706 212.044 112.351 211.383 113.828C210.027 116.922 206.386 122.798 197.649 125.386Z" fill="#446C68"/>
<path d="M209.752 110.146C209.752 110.146 199.727 124.61 197.79 125.246" stroke="#565987" stroke-miterlimit="10"/>
<path d="M210.673 112.403H208.333" stroke="#565987" stroke-miterlimit="10"/>
<path d="M207.87 117.696L204.202 117.851" stroke="#565987" stroke-miterlimit="10"/>
<path d="M205.639 113.463L206.036 115.363" stroke="#565987" stroke-miterlimit="10"/>
<path d="M201.737 119.248L201.81 120.975" stroke="#565987" stroke-miterlimit="10"/>
<path d="M181.248 129.902C180.988 129.691 180.799 129.406 180.704 129.086C180.662 128.925 180.677 128.754 180.746 128.603C180.815 128.451 180.935 128.327 181.084 128.253C181.434 128.12 181.806 128.36 182.091 128.606C182.375 128.851 182.697 129.124 183.067 129.074C182.877 128.902 182.735 128.684 182.655 128.442C182.574 128.199 182.559 127.94 182.609 127.689C182.624 127.586 182.668 127.488 182.735 127.407C182.928 127.201 183.281 127.291 183.512 127.452C184.249 127.97 184.455 128.966 184.46 129.862C184.496 129.53 184.496 129.194 184.46 128.861C184.446 128.695 184.473 128.528 184.538 128.375C184.603 128.222 184.706 128.087 184.835 127.982C185.01 127.887 185.207 127.84 185.406 127.847C185.571 127.824 185.739 127.835 185.899 127.88C186.059 127.926 186.207 128.004 186.335 128.11C186.614 128.41 186.541 128.914 186.297 129.244C186.023 129.547 185.698 129.801 185.339 129.995C185.063 130.157 184.828 130.38 184.652 130.646C184.632 130.683 184.615 130.721 184.601 130.761H182.523C182.061 130.533 181.632 130.244 181.248 129.902Z" fill="#446C68"/>
<path d="M217.645 122.114C217.384 121.904 217.195 121.619 217.101 121.298C217.059 121.137 217.074 120.967 217.143 120.816C217.212 120.664 217.332 120.541 217.481 120.467C217.831 120.334 218.203 120.575 218.487 120.818C218.772 121.06 219.096 121.338 219.466 121.286C219.275 121.114 219.133 120.897 219.052 120.654C218.971 120.411 218.955 120.152 219.006 119.901C219.021 119.798 219.065 119.7 219.134 119.621C219.328 119.416 219.677 119.503 219.909 119.666C220.646 120.182 220.852 121.168 220.857 122.077C220.894 121.744 220.894 121.408 220.857 121.075C220.843 120.91 220.87 120.743 220.935 120.59C221 120.436 221.102 120.302 221.232 120.197C221.408 120.104 221.605 120.058 221.803 120.064C221.967 120.038 222.134 120.047 222.294 120.091C222.454 120.134 222.603 120.21 222.732 120.314C223.013 120.612 222.94 121.115 222.694 121.446C222.421 121.754 222.097 122.014 221.735 122.212C221.46 122.374 221.225 122.597 221.049 122.863C221.028 122.899 221.011 122.938 220.998 122.978H218.92C218.458 122.748 218.029 122.457 217.645 122.114Z" fill="#446C68"/>
<path d="M205.513 129.902C205.254 129.691 205.064 129.406 204.97 129.086C204.928 128.925 204.942 128.754 205.012 128.603C205.081 128.451 205.2 128.327 205.349 128.253C205.699 128.12 206.072 128.36 206.356 128.606C206.64 128.851 206.962 129.124 207.332 129.074C207.142 128.902 206.999 128.684 206.919 128.442C206.838 128.199 206.822 127.94 206.872 127.689C206.889 127.586 206.933 127.488 207 127.407C207.194 127.201 207.546 127.291 207.777 127.452C208.514 127.97 208.721 128.966 208.726 129.862C208.766 129.53 208.77 129.194 208.738 128.861C208.724 128.695 208.751 128.528 208.816 128.375C208.881 128.222 208.983 128.087 209.113 127.982C209.288 127.887 209.485 127.84 209.684 127.847C209.849 127.824 210.017 127.835 210.177 127.88C210.336 127.926 210.485 128.004 210.613 128.11C210.892 128.41 210.819 128.914 210.575 129.244C210.3 129.547 209.976 129.801 209.616 129.995C209.341 130.157 209.106 130.38 208.93 130.646C208.91 130.683 208.893 130.721 208.879 130.761H206.801C206.335 130.534 205.901 130.245 205.513 129.902Z" fill="#446C68"/>
<path d="M171.114 114.161C171.114 114.161 170.334 115.175 171.473 116.704C172.613 118.234 173.549 119.528 173.172 120.482C173.172 120.482 171.453 117.641 170.055 117.601C168.656 117.561 169.574 115.871 171.114 114.161Z" fill="#446C68"/>
<path opacity="0.1" d="M171.114 114.161C171.045 114.258 170.99 114.366 170.953 114.479C169.589 116.073 168.862 117.563 170.173 117.601C171.395 117.636 172.862 119.809 173.212 120.354C173.212 120.397 173.187 120.439 173.172 120.479C173.172 120.479 171.453 117.638 170.055 117.598C168.656 117.558 169.574 115.871 171.114 114.161Z" fill="black"/>
<path d="M169.665 115.453C169.665 115.811 169.705 116.099 169.755 116.099C169.806 116.099 169.843 115.811 169.843 115.453C169.843 115.095 169.793 115.265 169.745 115.265C169.698 115.265 169.665 115.097 169.665 115.453Z" fill="#FFD037"/>
<path d="M169.166 115.878C169.481 116.051 169.758 116.154 169.78 116.111C169.803 116.069 169.569 115.893 169.254 115.723C168.94 115.553 169.063 115.676 169.038 115.723C169.013 115.771 168.852 115.708 169.166 115.878Z" fill="#FFD037"/>
<path d="M175.227 114.161C175.227 114.161 176.007 115.175 174.867 116.704C173.728 118.234 172.792 119.528 173.172 120.482C173.172 120.482 174.887 117.641 176.286 117.601C177.685 117.561 176.767 115.871 175.227 114.161Z" fill="#446C68"/>
<path opacity="0.1" d="M175.227 114.161C175.296 114.258 175.35 114.366 175.388 114.479C176.752 116.073 177.479 117.563 176.168 117.601C174.945 117.636 173.479 119.809 173.129 120.354C173.141 120.397 173.155 120.439 173.172 120.479C173.172 120.479 174.887 117.638 176.286 117.598C177.685 117.558 176.767 115.871 175.227 114.161Z" fill="black"/>
<path d="M176.676 115.453C176.676 115.811 176.636 116.099 176.586 116.099C176.536 116.099 176.498 115.811 176.498 115.453C176.498 115.095 176.548 115.265 176.596 115.265C176.644 115.265 176.676 115.097 176.676 115.453Z" fill="#FFD037"/>
<path d="M177.174 115.878C176.86 116.051 176.583 116.154 176.561 116.111C176.538 116.069 176.772 115.893 177.086 115.723C177.401 115.553 177.278 115.676 177.303 115.723C177.328 115.771 177.489 115.708 177.174 115.878Z" fill="#FFD037"/>
<path d="M176.427 120.349C176.427 120.349 174.251 120.284 173.594 119.819C172.938 119.353 170.243 118.797 170.072 119.543C169.901 120.289 166.802 123.253 169.257 123.273C171.712 123.293 174.973 122.893 175.627 122.495C176.281 122.097 176.427 120.349 176.427 120.349Z" fill="#A8A8A8"/>
<path opacity="0.2" d="M169.222 123.013C171.68 123.033 174.935 122.632 175.592 122.234C176.095 121.934 176.289 120.847 176.347 120.347H176.417C176.417 120.347 176.281 122.099 175.625 122.492C174.968 122.885 171.715 123.291 169.254 123.271C168.545 123.271 168.301 123.02 168.313 122.642C168.422 122.87 168.693 123.01 169.222 123.013Z" fill="black"/>
<path opacity="0.1" d="M32.4521 20.5656C35.4575 20.5656 37.8939 18.1413 37.8939 15.1507C37.8939 12.1602 35.4575 9.73584 32.4521 9.73584C29.4466 9.73584 27.0103 12.1602 27.0103 15.1507C27.0103 18.1413 29.4466 20.5656 32.4521 20.5656Z" fill="#446C68"/>
<path opacity="0.1" d="M126.573 12.0189C129.578 12.0189 132.015 9.59455 132.015 6.60398C132.015 3.61342 129.578 1.18909 126.573 1.18909C123.567 1.18909 121.131 3.61342 121.131 6.60398C121.131 9.59455 123.567 12.0189 126.573 12.0189Z" fill="#446C68"/>
<path opacity="0.1" d="M212.905 33.4106C215.91 33.4106 218.346 30.9863 218.346 27.9957C218.346 25.0051 215.91 22.5808 212.905 22.5808C209.899 22.5808 207.463 25.0051 207.463 27.9957C207.463 30.9863 209.899 33.4106 212.905 33.4106Z" fill="#446C68"/>
<path opacity="0.1" d="M9.12 73.8759C14.1568 73.8759 18.24 69.8129 18.24 64.801C18.24 59.789 14.1568 55.7261 9.12 55.7261C4.08316 55.7261 0 59.789 0 64.801C0 69.8129 4.08316 73.8759 9.12 73.8759Z" fill="#446C68"/>
<path opacity="0.1" d="M17.8627 118.687C22.8995 118.687 26.9827 114.624 26.9827 109.612C26.9827 104.6 22.8995 100.537 17.8627 100.537C12.8258 100.537 8.74268 104.6 8.74268 109.612C8.74268 114.624 12.8258 118.687 17.8627 118.687Z" fill="#446C68"/>
<path opacity="0.1" d="M188.67 79.1606C193.706 79.1606 197.79 75.0977 197.79 70.0858C197.79 65.0738 193.706 61.0109 188.67 61.0109C183.633 61.0109 179.55 65.0738 179.55 70.0858C179.55 75.0977 183.633 79.1606 188.67 79.1606Z" fill="#446C68"/>
<path d="M113.254 87.079C112.932 87.109 112.605 87.094 112.285 87.1441C111.749 87.2503 111.237 87.4549 110.776 87.7474C108.486 89.0442 106.325 90.8266 105.377 93.2699C105.299 93.4201 105.274 93.5921 105.306 93.7581C105.363 93.8949 105.455 94.0142 105.573 94.1036L106.464 94.9097C106.576 95.026 106.71 95.1195 106.859 95.1851C107.099 95.2476 107.352 95.2397 107.588 95.1625C110.036 94.6043 112.638 93.9609 114.356 92.1384C115.171 91.2747 115.923 90.0856 117.123 90.053C117.626 90.053 118.097 90.2458 118.593 90.3034C119.088 90.361 119.684 90.1507 119.803 89.67C119.841 89.431 119.813 89.186 119.722 88.9616L118.983 86.5107C118.781 85.8398 116.751 85.8047 116.074 85.9249C115.043 86.1026 114.348 86.9788 113.254 87.079Z" fill="#65617D"/>
<path d="M121.969 100.885C121.934 101.724 122.002 102.573 121.863 103.404C121.741 104.059 121.531 104.695 121.237 105.294C120.784 106.257 120.209 107.158 119.526 107.975C118.889 108.726 118.127 109.432 117.184 109.727C116.24 110.023 115.08 109.81 114.492 109.019C114.011 108.375 113.989 107.517 114.024 106.713C114.109 104.738 114.421 102.735 115.312 100.968C115.694 100.217 116.18 99.5008 116.57 98.7423C117.385 97.1677 117.85 95.3001 119.257 94.2136C120.139 94.6193 121.083 94.8773 122.049 94.9772C122.424 95.0172 123.496 95.0423 123.622 95.5204C123.707 95.8433 123.003 96.7471 122.867 97.065C122.33 98.2713 122.025 99.5671 121.969 100.885Z" fill="#65617D"/>
<path d="M111.996 64.781C112.298 65.547 112.68 66.2981 112.751 67.1142C112.801 67.6148 112.751 68.1155 112.751 68.6162C112.793 69.3022 112.908 69.9819 113.093 70.644L114.494 76.3518C114.703 77.2054 114.912 78.0816 114.804 78.9528C114.731 79.5336 114.519 80.0969 114.522 80.6802C114.549 81.1225 114.62 81.5611 114.733 81.9895C114.999 83.313 114.926 84.6816 114.522 85.9699C114.481 86.067 114.466 86.1732 114.479 86.2778C114.514 86.4406 114.673 86.5407 114.816 86.6183C116.325 87.4397 117.97 87.9849 119.672 88.228C121.208 84.591 122.282 80.7771 122.867 76.875C123.224 74.5118 123.398 72.1185 123.856 69.7728C123.866 69.6373 123.924 69.5097 124.019 69.4123C124.19 69.2696 124.45 69.3597 124.651 69.4549C127.222 70.6851 129.695 72.1078 132.05 73.7107C132.878 72.6438 133.46 71.4089 133.755 70.0933C134.05 68.7778 134.051 67.4138 133.758 66.0978C133.462 64.9632 133.041 63.8649 132.5 62.8233C131.925 61.5563 131.207 60.358 130.362 59.2509C128.495 56.9227 125.758 55.4357 122.94 54.4268C121.227 53.811 119.463 53.3554 117.702 52.8897C116.716 52.6269 115.063 51.7707 114.104 52.4366C113.098 53.1301 112.429 54.8499 112.016 55.9414C111.507 57.2952 111.23 58.7245 111.196 60.1697C111.155 61.7442 111.426 63.3114 111.996 64.781Z" fill="#3F3D56"/>
<path d="M132.221 71.6629C131.695 72.2337 132.138 73.145 132.037 73.916C131.972 74.2642 131.847 74.5986 131.668 74.9049L129.26 79.6088C128.857 80.3147 128.556 81.073 128.364 81.8619C128.035 83.5592 128.711 85.4668 127.846 86.9663C127.567 87.4495 127.134 87.8651 127.018 88.4108C126.933 88.8088 127.018 89.2244 126.976 89.6275C126.918 90.1006 126.664 90.5262 126.523 90.9818C126.413 91.4196 126.335 91.8647 126.289 92.3136C125.983 94.228 124.976 95.9619 123.461 97.1803C122.593 97.9124 121.478 98.2899 120.341 98.2367C119.219 98.1416 118.105 97.383 117.876 96.2865C117.798 95.9135 117.813 95.498 117.579 95.1951C117.247 94.762 116.547 94.7444 116.228 94.3013L117.466 92.2736C117.851 91.6452 118.243 90.9893 118.306 90.2558C118.381 89.3571 117.946 88.4609 118.102 87.5721C118.235 86.8086 118.786 86.1727 118.952 85.4167C119.159 84.4779 118.746 83.5291 118.522 82.5929C117.974 80.2872 118.588 77.8839 119.199 75.5833C120.012 72.5391 120.844 69.4474 122.49 66.7562C125.773 68.5161 128.792 70.2059 132.221 71.6629Z" fill="#3F3D56"/>
<path d="M132.251 23.9777C132.447 24.5084 132.342 25.0967 132.304 25.66C132.216 26.9117 132.483 28.1634 132.422 29.4326C132.362 30.7019 131.969 31.9135 131.698 33.1477C130.925 36.67 131.112 40.34 130.412 43.8774C129.549 48.2584 127.343 52.3389 126.908 56.785C126.769 58.1969 126.787 59.709 126.009 60.9006C121.39 58.8772 117.023 56.3249 112.997 53.2952C113.883 46.7588 114.758 40.1898 114.64 33.5958C114.583 32.8009 114.639 32.0019 114.806 31.2226C115.016 30.568 115.318 29.946 115.702 29.3751C116.676 27.8004 117.747 26.2883 118.817 24.7788C119.501 23.8125 120.24 22.7986 121.332 22.3455C122.424 21.8923 123.717 22.0951 124.907 22.3104C126.34 22.5708 127.77 22.8311 129.2 23.0915C130.093 23.2542 131.869 22.9438 132.251 23.9777Z" fill="#446C68"/>
<path d="M97.8017 49.0245C97.2148 48.4402 96.5747 47.9114 95.8896 47.4448C96.7828 46.3633 96.6067 44.7987 96.8256 43.4143C97.0049 42.5151 97.2772 41.6367 97.6382 40.7932C97.7287 40.5554 97.857 40.2925 98.1061 40.23C98.259 40.2111 98.4142 40.2354 98.5539 40.3C99.3087 40.5654 100.884 40.5504 101.47 41.0361C102.177 41.6269 101.53 42.8635 101.264 43.6021C101.075 44.0977 98.1766 49.4 97.8017 49.0245Z" fill="#BE6F72"/>
<path d="M99.9929 95.7758C100.372 96.3862 100.619 97.0681 100.72 97.7786C100.78 98.4895 100.519 99.2681 99.9099 99.6436C99.3011 100.019 98.4281 99.894 97.7035 99.6686C96.1667 99.1713 94.7527 98.3567 93.5539 97.2783C92.3552 96.1998 91.3988 94.8817 90.7472 93.4101C90.5182 92.8844 90.3195 92.3261 89.9144 91.9206C89.6135 91.6574 89.2795 91.4344 88.9206 91.2572C87.9319 90.7014 86.9784 89.9704 86.5205 88.934C86.0626 87.8976 86.2689 86.5132 87.2174 85.8973C87.513 85.7274 87.8397 85.6177 88.1783 85.5748C88.517 85.5318 88.8608 85.5563 89.1898 85.647C89.8456 85.8323 90.4735 86.1043 91.0566 86.4556C92.0328 86.9838 93.2253 87.4394 94.0756 88.1429C94.8304 88.7612 95.5072 89.5974 96.1512 90.3259C96.8888 91.164 97.58 92.0415 98.2218 92.9545C98.4281 93.2223 100.167 95.533 99.9929 95.7758Z" fill="#65617D"/>
<path d="M81.5515 90.5211C81.466 91.7808 81.2424 93.0274 80.8848 94.2387C80.681 94.9196 80.4118 95.6281 79.8458 96.0612C79.3669 96.3701 78.8243 96.5677 78.2582 96.6395C78.0608 96.6928 77.8545 96.7055 77.6519 96.677C77.3047 96.6044 77.0582 96.3065 76.8443 96.0237C76.004 94.9171 75.1864 93.748 74.8316 92.4062C74.3285 90.4611 74.8316 88.3757 75.7046 86.5582C76.0184 85.8255 76.476 85.1625 77.0506 84.6081C77.7606 84.0275 78.6135 83.6464 79.5212 83.504C80.4496 83.3188 81.5892 82.9233 81.6572 84.0473C81.7565 86.2053 81.7212 88.3674 81.5515 90.5211Z" fill="#65617D"/>
<path d="M95.4718 43.4669C97.2077 44.3606 99.1349 45.4972 99.4971 47.4073C99.7211 48.5739 99.2908 49.768 99.3613 50.9546C99.4242 51.9986 99.8645 53.0074 99.8091 54.0489C99.7503 54.541 99.6664 55.0298 99.5575 55.5134C99.4091 56.4371 99.4971 57.3784 99.4594 58.3122C99.3764 60.4151 98.6694 62.4378 98.3273 64.5132C98.0851 65.995 98.0285 67.5011 98.1587 68.9968C98.2417 69.9631 98.4103 70.9244 98.4103 71.8957C98.4103 72.5953 98.3522 73.2936 98.2367 73.9836C97.8995 76.1514 97.2202 78.2527 96.224 80.2096C95.0139 82.5803 95.185 85.6395 95.3133 88.2956C95.3693 88.6617 95.3223 89.0361 95.1774 89.3771C94.8604 89.9504 94.0704 90.033 93.4163 89.9779C90.9905 89.7574 88.7409 88.6238 87.1266 86.8086C86.8912 86.5804 86.7314 86.286 86.6688 85.965C86.6134 85.4292 87.0461 84.9886 87.3581 84.5455C88.4198 83.0435 88.1506 81.0082 88.2764 79.1632C88.3682 77.8209 88.6907 76.5042 89.2299 75.2704C89.5419 74.5569 89.9318 73.8534 90.0023 73.0774C90.0677 72.3539 89.8463 71.6379 89.6274 70.9469L88.8727 68.5637C87.7028 64.8611 86.5254 61.136 84.7542 57.6788C83.5922 58.4311 82.7604 59.5943 82.427 60.9333C81.7679 63.2915 82.7063 65.9251 81.8081 68.1932C81.6594 68.5077 81.5357 68.8333 81.4383 69.167C81.3854 69.4551 81.3651 69.7481 81.3779 70.0407C81.4012 72.4809 81.5507 74.9183 81.8257 77.3432C81.8393 77.7105 81.9429 78.0688 82.1276 78.3871C82.2761 78.5999 82.4924 78.7576 82.6509 78.9604C83.0912 79.5287 83.0082 80.3248 82.9025 81.0332L82.3993 84.3828C82.3904 84.5526 82.3337 84.7166 82.2358 84.8559C82.1172 84.9703 81.9692 85.05 81.8081 85.0863C80.2094 85.5802 78.5242 85.7338 76.8619 85.5369C76.3713 85.4793 75.926 85.1513 75.5159 84.876C75.4732 84.3753 76.0996 84.0423 76.1223 83.5442C76.098 83.249 75.9601 82.9746 75.7373 82.7781C74.8014 81.7267 73.6844 80.6101 73.6945 79.2057C73.6945 78.8377 73.7825 78.4697 73.7699 78.1017C73.7372 77.1579 73.0831 76.3493 72.8542 75.4406C72.5724 74.3166 72.9472 73.15 73.0907 72.0009C73.2869 70.4538 73.0554 68.8866 72.8391 67.342L71.9962 61.6743C71.8983 60.7946 71.7232 59.9251 71.473 59.0757C71.1557 58.2395 70.7834 57.4249 70.3584 56.6374C69.5534 55.0102 68.8917 53.3179 68.2325 51.6306C68.0231 51.1721 67.8913 50.6823 67.8426 50.1811C67.8048 49.3224 68.2501 48.5113 68.8036 47.8504C69.8403 46.6222 71.2552 45.7687 72.829 45.4221C73.092 45.3491 73.3685 45.3379 73.6366 45.3895C73.8621 45.464 74.0737 45.5748 74.263 45.7175C76.2079 46.9832 78.4208 47.7836 80.7286 48.0559C83.0363 48.3283 85.376 48.0651 87.5644 47.2871C87.816 47.4774 88.2814 47.3948 88.5707 47.2596C89.3783 46.8916 90.0375 46.2783 90.747 45.7575C92.0678 44.7612 93.849 43.8149 95.4718 43.4669Z" fill="#3F3D56"/>
<path d="M43.3257 107.757C43.4592 108.141 43.6603 108.498 43.9194 108.811C44.8301 109.993 46.1006 110.936 46.6868 112.316C46.8101 112.611 46.9007 112.922 47.0139 113.222C47.3582 114.129 47.9195 114.938 48.6492 115.58C49.2058 116.04 49.8106 116.439 50.4531 116.769C51.5651 117.373 52.7677 117.918 54.0306 117.886C54.2846 117.881 54.5374 117.85 54.7854 117.796C55.1785 117.715 55.5574 117.576 55.91 117.385C56.7226 116.94 57.4195 116.068 57.2585 115.16C57.226 114.986 57.171 114.818 57.095 114.659C56.9615 114.406 56.8075 114.164 56.6346 113.936C56.2094 113.35 55.7716 112.749 55.1502 112.373C54.4508 111.948 53.5702 111.843 52.9413 111.317C52.6931 111.093 52.4787 110.835 52.3048 110.551C51.7347 109.679 51.3099 108.721 51.0468 107.715C50.8556 106.964 50.7273 106.14 50.1763 105.589C49.6254 105.038 48.8681 104.913 48.1335 104.788C47.8852 104.737 47.6322 104.713 47.3787 104.715C47.0189 104.728 46.6466 104.831 46.3095 104.663C45.9723 104.495 45.8591 104.257 45.4516 104.29C45.1271 104.333 44.8213 104.466 44.5685 104.673C43.6125 105.376 42.9785 106.628 43.3257 107.757Z" fill="#3F3D56"/>
<path d="M52.2643 108.896C52.4279 109.745 52.6795 110.649 53.3386 111.202C53.7588 111.562 54.3449 111.788 54.5538 112.296C54.7626 112.804 54.4934 113.442 54.1462 113.908C53.7029 114.497 53.1535 114.999 52.526 115.388C51.9926 115.716 51.3561 115.966 50.7447 115.821C50.2416 115.703 49.8441 115.343 49.4692 114.995C48.6088 114.201 47.7282 113.377 47.2452 112.313C46.742 111.192 46.7169 109.893 46.1684 108.789C45.8489 108.145 45.3558 107.582 45.1621 106.891C45.0752 106.641 45.0752 106.37 45.1621 106.12C45.2559 105.941 45.3978 105.792 45.572 105.689C45.7461 105.586 45.9457 105.533 46.1483 105.537C46.5534 105.55 46.9528 105.635 47.3282 105.787C48.464 106.19 49.6266 106.514 50.8076 106.756C51.2781 106.843 51.5624 106.841 51.814 107.294C52.0464 107.802 52.1983 108.342 52.2643 108.896Z" fill="#FBBEBE"/>
<path d="M55.183 116.071C54.9965 116.355 54.8643 116.671 54.793 117.002C54.7337 117.26 54.7243 117.527 54.7654 117.788C55.1585 117.707 55.5374 117.569 55.8899 117.378C56.7026 116.932 57.3995 116.061 57.2384 115.152C57.2059 114.979 57.151 114.811 57.0749 114.652C56.9548 114.625 56.8298 114.63 56.7124 114.666C56.5949 114.703 56.4891 114.769 56.4057 114.859C55.9372 115.198 55.5247 115.606 55.183 116.071Z" fill="#FBBEBE"/>
<path d="M46.166 97.05C46.0566 97.2844 46.024 97.5472 46.0729 97.801C46.1887 98.3017 46.7044 98.5896 47.1699 98.8174L51.5953 100.97C51.9023 101.112 52.2013 101.27 52.4909 101.444C53.2457 101.904 53.8394 102.555 54.4835 103.151C55.1275 103.747 55.8446 104.305 56.6974 104.515C57.5488 104.701 58.4387 104.585 59.2133 104.187C59.6307 103.98 60.0183 103.718 60.3656 103.409C60.6662 103.146 60.9439 102.859 61.1958 102.55C61.4122 102.323 61.5671 102.044 61.6461 101.741C61.7292 101.283 61.5002 100.833 61.2335 100.455C61.08 100.237 60.9119 100.029 60.7304 99.8338C59.0523 97.9888 56.3024 97.0325 53.9375 96.657C52.9966 96.5068 52.1035 96.1563 51.1978 95.8709C50.292 95.5855 49.3335 95.3702 48.3926 95.5029C47.4516 95.6356 46.5258 96.1738 46.166 97.05Z" fill="#3F3D56"/>
<path opacity="0.1" d="M46.166 97.05C46.0566 97.2844 46.024 97.5472 46.0729 97.801C46.1887 98.3017 46.7044 98.5896 47.1699 98.8174L51.5953 100.97C51.9023 101.112 52.2013 101.27 52.4909 101.444C53.2457 101.904 53.8394 102.555 54.4835 103.151C55.1275 103.747 55.8446 104.305 56.6974 104.515C57.5488 104.701 58.4387 104.585 59.2133 104.187C59.6307 103.98 60.0183 103.718 60.3656 103.409C60.6662 103.146 60.9439 102.859 61.1958 102.55C61.4122 102.323 61.5671 102.044 61.6461 101.741C61.7292 101.283 61.5002 100.833 61.2335 100.455C61.08 100.237 60.9119 100.029 60.7304 99.8338C59.0523 97.9888 56.3024 97.0325 53.9375 96.657C52.9966 96.5068 52.1035 96.1563 51.1978 95.8709C50.292 95.5855 49.3335 95.3702 48.3926 95.5029C47.4516 95.6356 46.5258 96.1738 46.166 97.05Z" fill="black"/>
<path d="M57.2409 98.4244C57.5811 98.8046 57.8611 99.2343 58.0711 99.6986C58.2601 100.003 58.3274 100.366 58.2598 100.717C58.1609 100.954 58.0023 101.161 57.7994 101.318L57.3591 101.724C57.2261 101.861 57.0715 101.976 56.9012 102.064C56.6604 102.154 56.4032 102.193 56.1465 102.177C55.5552 102.177 54.9187 102.177 54.4382 101.824C53.7815 101.353 53.6633 100.38 53.9627 99.631C54.2621 98.8825 54.8885 98.3167 55.52 97.811C56.0332 97.3979 56.8811 98.0463 57.2409 98.4244Z" fill="#FBBEBE"/>
<path d="M59.9279 101.013C59.8464 101.428 59.8857 101.858 60.0411 102.252C60.1518 102.628 60.26 103.003 60.3681 103.386C60.3681 103.386 60.3681 103.386 60.3681 103.401C60.6687 103.139 60.9465 102.852 61.1984 102.543C61.4147 102.315 61.5697 102.037 61.6487 101.734C61.7317 101.276 61.5028 100.825 61.2361 100.447C61.0825 100.229 60.9144 100.022 60.7329 99.8264C60.6147 99.9791 60.5115 100.129 60.426 100.227C60.2059 100.451 60.0361 100.719 59.9279 101.013Z" fill="#FBBEBE"/>
<path d="M48.3675 82.355C47.8467 84.533 48.0681 86.8111 48.3448 89.0341C48.5562 90.7264 48.7927 92.4788 48.2895 94.1086C48.1033 94.7169 47.8089 95.3352 47.9222 95.9636C48.136 97.1477 49.5701 97.6033 50.7575 97.8261C51.1001 97.9128 51.4561 97.9341 51.8067 97.8887C52.1583 97.7934 52.4847 97.6225 52.7627 97.388C54.4506 96.167 55.7326 94.4712 56.4434 92.5189C56.8937 91.2121 57.0371 89.8227 57.1755 88.4483C57.407 86.1352 57.6409 83.7945 57.3013 81.4963C57.2007 80.8204 57.0497 80.152 56.9868 79.4711C56.9076 78.2868 56.9735 77.0972 57.1831 75.9287C57.6163 73.0341 58.2723 70.1768 59.1454 67.3821C56.7497 67.6986 54.3145 67.2609 52.1815 66.1304C52.5941 66.3507 52.1211 69.863 52.0708 70.3561C51.9182 71.8264 51.6515 73.2827 51.2733 74.7121C50.5714 77.3832 49.004 79.7014 48.3675 82.355Z" fill="#3F3D56"/>
<path opacity="0.1" d="M48.3675 82.355C47.8467 84.533 48.0681 86.8111 48.3448 89.0341C48.5562 90.7264 48.7927 92.4788 48.2895 94.1086C48.1033 94.7169 47.8089 95.3352 47.9222 95.9636C48.136 97.1477 49.5701 97.6033 50.7575 97.8261C51.1001 97.9128 51.4561 97.9341 51.8067 97.8887C52.1583 97.7934 52.4847 97.6225 52.7627 97.388C54.4506 96.167 55.7326 94.4712 56.4434 92.5189C56.8937 91.2121 57.0371 89.8227 57.1755 88.4483C57.407 86.1352 57.6409 83.7945 57.3013 81.4963C57.2007 80.8204 57.0497 80.152 56.9868 79.4711C56.9076 78.2868 56.9735 77.0972 57.1831 75.9287C57.6163 73.0341 58.2723 70.1768 59.1454 67.3821C56.7497 67.6986 54.3145 67.2609 52.1815 66.1304C52.5941 66.3507 52.1211 69.863 52.0708 70.3561C51.9182 71.8264 51.6515 73.2827 51.2733 74.7121C50.5714 77.3832 49.004 79.7014 48.3675 82.355Z" fill="black"/>
<path d="M61.4297 69.5926C62.436 72.494 62.2146 75.6634 61.7794 78.7025C61.3442 81.7417 60.7026 84.7808 60.8913 87.8425C60.9643 89.0441 61.1605 90.2783 60.8083 91.4274C60.6125 91.988 60.3534 92.5247 60.0359 93.0271L52.0078 106.841C51.8031 107.199 51.5119 107.502 51.1606 107.72C50.8092 107.939 50.4086 108.067 49.9951 108.093C49.1372 108.153 48.2944 107.872 47.4943 107.559C46.9627 107.384 46.4687 107.112 46.0377 106.756C45.824 106.579 45.6565 106.353 45.5496 106.097C45.4428 105.842 45.3996 105.564 45.4238 105.289C45.7836 102.891 46.3245 100.435 46.7245 98.0289C46.9966 96.3966 47.5899 94.8337 48.4705 93.4301C49.0919 92.4288 49.8567 91.53 50.3926 90.4886C51.9323 87.5045 51.399 83.8646 50.2115 80.7253C49.024 77.586 47.2553 74.672 46.3119 71.4626C46.0322 70.5695 45.8723 69.6436 45.8364 68.7089C45.8248 67.7436 46.0045 66.7855 46.3654 65.8894C46.7263 64.9933 47.2613 64.1769 47.9396 63.4867C48.1376 63.2636 48.3872 63.0918 48.6667 62.986C48.9936 62.9106 49.3341 62.9166 49.658 63.0036C54.1287 63.8673 59.9529 65.3067 61.4297 69.5926Z" fill="#3F3D56"/>
<path d="M133.592 26.2758C133.738 27.3723 133.341 28.4813 132.775 29.4301C130.634 32.985 125.698 34.5571 121.881 32.9024C120.309 32.2189 118.978 31.0924 117.674 29.9809C117.237 29.6054 116.781 29.2123 116.56 28.6816C116.17 27.7428 116.64 26.6238 117.408 25.9529C118.175 25.282 119.169 24.9515 120.158 24.6536C123.421 23.6422 132.815 20.4529 133.592 26.2758Z" fill="#FBBEBE"/>
<path d="M131.683 22.7961C134.654 25.1744 138.979 27.44 142.345 29.2024C143.49 29.8032 144.76 30.4791 145.173 31.7058C145.394 32.3617 145.321 33.0752 145.248 33.7661C145.107 35.0954 144.961 36.4448 144.446 37.6789C143.839 39.1234 142.767 40.315 141.907 41.6268C140.398 43.925 139.512 46.6337 137.648 48.6639C138.906 52.8221 140.282 56.9753 140.73 61.2912C140.754 61.4099 140.741 61.5333 140.692 61.6442C140.64 61.717 140.573 61.7777 140.496 61.8219L137.366 63.8647C137.025 64.0629 136.719 64.3167 136.463 64.6157C135.909 65.3317 135.982 66.3381 135.64 67.1717C135.452 67.5786 135.184 67.9436 134.851 68.2447C134.518 68.5459 134.128 68.777 133.703 68.9241C132.848 69.2174 131.936 69.3133 131.039 69.2045C129.895 69.1329 128.795 68.7472 127.858 68.0905C127.061 67.4896 126.492 66.646 125.944 65.8149C125.538 65.248 125.2 64.6354 124.938 63.9899C124.603 63.0686 124.583 62.0647 124.595 61.0834C124.604 59.216 124.783 57.3533 125.131 55.5183C125.277 54.7898 125.458 54.0713 125.574 53.3378C125.806 51.8608 125.76 50.3537 125.931 48.8692C126.165 47.1995 126.54 45.5523 127.051 43.945C127.331 42.9495 127.549 41.9379 127.705 40.9159C127.999 39.1184 128.586 37.3835 129.172 35.6587L130.178 32.7021C130.392 32.0638 130.608 31.4279 130.862 30.8046C131.335 29.6405 131.944 28.5064 132.105 27.2647C132.284 25.9104 130.815 24.3032 131.31 23.0314C131.35 22.8912 131.569 22.706 131.683 22.7961Z" fill="#3F3D56"/>
<path d="M144.368 31.0074C145.065 31.3204 145.45 32.0664 145.699 32.7874C146.26 34.4123 146.395 36.1529 146.091 37.8443C145.993 38.2695 145.926 38.7012 145.89 39.1361C145.895 39.6401 145.945 40.1427 146.038 40.6381C146.29 42.5532 146.038 44.4984 146.121 46.431C146.207 48.604 146.682 50.8996 145.767 52.8748C145.158 54.1866 144.005 55.1629 142.868 56.0492C138.635 59.3325 133.963 62.015 128.988 64.02C129.846 62.9936 129.861 61.449 129.29 60.2399C128.719 59.0307 127.657 58.122 126.523 57.416C127.967 57.0966 129.366 56.5996 130.686 55.9365C133.323 54.6047 135.582 52.6545 137.814 50.7244C138.143 50.4889 138.399 50.1662 138.554 49.7931C138.78 49.0421 138.156 48.3286 137.723 47.6702C136.413 45.6675 136.717 43.0514 137.265 40.7332C137.877 38.1923 138.775 35.6613 140.413 33.6185C141.434 32.3418 142.768 31.3604 144.368 31.0074Z" fill="#3F3D56"/>
<path d="M128.767 64.0824C128.541 64.4492 128.247 64.7702 127.901 65.0287C127.147 65.5294 126.11 65.3392 125.267 64.9837C124.484 64.6531 123.761 64.1954 123.129 63.6293C122.857 63.3416 122.536 63.1043 122.18 62.9284C121.521 62.678 120.6 62.8658 120.23 62.2625C120.187 62.1991 120.166 62.1235 120.17 62.0472C120.193 61.8294 120.48 61.7693 120.701 61.7568C121.728 61.6892 122.725 61.3831 123.612 60.863C123.329 60.6593 123.086 60.4046 122.897 60.112C122.819 60.0099 122.777 59.885 122.777 59.7565C122.807 59.6169 122.884 59.4917 122.995 59.401C123.804 58.6416 124.822 58.1389 125.919 57.957C127.015 57.7751 128.142 57.9223 129.154 58.3797C129.352 58.4592 129.525 58.5886 129.657 58.7552C129.751 58.9087 129.813 59.0787 129.841 59.2559C130.005 59.9568 130.596 61.0082 130.382 61.7167C130.146 62.5303 129.252 63.394 128.767 64.0824Z" fill="#FBBEBE"/>
<path d="M111.611 60.9257C114.741 57.3283 116.14 52.5943 117.438 48.0156L118.366 44.7611L120.605 36.9229C120.935 35.7663 121.264 34.6098 121.483 33.4307C121.858 31.3954 121.893 29.315 121.871 27.2472C121.839 26.39 121.641 25.5469 121.29 24.7638C121.071 24.2231 120.965 23.6473 120.786 23.089C120.559 22.3107 120.219 21.5695 119.778 20.8885C119.655 20.6861 119.501 20.5037 119.322 20.3478C119.013 20.1384 118.662 19.9968 118.293 19.9322C117.493 19.6956 116.665 19.57 115.83 19.5592C114.995 19.5892 114.134 19.8771 113.596 20.508C113.186 20.9912 112.997 21.617 112.673 22.1603C112.522 22.3827 112.385 22.6143 112.263 22.8537C112.124 23.2174 112.048 23.6015 112.036 23.9903C111.905 25.5674 111.794 27.1462 111.702 28.7267C111.659 29.4452 111.621 30.1687 111.649 30.8897C111.671 31.4504 111.732 32.0087 111.792 32.567L112.388 38.0344C112.527 39.3187 112.429 40.5203 112.544 41.8071C112.826 44.9138 112.154 48.0206 111.465 51.0697C111.136 52.5192 110.796 53.9887 110.091 55.3005C109.47 56.4621 108.539 57.6412 108.786 58.9355C108.871 59.3861 109.1 59.8067 109.135 60.2623C109.118 60.5445 109.146 60.8275 109.218 61.1009C109.321 61.2869 109.481 61.4355 109.674 61.5255C109.867 61.6155 110.083 61.6422 110.293 61.6016C110.791 61.5146 111.251 61.2789 111.611 60.9257Z" fill="#3F3D56"/>
<path d="M111.994 46.5285C112.089 47.247 112.016 47.9755 112.051 48.699C112.13 49.6308 112.299 50.5529 112.555 51.4528C112.806 52.4541 113.128 53.5757 114.016 54.1314C114.239 54.2466 114.452 54.3797 114.653 54.5295C114.752 54.6071 114.824 54.7129 114.861 54.8328C114.898 54.9527 114.897 55.0809 114.859 55.2004L114.167 55.0852C114.246 55.1449 114.311 55.2205 114.358 55.3069C114.405 55.3933 114.433 55.4887 114.441 55.5867C114.448 55.6847 114.435 55.7832 114.402 55.8758C114.368 55.9684 114.316 56.0529 114.247 56.1238C114.179 56.1947 114.096 56.2505 114.005 56.2874C113.913 56.3243 113.815 56.3416 113.716 56.3381C113.617 56.3346 113.52 56.3104 113.432 56.267C113.343 56.2237 113.264 56.1622 113.201 56.0866C113.227 56.3121 113.206 56.5407 113.138 56.7575C113.103 56.8639 113.036 56.957 112.946 57.0242C112.856 57.0913 112.748 57.1293 112.635 57.133C112.505 57.1129 112.381 57.0613 112.275 56.9828L110.469 55.8688C109.928 55.5789 109.478 55.1457 109.168 54.6171L108.378 53.433C108.204 53.2047 108.066 52.9515 107.968 52.6819C107.674 51.6806 108.497 50.5691 108.069 49.6253C107.94 49.3927 107.79 49.173 107.618 48.9694C106.705 47.7177 106.763 46.0153 106.864 44.4632C106.896 43.94 106.992 43.3192 107.468 43.0913C107.845 42.9086 108.298 43.0713 108.647 43.2991C108.997 43.5269 109.307 43.8273 109.704 43.9625C109.956 44.0476 110.232 44.0577 110.484 44.1478C110.836 44.2705 111.163 44.7486 111.4 45.0315C111.734 45.4656 111.94 45.9842 111.994 46.5285Z" fill="#FBBEBE"/>
<path d="M89.947 24.0304C89.7334 24.5185 89.4334 24.9645 89.0614 25.3472C88.8745 25.5384 88.6452 25.6833 88.3917 25.7703C88.1383 25.8573 87.8679 25.8838 87.6022 25.8479C87.0437 25.7377 86.6336 25.2796 86.2638 24.8465C85.2977 23.7175 84.319 22.5734 83.6699 21.2366C82.6787 19.2013 82.5202 16.8781 82.3768 14.6225C82.3416 14.0417 82.3114 13.4259 82.5906 12.9177C82.9454 12.2693 83.6976 11.9639 84.392 11.706L88.2287 10.2791C88.4638 10.1683 88.7241 10.1208 88.9835 10.1414C89.5847 10.2415 89.8061 10.9625 89.9697 11.5458C90.2624 12.594 90.7487 13.5788 91.4037 14.4498C92.2641 15.5914 94.1938 17.1285 93.0919 18.5529C91.761 20.2602 90.9156 22.1028 89.947 24.0304Z" fill="#BE6F72"/>
<path d="M94.8556 17.5164C96.5361 19.0886 97.1047 21.5369 97.0242 23.8275C96.9437 26.1182 96.3047 28.3512 95.9399 30.6143C95.5751 32.8774 95.5021 35.2932 96.4909 37.3735C96.8305 38.087 97.2934 38.7479 97.5299 39.5015C97.7282 40.2462 97.7954 41.0195 97.7287 41.7871C97.7246 42.5962 97.5693 43.3976 97.2708 44.1503C96.7349 45.3319 95.633 46.153 94.5788 46.9041C92.4278 48.4512 90.2339 50.0233 87.708 50.8319C85.9972 51.3802 84.1858 51.5604 82.3945 51.6581C81.1817 51.7542 79.962 51.7198 78.7566 51.5554C76.648 51.2058 74.7103 50.185 73.2342 48.6464C72.9771 48.3984 72.7651 48.1079 72.6078 47.7878C72.4541 47.3712 72.3799 46.9297 72.3889 46.486C72.3285 44.8421 72.3386 43.1982 72.4191 41.5543C72.4653 39.9876 72.6821 38.4305 73.0657 36.9104C73.5462 35.158 74.379 33.5158 75.0104 31.8084C77.2093 25.8728 76.9879 19.1186 80.0422 13.576C80.7013 12.3794 81.8033 11.1202 83.1618 11.3104C83.4232 11.3261 83.6691 11.4386 83.8512 11.6259C84.0073 11.8537 84.0946 12.1213 84.1028 12.3969C84.4273 15.0906 84.8877 17.8544 86.1633 20.2852C86.6664 21.239 87.4212 22.691 88.581 22.9463C89.7408 23.2017 90.4251 22.1002 91.0465 21.3191C92.1385 19.8868 93.4197 18.6077 94.8556 17.5164Z" fill="#E3E8F4"/>
<path d="M102.899 13.4634C103.241 13.6478 103.561 13.8713 103.852 14.1293C104.607 14.8403 104.884 15.9293 104.879 16.9607C104.873 17.9921 104.627 19.0085 104.476 20.0299C104.071 22.7837 104.416 25.6025 104.577 28.3913C104.626 28.8416 104.598 29.2968 104.496 29.7382C104.373 30.1587 104.119 30.5292 103.955 30.9373C103.475 32.1439 103.837 33.5208 103.555 34.7875C103.253 36.1369 102.219 37.3636 102.413 38.7329C102.491 39.2687 102.75 39.7618 102.861 40.2926C102.971 40.8233 102.876 41.4642 102.415 41.7496C101.955 42.0349 101.286 41.8272 100.737 41.9849C100.515 42.0667 100.298 42.1638 100.088 42.2753C99.2405 42.6558 98.2291 42.5256 97.3938 42.1101C96.5752 41.6655 95.8392 41.0846 95.2176 40.3927C94.2591 39.4164 93.3307 38.3474 92.9106 37.0481C92.2967 35.1656 92.8426 33.1153 93.5093 31.2477C94.1761 29.3802 94.9711 27.4926 94.8528 25.5074C94.7874 24.3959 94.4352 23.3269 94.2239 22.2354C93.9623 20.7231 93.8686 19.1868 93.9446 17.6541C93.9773 16.5326 94.0528 15.376 94.5383 14.3622C94.8845 13.6858 95.3957 13.1068 96.0252 12.6782C96.6546 12.2495 97.3822 11.985 98.141 11.9088C99.9021 11.7185 101.412 12.6123 102.899 13.4634Z" fill="#3F3D56"/>
<path opacity="0.1" d="M98.1413 37.6614C98.159 38.4624 98.3033 39.2557 98.569 40.0121C99.0194 38.9907 99.0722 37.8441 99.1326 36.7326C99.3842 32.9049 100.237 29.295 101.145 25.5874C100.484 26.0881 100.111 27.3398 99.7942 28.0908C98.5362 31.1194 97.9715 34.3887 98.1413 37.6614Z" fill="black"/>
<path d="M81.1818 10.9901C79.9692 11.308 78.9175 12.024 77.7426 12.4921C76.5224 12.9928 75.2092 13.2056 73.9286 13.5135C70.9649 14.2295 67.9886 15.5588 66.1999 18.0197C64.8816 19.8296 64.3356 22.0652 63.4324 24.1155C62.6777 25.8353 61.6713 27.4475 61.1153 29.2375C60.3882 31.5732 60.4713 34.0766 60.6499 36.5149C60.7958 38.5177 61.0172 40.5429 61.9305 42.3179C62.4085 43.2491 63.0676 44.0828 63.5456 45.014C64.1193 46.1331 64.4212 47.3673 64.8992 48.5188C65.3772 49.6704 66.0791 50.822 67.1886 51.4228L69.0252 50.3538C71.765 48.7592 74.5047 47.162 77.159 45.4296C79.4736 43.9276 81.8083 42.2027 83.041 39.7343C84.1329 37.5538 84.2411 35.0054 83.9593 32.5846C83.6776 30.1638 83.0335 27.7955 82.7014 25.3822C82.2783 22.3448 82.342 19.2598 82.8901 16.2422C83.1417 14.8804 83.8109 13.4735 83.9493 12.1166C84.1027 10.6671 82.2309 10.7147 81.1818 10.9901Z" fill="#3F3D56"/>
<path d="M69.8277 50.7868C71.234 52.1111 73.2568 52.4967 75.0154 53.2902C76.322 53.8939 77.4985 54.7441 78.4797 55.7937C79.0206 56.3845 79.5439 57.1881 79.2722 57.9391C79.0433 58.585 78.3414 58.9154 77.6973 59.1558C76.8973 59.4562 76.0041 59.7215 75.2066 59.4186C74.7386 59.2409 74.3613 58.8854 73.9311 58.6325C72.8769 58.0092 71.5485 58.0067 70.4667 57.4309C68.9421 56.6198 68.1823 54.8349 66.7483 53.871C65.9633 53.3453 64.879 52.9147 64.7985 51.976C64.7948 51.6365 64.867 51.3004 65.0098 50.9921C65.2991 50.2261 65.7922 47.595 66.8942 47.6651C68.0943 47.7427 68.9345 50.1535 69.8277 50.7868Z" fill="#FBBEBE"/>
<path d="M62.4588 39.0534C62.9192 40.7006 63.9884 42.1051 65.0979 43.4119C65.8955 44.3506 66.771 45.372 66.7986 46.6012C66.8238 47.7628 66.0439 48.8318 65.0375 49.4251C64.0312 50.0184 62.8462 50.2086 61.6814 50.2837C60.7495 50.373 59.8093 50.3079 58.8988 50.091C56.5993 49.4701 55.0043 47.4749 53.1954 45.9328C52.1211 45.019 50.9135 44.223 50.0908 43.0789C49.2681 41.9348 48.9209 40.2926 49.731 39.1385C50.0234 38.7644 50.3614 38.428 50.7374 38.1371C52.1113 36.9518 53.283 35.5526 54.2068 33.994C54.5791 33.3656 54.9364 32.6847 55.5628 32.3067C56.461 31.7634 57.6132 32.0113 58.6297 32.2766C59.7341 32.5645 62.8462 33.1278 63.0626 34.5297C63.1507 35.1055 62.4336 36.0017 62.3255 36.6201C62.1878 37.431 62.2333 38.2622 62.4588 39.0534Z" fill="#FBBEBE"/>
<path d="M68.1472 42.1926C68.4767 42.787 68.748 43.4115 68.9573 44.0576C69.7246 46.7113 68.3535 49.445 67.6993 52.1287C66.8641 55.5659 67.2188 59.1608 67.1786 62.6981C67.1609 64.3153 66.9873 66.0952 65.8175 67.2168C65.5156 67.5022 65.1533 67.7425 64.9495 68.103C64.8236 68.3671 64.7298 68.6453 64.6702 68.9316C64.4916 69.5502 64.1748 70.1205 63.7435 70.6001C63.3122 71.0797 62.7775 71.4561 62.1795 71.7012C61.5814 71.9462 60.9355 72.0536 60.2898 72.0154C59.6442 71.9771 59.0156 71.7941 58.451 71.4801C57.4975 70.9519 56.6698 70.0356 55.5779 70.0081C55.2346 70.0246 54.8926 70.0622 54.554 70.1207C53.4671 70.2284 52.4029 69.8278 51.384 69.4348C51.1408 69.3584 50.9139 69.2379 50.7148 69.0793C50.5311 68.9116 50.4129 68.6863 50.2443 68.506C49.6229 67.8401 48.5612 67.9553 47.6655 67.77C46.9973 67.6212 46.3853 67.2864 45.9011 66.8045C45.4169 66.3227 45.0803 65.7138 44.9308 65.0488C44.7497 64.1876 44.9031 63.2964 45.0541 62.4277L45.7283 58.5574C46.0113 57.1378 46.207 55.7024 46.3145 54.2591C46.3972 52.628 46.2567 50.9933 45.8969 49.3999C45.6 48.0982 45.1572 46.8239 44.9962 45.4971C44.7156 43.1192 45.3443 40.7233 46.7573 38.7854C47.107 38.3073 47.5649 37.8291 48.1586 37.7841C48.6392 37.7415 49.0895 37.9969 49.5071 38.2422C53.135 40.3784 56.788 42.4705 60.4662 44.5183C61.4726 45.0815 62.5016 45.6473 63.6236 45.9252C63.9608 46.0103 64.4438 45.9753 64.4916 45.6348C64.4976 45.505 64.4634 45.3765 64.3935 45.2668C63.7645 44.0626 62.8538 43.0287 62.1292 41.8822C61.4046 40.7356 60.8461 39.3787 61.06 38.0469C61.3518 36.2044 63.0727 34.9852 64.479 36.4297C66.0565 38.0695 67.1131 40.1773 68.1472 42.1926Z" fill="#663C67"/>
<path d="M56.8812 65.5571C59.8323 65.7448 62.8488 65.9451 65.581 67.0716C66.459 67.4321 67.3899 67.8978 68.3132 67.675C68.7728 67.5358 69.2003 67.3078 69.5712 67.004C70.7087 66.1741 71.7833 65.2621 72.7864 64.2753C72.6858 63.727 71.9386 63.6519 71.3801 63.657C70.0182 63.665 68.6748 63.3437 67.4654 62.7207C67.0679 62.4828 66.6462 62.2873 66.2075 62.1374C65.0124 61.8094 63.7947 62.4353 62.5947 62.7407C60.8185 63.1913 58.9467 62.9285 57.1328 62.6631L52.2369 61.9446C51.7815 61.8795 51.2683 61.8269 50.906 62.1073C50.6638 62.335 50.4978 62.6313 50.4305 62.956C49.8317 64.9587 50.1185 65.1265 52.1111 65.2516L56.8812 65.5571Z" fill="#FBBEBE"/>
<path opacity="0.1" d="M123.732 30.7996C128.179 30.7996 131.783 27.213 131.783 22.7887C131.783 18.3643 128.179 14.7777 123.732 14.7777C119.286 14.7777 115.682 18.3643 115.682 22.7887C115.682 27.213 119.286 30.7996 123.732 30.7996Z" fill="black"/>
<path d="M123.675 30.4517C128.121 30.4517 131.726 26.8651 131.726 22.4408C131.726 18.0164 128.121 14.4298 123.675 14.4298C119.228 14.4298 115.624 18.0164 115.624 22.4408C115.624 26.8651 119.228 30.4517 123.675 30.4517Z" fill="#FBBEBE"/>
<path d="M130.47 12.2693C131.114 12.6648 131.788 13.0904 132.141 13.7563C132.33 14.2084 132.474 14.6779 132.571 15.1582C133.011 16.6602 134.183 17.9645 134.254 19.5292C134.332 21.244 133.039 22.7335 131.575 23.6323C131.24 23.8774 130.837 24.0122 130.422 24.0178C129.997 23.9903 129.63 23.7249 129.24 23.5547C127.587 22.8237 125.738 23.7499 123.987 24.1755C122.167 24.6128 120.258 24.5012 118.502 23.8551C117.559 23.5046 116.643 22.9789 116.052 22.1653C115.46 21.3517 115.249 20.2126 115.752 19.3389C116.004 18.8933 116.421 18.4902 116.394 17.9821C116.379 17.6766 116.198 17.4013 116.142 17.1009C116.062 16.6227 116.313 16.1571 116.57 15.749C117.734 13.8846 119.206 12.2284 120.922 10.8498C121.426 10.4393 122.007 10.0387 122.666 10.0087C123.989 9.95108 125.126 10.9324 126.487 10.9374C128.032 10.9424 129.142 11.4531 130.47 12.2693Z" fill="#3F3D56"/>
<path opacity="0.1" d="M94.0379 20.7483C98.6232 20.7483 102.34 17.0496 102.34 12.487C102.34 7.92441 98.6232 4.22571 94.0379 4.22571C89.4527 4.22571 85.7356 7.92441 85.7356 12.487C85.7356 17.0496 89.4527 20.7483 94.0379 20.7483Z" fill="black"/>
<path d="M94.1837 20.5455C98.7689 20.5455 102.486 16.8468 102.486 12.2842C102.486 7.72165 98.7689 4.02295 94.1837 4.02295C89.5984 4.02295 85.8813 7.72165 85.8813 12.2842C85.8813 16.8468 89.5984 20.5455 94.1837 20.5455Z" fill="#BE6F72"/>
<path d="M98.6193 16.9507C99.7917 17.604 101.238 17.5365 102.547 17.2385C103.288 17.0998 103.992 16.8044 104.61 16.3724C104.916 16.1543 105.169 15.8697 105.349 15.5401C105.529 15.2105 105.632 14.8445 105.649 14.4698C105.649 13.6311 105.095 12.8751 105.027 12.0364C104.944 10.98 105.636 10.0037 105.709 8.94222C105.782 7.88077 105.256 6.92446 104.743 6.01322C103.86 4.44858 102.942 2.86391 101.598 1.66728C100.255 0.470646 98.3928 -0.292897 96.6317 0.110153C95.7663 0.307923 94.9637 0.771056 94.0807 0.861179C93.2957 0.933778 92.5208 0.698457 91.7384 0.59832C90.956 0.498183 90.0779 0.560769 89.5169 1.099C89.21 1.39941 89.0137 1.82249 88.654 2.04279C88.41 2.15476 88.1576 2.24767 87.8992 2.32067C86.991 2.68367 86.5758 3.70256 86.2538 4.61881L84.0952 10.7747C84.8173 11.2754 85.6878 11.5032 86.4777 11.8887C87.2677 12.2743 88.035 12.8901 88.1961 13.7513C88.3193 14.4047 88.0854 15.1557 88.4678 15.7014C88.8175 16.2021 89.5295 16.2872 90.1333 16.2021C90.7371 16.117 91.3434 15.9092 91.9472 16.0019C93.4567 16.2297 94.0178 17.1509 95.4141 16.0019C96.8104 14.8528 97.3211 16.2247 98.6193 16.9507Z" fill="#3F3D56"/>
<path opacity="0.1" d="M58.9013 38.4249C63.0698 38.4249 66.4489 35.0625 66.4489 30.9147C66.4489 26.7669 63.0698 23.4044 58.9013 23.4044C54.7329 23.4044 51.3538 26.7669 51.3538 30.9147C51.3538 35.0625 54.7329 38.4249 58.9013 38.4249Z" fill="black"/>
<path d="M59.1931 38.017C63.3615 38.017 66.7407 34.6545 66.7407 30.5067C66.7407 26.3589 63.3615 22.9965 59.1931 22.9965C55.0247 22.9965 51.6455 26.3589 51.6455 30.5067C51.6455 34.6545 55.0247 38.017 59.1931 38.017Z" fill="#FBBEBE"/>
<path d="M64.972 23.1641C63.1751 21.7923 61.1561 20.7357 59.0019 20.0398C57.6232 19.5942 56.1237 19.2888 54.7249 19.6993C52.828 20.2376 50.2895 21.0412 49.1145 22.6208C48.5359 23.3969 47.9497 24.1955 47.6704 25.1242C47.1119 26.9918 47.9069 28.982 47.8541 30.9297C47.7912 33.2003 46.5811 35.2731 45.2602 37.1256C43.9394 38.9782 43.6727 41.6318 42.8928 43.7697C42.6261 44.5032 42.5406 45.5221 43.2274 45.8901C43.8312 46.2231 44.5608 45.8075 45.1194 45.407L48.478 42.9911C48.7391 42.7776 49.0401 42.6177 49.3636 42.5205C50.0555 42.3603 50.7322 42.7909 51.3109 43.1989L58.3553 48.1557C58.4945 47.8728 58.5697 47.563 58.5753 47.2481C58.581 46.9332 58.517 46.6208 58.388 46.3332C59.0497 46.536 59.5302 47.0842 60.1114 47.4748C60.6925 47.8653 61.5756 47.993 61.9983 47.4472C62.4209 46.9015 62.1014 46.168 61.631 45.7274C61.1605 45.2868 60.5416 45.0239 60.0812 44.5708C59.1679 43.6671 59.0748 42.2401 58.4987 41.0986C58.0861 40.2975 57.4194 39.6266 57.1276 38.7729C56.6521 37.3785 57.2735 35.8764 57.8823 34.5346C58.6094 32.9424 59.4321 31.2426 60.9793 30.4115C61.5001 30.1311 62.0763 29.9659 62.6096 29.7105C63.938 29.0772 65.5959 27.5826 66.245 26.2433C66.8136 25.0542 65.9381 23.9051 64.972 23.1641Z" fill="#3F3D56"/>
<path opacity="0.1" d="M53.5476 47.983C54.2696 48.4411 55.0848 48.734 55.7942 49.2122C56.5037 49.6903 57.1251 50.4163 57.1452 51.2675C57.1654 52.0811 56.6421 52.7946 56.1389 53.4405L50.0103 61.4439L53.135 62.2675C52.6318 62.9585 52.5035 63.8397 52.2418 64.6508C51.9802 65.4619 51.4871 66.3055 50.6518 66.5183C49.8971 66.7111 49.1071 66.3155 48.3272 66.3606C47.751 66.3956 47.2076 66.666 46.6315 66.6885C45.8893 66.7161 45.2 66.3281 44.5811 65.9175C43.2024 64.9987 41.8337 63.6819 41.8438 62.0297C41.8765 61.4709 41.9891 60.9196 42.1784 60.3924C43.0816 57.4609 44.0175 54.4593 45.8893 52.021C46.8956 50.7192 48.1259 49.6202 49.3562 48.5288C49.6359 48.2485 49.9651 48.0219 50.3273 47.8603C51.1324 47.5599 52.0104 47.9304 52.8431 48.1708C53.6759 48.4111 54.725 48.4461 55.2055 47.7377" fill="black"/>
<path d="M53.2834 47.4899C54.0055 47.9455 54.8206 48.2409 55.5301 48.7191C56.2395 49.1972 56.861 49.9232 56.8836 50.7719C56.9062 51.6205 56.3804 52.3015 55.8773 52.9474L49.7461 60.9433L52.8708 61.7669C52.3676 62.4579 52.2393 63.3365 51.9777 64.1502C51.716 64.9638 51.2229 65.8049 50.3876 66.0177C49.6329 66.2105 48.8429 65.8149 48.063 65.86C47.4868 65.8925 46.9434 66.1654 46.3673 66.1854C45.6251 66.213 44.9358 65.8249 44.3169 65.4144C42.9382 64.4981 41.5695 63.1788 41.5821 61.5291C41.6123 60.9702 41.7241 60.4186 41.9142 59.8918C42.8174 56.9578 43.7533 53.9562 45.6251 51.5204C46.6315 50.2161 47.8642 49.1171 49.092 48.0156C49.373 47.737 49.7019 47.5106 50.0631 47.3472C50.8682 47.0468 51.7462 47.4173 52.579 47.6601C53.4117 47.903 54.4608 47.9355 54.9414 47.2271" fill="#663C67"/>
<g opacity="0.1">
<path opacity="0.1" d="M116.313 20.5055C116.905 21.3192 117.823 21.8474 118.764 22.1954C120.519 22.8441 122.429 22.9557 124.248 22.5158C126.009 22.0902 127.849 21.1639 129.501 21.8949C129.891 22.0677 130.256 22.3305 130.681 22.3606C131.097 22.3531 131.501 22.2175 131.836 21.9725C132.855 21.3467 133.791 20.4355 134.239 19.3615C134.239 19.4166 134.239 19.4716 134.254 19.5292C134.332 21.2441 133.039 22.7336 131.575 23.6323C131.24 23.8774 130.837 24.0122 130.422 24.0178C129.997 23.9903 129.63 23.7249 129.24 23.5547C127.587 22.8237 125.738 23.75 123.987 24.1756C122.167 24.6128 120.258 24.5013 118.502 23.8551C117.559 23.5046 116.643 22.9789 116.052 22.1653C115.46 21.3517 115.249 20.2126 115.752 19.339L115.79 19.2764C115.871 19.7194 116.05 20.1391 116.313 20.5055Z" fill="black"/>
<path opacity="0.1" d="M116.648 16.3223C116.668 16.7079 116.434 17.0308 116.21 17.3588C116.179 17.2774 116.154 17.1937 116.137 17.1084C116.062 16.6603 116.278 16.2247 116.517 15.8317C116.586 15.9876 116.63 16.1531 116.648 16.3223Z" fill="black"/>
</g>
<path opacity="0.1" d="M86.8424 3.80267L84.6838 9.95608C85.4059 10.4568 86.2764 10.6871 87.0664 11.0701C87.8563 11.4531 88.6237 12.0715 88.7847 12.9326C88.908 13.586 88.674 14.3371 89.0564 14.8853C89.4061 15.386 90.1181 15.4686 90.7219 15.386C91.3257 15.3034 91.932 15.0931 92.5358 15.1857C94.0454 15.4135 94.6064 16.3348 96.0027 15.1982C97.399 14.0617 97.9047 15.411 99.2029 16.137C100.375 16.7929 101.822 16.7253 103.13 16.4249C103.872 16.2869 104.575 15.9924 105.193 15.5612C105.281 15.4898 105.365 15.4137 105.445 15.3334C105.252 15.7437 104.962 16.1011 104.599 16.3748C103.982 16.8069 103.278 17.1023 102.536 17.241C101.228 17.5389 99.7689 17.6065 98.6091 16.9531C97.3109 16.2271 96.7776 14.9028 95.409 16.0143C94.0403 17.1259 93.4466 16.2296 91.9421 16.0143C91.3383 15.9217 90.7345 16.1295 90.1282 16.2146C89.5218 16.2997 88.8124 16.2146 88.4627 15.7139C88.0802 15.1682 88.3142 14.4172 88.1909 13.7638C88.0299 12.9026 87.2626 12.2843 86.4726 11.9012C85.6826 11.5182 84.8121 11.2854 84.0901 10.7872L86.2588 4.61628C86.5103 3.93785 86.7871 3.20435 87.2903 2.72119C87.1159 3.0709 86.9663 3.43226 86.8424 3.80267Z" fill="black"/>
<g opacity="0.1">
<path opacity="0.1" d="M58.9491 46.6038C59.5051 46.8541 60.207 46.8916 60.5593 46.4235C60.9543 45.9228 60.6624 45.1468 60.1919 44.7037C59.7215 44.2606 59.1026 44.0002 58.6422 43.5471C57.7289 42.6458 57.6358 41.2189 57.0597 40.0773C56.6471 39.2737 55.9804 38.6028 55.6886 37.7492C55.2131 36.3573 55.8345 34.8527 56.4433 33.5134C57.1704 31.9212 57.9931 30.2214 59.5403 29.3902C60.0611 29.1099 60.6373 28.9446 61.1706 28.6893C62.499 28.0559 64.1569 26.5589 64.806 25.2195C65.352 24.0905 64.5821 22.994 63.6663 22.2505C64.1117 22.5384 64.5469 22.8413 64.9696 23.1642C65.9382 23.9153 66.8112 25.0543 66.2275 26.2384C65.5784 27.5778 63.9205 29.0723 62.5921 29.7057C62.0587 29.956 61.4826 30.1262 60.9618 30.4066C59.4145 31.2378 58.5919 32.9376 57.8648 34.5298C57.2534 35.8716 56.632 37.3736 57.11 38.768C57.4019 39.6217 58.0686 40.2926 58.4812 41.0937C59.0648 42.2353 59.1504 43.6622 60.0636 44.566C60.524 45.0191 61.1429 45.2794 61.6134 45.7225C62.0839 46.1657 62.3682 46.9317 61.9807 47.4424C61.5933 47.9531 60.6725 47.8479 60.0938 47.4699C59.7039 47.2071 59.3491 46.8616 58.9491 46.6038Z" fill="black"/>
<path opacity="0.1" d="M43.6904 44.3832L47.0491 41.9699C47.31 41.7556 47.611 41.5948 47.9346 41.4967C48.6265 41.339 49.3033 41.7696 49.8819 42.1777L56.9263 47.1344C57.0656 46.8511 57.1408 46.5409 57.1464 46.2256C57.1521 45.9102 57.0881 45.5975 56.959 45.3094C57.6056 45.5097 58.0761 46.0455 58.6371 46.421C58.5556 46.3842 58.4715 46.3532 58.3855 46.3283C58.5146 46.616 58.5785 46.9283 58.5728 47.2432C58.5672 47.5581 58.4921 47.868 58.3528 48.1508L51.3084 43.1941C50.7298 42.786 50.0505 42.3554 49.3611 42.5156C49.0376 42.6128 48.7366 42.7727 48.4756 42.9863L45.1169 45.4021C44.5584 45.8026 43.8288 46.2182 43.225 45.8852C43.0598 45.7842 42.9243 45.6418 42.832 45.4722C42.7397 45.3025 42.6939 45.1117 42.6991 44.9189C43.0555 44.7926 43.3899 44.6119 43.6904 44.3832Z" fill="black"/>
</g>
<path d="M127.602 60.7329C127.602 60.7329 113.186 61.8819 110.318 59.8492L123.506 57.8264L127.602 60.7329Z" fill="#E3E8F4"/>
<path opacity="0.1" d="M127.602 60.7329C127.602 60.7329 113.186 61.8819 110.318 59.8492L123.506 57.8264L127.602 60.7329Z" fill="black"/>
<path d="M127.602 60.7329L123.564 58.1895C123.564 58.1895 111.518 61.6341 108.217 60.2122L111.576 55.5233L123.511 57.839L127.602 60.7329Z" fill="#E3E8F4"/>
<path d="M109.689 27.0069C109.244 27.5666 108.886 28.1904 108.63 28.8569C108.514 29.2099 108.456 29.5779 108.358 29.9359C108.082 30.8274 107.657 31.6661 107.1 32.4168C105.86 34.2118 104.31 35.9441 103.998 38.0996C103.847 39.1635 104.013 40.245 104.224 41.2989C104.339 41.9939 104.538 42.6724 104.818 43.3192C105.138 44.0051 105.613 44.6085 105.978 45.2719C106.311 45.923 106.592 46.5994 106.818 47.2946C107.248 46.8665 107.503 46.2933 107.847 45.7926C108.192 45.2919 108.705 44.8413 109.312 44.8338C110.011 44.8338 110.587 45.4095 111.279 45.4997C111.387 45.5213 111.499 45.5109 111.601 45.4696C111.853 45.352 111.873 45.014 111.853 44.7436C111.654 42.8536 110.567 40.9885 111.08 39.156C111.553 37.4612 113.244 36.4022 114.132 34.8827C114.776 33.7787 114.967 32.4769 115.138 31.2102C115.352 29.6956 115.568 28.1685 115.473 26.6439C115.425 25.8754 114.811 21.0187 113.689 21.5269C113.299 21.7022 112.96 22.4457 112.715 22.7786L111.709 24.1981L109.689 27.0069Z" fill="#3F3D56"/>
<path d="M79.5767 58.3372L71.4832 64.8936L61.0701 63.0411L68.0818 57.5636L79.5767 58.3372Z" fill="#E3E8F4"/>
<path opacity="0.1" d="M79.8685 57.9291L71.775 64.4855L61.3618 62.633L68.3735 57.1555L79.8685 57.9291Z" fill="black"/>
<path d="M79.8107 57.5811L71.7172 64.1351L61.3015 62.285L68.3157 56.8051L79.8107 57.5811Z" fill="#E3E8F4"/>
<path opacity="0.1" d="M80.0446 56.8226L71.9485 63.3791L61.5354 61.5266L68.5496 56.0491L80.0446 56.8226Z" fill="black"/>
<path d="M79.9842 56.4746L71.8907 63.0311L61.4775 61.1785L68.4892 55.701L79.9842 56.4746Z" fill="#E3E8F4"/>
<path d="M186.448 146.06C186.639 145.967 186.85 145.923 187.062 145.93C187.274 145.937 187.481 145.995 187.665 146.1C187.85 146.205 188.005 146.353 188.119 146.531C188.233 146.71 188.301 146.913 188.317 147.123L188.768 152.934L186.096 153.415L184.687 149.214L186.448 146.06Z" fill="#3F3D56"/>
<path d="M92.971 107.114L52.0807 127.762C51.6118 128 51.2184 128.363 50.9443 128.81C50.6703 129.257 50.5263 129.772 50.5283 130.295C50.5304 130.819 50.6785 131.332 50.9561 131.777C51.2338 132.222 51.63 132.582 52.1009 132.816L140.169 176.794C141.735 177.575 143.471 177.96 145.223 177.917C146.975 177.873 148.689 177.402 150.214 176.544L187.308 155.73C187.758 155.475 188.13 155.102 188.382 154.652C188.635 154.202 188.759 153.692 188.742 153.176C188.725 152.661 188.566 152.16 188.284 151.728C188.001 151.296 187.606 150.948 187.14 150.723L95.4844 107.086C95.0913 106.899 94.6602 106.804 94.2245 106.809C93.7887 106.814 93.3599 106.918 92.971 107.114Z" fill="#3F3D56"/>
<path d="M51.8067 124.17L50.5262 125.116L50.4255 129.647C50.4174 130 50.5094 130.349 50.6909 130.653C50.8724 130.956 51.1362 131.203 51.452 131.364L141.024 177.102C141.227 177.206 141.454 177.257 141.683 177.249C141.911 177.241 142.134 177.174 142.329 177.056C142.525 176.937 142.686 176.771 142.798 176.573C142.91 176.374 142.969 176.15 142.969 175.923V169.341L51.8067 124.17Z" fill="#3F3D56"/>
<path d="M92.9711 101.862L52.0808 122.507C51.6115 122.745 51.2176 123.107 50.9429 123.554C50.6681 124.001 50.5234 124.515 50.5247 125.038C50.526 125.562 50.6733 126.075 50.9502 126.521C51.2272 126.966 51.6229 127.327 52.0934 127.562L140.169 171.539C141.736 172.319 143.471 172.705 145.223 172.661C146.975 172.617 148.689 172.146 150.214 171.289L187.308 150.473C187.758 150.218 188.13 149.845 188.382 149.395C188.635 148.944 188.759 148.434 188.742 147.919C188.725 147.404 188.566 146.903 188.284 146.471C188.002 146.038 187.606 145.691 187.14 145.466L95.4844 101.832C95.0912 101.645 94.66 101.55 94.2242 101.556C93.7885 101.561 93.3597 101.665 92.9711 101.862Z" fill="#E3E8F4"/>
<path d="M101.434 105.609L56.3804 128.373L133.816 166.9L180.279 143.433L101.434 105.609Z" fill="#3F3D56"/>
<path d="M162.152 159.896C164.777 159.896 166.905 158.642 166.905 157.095C166.905 155.547 164.777 154.293 162.152 154.293C159.528 154.293 157.4 155.547 157.4 157.095C157.4 158.642 159.528 159.896 162.152 159.896Z" fill="#3F3D56"/>
<path d="M75.4759 113.315C75.7191 113.315 75.9162 113.119 75.9162 112.877C75.9162 112.635 75.7191 112.439 75.4759 112.439C75.2328 112.439 75.0356 112.635 75.0356 112.877C75.0356 113.119 75.2328 113.315 75.4759 113.315Z" fill="#3F3D56"/>
<path d="M74.1575 116.817C74.4493 116.817 74.6858 116.582 74.6858 116.291C74.6858 116.001 74.4493 115.766 74.1575 115.766C73.8657 115.766 73.6292 116.001 73.6292 116.291C73.6292 116.582 73.8657 116.817 74.1575 116.817Z" fill="#3F3D56"/>
<path d="M76.0923 115.415L81.3731 112.964" stroke="#3F3D56" stroke-miterlimit="10"/>
<path d="M122.872 126.81L107.965 135.374C105.799 136.619 105.057 139.375 106.307 141.53C107.558 143.685 110.328 144.424 112.494 143.179L127.401 134.615C129.567 133.371 130.309 130.615 129.059 128.46C127.808 126.304 125.038 125.566 122.872 126.81Z" fill="#446C68"/>
<path d="M136.206 133.57L121.299 142.134C119.133 143.379 118.391 146.135 119.641 148.29C120.892 150.445 123.661 151.184 125.827 149.939L140.735 141.375C142.901 140.131 143.643 137.375 142.392 135.22C141.142 133.064 138.372 132.326 136.206 133.57Z" fill="#446C68"/>
<path d="M110.796 119.05L95.8891 127.615C93.7231 128.859 92.981 131.615 94.2316 133.77C95.4821 135.925 98.2517 136.664 100.418 135.419L115.325 126.855C117.491 125.611 118.233 122.855 116.983 120.7C115.732 118.545 112.962 117.806 110.796 119.05Z" fill="#446C68"/>
</g>
<defs>
<clipPath id="clip0">
<rect width="232.511" height="205" fill="white"/>
</clipPath>
</defs>
</svg>
