<svg width="36" height="35" viewBox="0 0 36 35" fill="none" xmlns="http://www.w3.org/2000/svg">
<g clip-path="url(#clip0)">
<path d="M29.3627 7.79868C28.9275 6.27794 27.5259 5.16138 25.8673 5.16138C24.2087 5.16138 22.8071 6.27794 22.3717 7.79868H0.976776V9.79617H22.372C22.8071 11.3167 24.2087 12.4335 25.8673 12.4335C27.5259 12.4335 28.9275 11.3167 29.3629 9.79617H35.0672V7.79868H29.3627ZM25.8673 10.436C24.9638 10.436 24.2288 9.70098 24.2288 8.79743C24.2288 7.89388 24.964 7.15886 25.8673 7.15886C26.7709 7.15886 27.5059 7.89388 27.5059 8.79743C27.5059 9.70098 26.7709 10.436 25.8673 10.436Z" fill="#F6F6F6"/>
<path d="M7.37888 13.5161C5.72029 13.5161 4.31867 14.6329 3.88354 16.1534H0.976776V18.1509H3.88354C4.31867 19.6716 5.72055 20.7882 7.37914 20.7882C9.03773 20.7882 10.4394 19.6716 10.8745 18.1509H35.0672V16.1534H10.8745C10.4394 14.6329 9.03747 13.5161 7.37888 13.5161ZM7.37888 18.7907C6.47559 18.7907 5.74057 18.0557 5.74057 17.1522C5.74057 16.2489 6.47559 15.5136 7.37888 15.5136C8.28243 15.5136 9.01744 16.2489 9.01744 17.1522C9.01744 18.0557 8.28243 18.7907 7.37888 18.7907Z" fill="#F6F6F6"/>
<path d="M18.582 21.8711C16.9234 21.8711 15.5215 22.9877 15.0864 24.5084H0.976776V26.5059H15.0864C15.5215 28.0264 16.9234 29.1432 18.582 29.1432C20.2403 29.1432 21.6422 28.0264 22.0773 26.5059H35.0672V24.5084H22.0773C21.6422 22.9877 20.2403 21.8711 18.582 21.8711ZM18.582 27.1457C17.6784 27.1457 16.9434 26.4107 16.9434 25.5071C16.9434 24.6036 17.6784 23.8686 18.582 23.8686C19.4853 23.8686 20.2205 24.6036 20.2205 25.5071C20.2205 26.4107 19.4855 27.1457 18.582 27.1457Z" fill="#F6F6F6"/>
</g>
<defs>
<clipPath id="clip0">
<rect width="34.0904" height="34.0904" fill="white" transform="translate(0.976807 0.101074)"/>
</clipPath>
</defs>
</svg>
