<svg width="30" height="31" viewBox="0 0 30 31" fill="none" xmlns="http://www.w3.org/2000/svg">
<g clip-path="url(#clip0)">
<path d="M18.5584 13.7933H5.46326V14.8846H18.5584V13.7933Z" fill="white"/>
<path d="M5.46326 17.067V18.1583H16.0836L17.1748 17.067H5.46326Z" fill="white"/>
<path d="M5.46326 20.3408V21.4321H12.8096L13.9009 20.3408H5.46326Z" fill="white"/>
<path d="M10.9196 23.6147H5.46326V24.706H10.9196V23.6147Z" fill="white"/>
<path d="M28.0464 12.3684L26.5031 10.8252C26.0772 10.3992 25.3858 10.3992 24.9598 10.8251C21.0213 14.7637 17.0722 18.7128 13.1022 22.6826C13.1022 24.571 13.1022 24.1619 13.1022 25.797C15.7293 25.797 15.0647 25.7982 16.1656 25.7923C16.7352 25.2228 19.2489 22.7091 21.8324 20.1257V27.9797C21.8324 28.5824 21.3438 29.071 20.7411 29.071H3.28086C2.67814 29.071 2.1896 28.5824 2.1896 27.9797V8.33695C2.1896 7.73424 2.67814 7.24569 3.28086 7.24569H5.4636V9.42829H18.5586V7.24576L20.7411 7.24569C21.3438 7.24569 21.8324 7.73424 21.8324 8.33695V12.39L22.9236 11.2912V8.33695C22.9236 7.13152 21.9465 6.15443 20.7411 6.15443H18.37C18.0196 5.16397 17.2078 4.39142 16.1913 4.09917C15.6889 3.95471 15.3022 3.56799 15.1576 3.06554C14.7644 1.69832 13.5045 0.698242 12.0109 0.698242C10.5174 0.698242 9.25751 1.69832 8.86438 3.06533C8.71965 3.5684 8.33198 3.95464 7.82898 4.09958C6.81294 4.39238 6.00043 5.1641 5.65041 6.15443H3.28079C2.07543 6.15443 1.09827 7.13152 1.09827 8.33695V27.9797C1.09827 29.1851 2.07543 30.1622 3.28079 30.1622H20.741C21.9464 30.1622 22.9235 29.1851 22.9235 27.9797V19.0345C25.2697 16.6885 27.4548 14.5033 28.0464 13.9117C28.4723 13.4857 28.4723 12.7943 28.0464 12.3684ZM6.55472 7.22823C6.56223 6.26887 7.21044 5.41359 8.13105 5.14828C8.99793 4.89852 9.66414 4.23257 9.91309 3.36707C10.1802 2.43813 11.0429 1.78951 12.0109 1.78951C12.979 1.78951 13.8416 2.43813 14.1087 3.36707C14.3578 4.23312 15.0235 4.89886 15.8896 5.14787C16.8184 5.41509 17.4672 6.27774 17.4672 7.24576V8.33702H6.55472V7.22823ZM15.711 24.7037C15.428 24.7052 15.3121 24.7057 14.9206 24.7058L14.1934 23.9787V23.1347C14.4639 22.8642 14.651 22.6771 14.9285 22.3996L16.4718 23.9429L15.711 24.7037ZM17.2434 23.1713L15.7001 21.628L22.6449 14.6833L24.1882 16.2266L17.2434 23.1713ZM24.9598 15.4549L23.4165 13.9116L24.1882 13.1399L25.7315 14.6832L24.9598 15.4549ZM26.5031 13.9117L24.9598 12.3684L25.7314 11.5968L27.2748 13.14L26.5031 13.9117Z" fill="#F6F6F6"/>
<path d="M12.0272 4.79046C12.4792 4.79046 12.8456 4.42403 12.8456 3.97201C12.8456 3.52 12.4792 3.15356 12.0272 3.15356C11.5752 3.15356 11.2087 3.52 11.2087 3.97201C11.2087 4.42403 11.5752 4.79046 12.0272 4.79046Z" fill="white"/>
</g>
<defs>
<clipPath id="clip0">
<rect width="29.464" height="29.464" fill="white" transform="translate(0 0.698242)"/>
</clipPath>
</defs>
</svg>
