<svg width="12" height="13" viewBox="0 0 12 13" fill="none" xmlns="http://www.w3.org/2000/svg">
<path d="M8.33901 5.92119C8.33901 5.66895 8.13454 5.46448 7.88229 5.46448H3.17815C2.92591 5.46448 2.72144 5.66895 2.72144 5.92119C2.72144 6.17343 2.92591 6.3779 3.17815 6.3779H7.88229C8.13454 6.3779 8.33901 6.17343 8.33901 5.92119Z" fill="white"/>
<path d="M3.17815 7.29138C2.92591 7.29138 2.72144 7.49585 2.72144 7.74809C2.72144 8.00034 2.92591 8.20481 3.17815 8.20481H6.03513C6.28737 8.20481 6.49184 8.00034 6.49184 7.74809C6.49184 7.49585 6.28737 7.29138 6.03513 7.29138H3.17815Z" fill="white"/>
<path d="M4.25176 11.6758H2.72431C2.22065 11.6758 1.81089 11.266 1.81089 10.7623V2.72419C1.81089 2.22053 2.22065 1.81076 2.72431 1.81076H8.33934C8.843 1.81076 9.25276 2.22053 9.25276 2.72419V5.53297C9.25276 5.78521 9.45723 5.98968 9.70948 5.98968C9.96172 5.98968 10.1662 5.78521 10.1662 5.53297V2.72419C10.1662 1.71686 9.34666 0.897339 8.33934 0.897339H2.72431C1.71699 0.897339 0.897461 1.71686 0.897461 2.72419V10.7623C0.897461 11.7697 1.71699 12.5892 2.72431 12.5892H4.25176C4.504 12.5892 4.70847 12.3847 4.70847 12.1325C4.70847 11.8802 4.504 11.6758 4.25176 11.6758Z" fill="white"/>
<path d="M10.9755 7.50985C10.4413 6.97563 9.57208 6.97561 9.03821 7.50948L6.53079 10.0113C6.47754 10.0645 6.43826 10.1299 6.41638 10.2019L5.87032 11.9996C5.8219 12.159 5.86408 12.3321 5.98041 12.4513C6.06755 12.5406 6.18593 12.5891 6.30734 12.5891C6.34797 12.5891 6.38898 12.5837 6.42924 12.5725L8.27265 12.0619C8.34851 12.0409 8.41765 12.0006 8.47337 11.945L10.9755 9.44754C11.5098 8.91332 11.5098 8.04411 10.9755 7.50985ZM7.99913 11.1278C7.94272 11.1841 7.87271 11.2249 7.79591 11.2461L7.7765 11.2515C7.4336 11.3465 7.12076 11.0259 7.22417 10.6854C7.24577 10.6143 7.28461 10.5496 7.33723 10.4971L8.62591 9.21126C8.80437 9.03318 9.09336 9.03334 9.27162 9.21161C9.45015 9.39014 9.45002 9.67963 9.27132 9.85799L7.99913 11.1278ZM10.33 8.80138C10.2811 8.85017 10.2019 8.85013 10.1531 8.80129L9.68368 8.33188C9.63504 8.28324 9.63508 8.20437 9.68377 8.15577C9.86184 7.9777 10.1516 7.9777 10.3297 8.15577C10.5077 8.33385 10.5077 8.62358 10.33 8.80138Z" fill="white"/>
<path d="M7.88229 3.63745H3.17815C2.92591 3.63745 2.72144 3.84192 2.72144 4.09416C2.72144 4.34641 2.92591 4.55088 3.17815 4.55088H7.88229C8.13454 4.55088 8.33901 4.34641 8.33901 4.09416C8.33901 3.84192 8.13454 3.63745 7.88229 3.63745Z" fill="white"/>
</svg>
