<svg width="32" height="32" viewBox="0 0 32 32" fill="none" xmlns="http://www.w3.org/2000/svg">
<mask id="path-1-outside-1" maskUnits="userSpaceOnUse" x="0.176758" y="0.274536" width="32" height="32" fill="black">
<rect fill="white" x="0.176758" y="0.274536" width="32" height="32"/>
<path fill-rule="evenodd" clip-rule="evenodd" d="M15.0601 17.2938V31.1772H17.196V17.2938H31.0794V15.1579H17.196V1.27454H15.0601V15.1579H1.17676V17.2938H15.0601Z"/>
</mask>
<path fill-rule="evenodd" clip-rule="evenodd" d="M15.0601 17.2938V31.1772H17.196V17.2938H31.0794V15.1579H17.196V1.27454H15.0601V15.1579H1.17676V17.2938H15.0601Z" fill="#F6F6F6"/>
<path d="M15.0601 31.1772H14.3618C14.3618 31.5628 14.6745 31.8755 15.0601 31.8755V31.1772ZM15.0601 17.2938H15.7584C15.7584 16.9082 15.4458 16.5956 15.0601 16.5956V17.2938ZM17.196 31.1772V31.8755C17.5817 31.8755 17.8943 31.5628 17.8943 31.1772H17.196ZM17.196 17.2938V16.5956C16.8104 16.5956 16.4977 16.9082 16.4977 17.2938H17.196ZM31.0794 17.2938V17.9921C31.465 17.9921 31.7777 17.6795 31.7777 17.2938H31.0794ZM31.0794 15.1579H31.7777C31.7777 14.7723 31.465 14.4597 31.0794 14.4597V15.1579ZM17.196 15.1579H16.4977C16.4977 15.5436 16.8104 15.8562 17.196 15.8562V15.1579ZM17.196 1.27454H17.8943C17.8943 0.888889 17.5817 0.57626 17.196 0.57626V1.27454ZM15.0601 1.27454V0.57626C14.6745 0.57626 14.3618 0.888889 14.3618 1.27454L15.0601 1.27454ZM15.0601 15.1579V15.8562C15.4458 15.8562 15.7584 15.5436 15.7584 15.1579H15.0601ZM1.17676 15.1579V14.4597C0.791111 14.4597 0.478482 14.7723 0.478482 15.1579H1.17676ZM1.17676 17.2938H0.478482C0.478482 17.6795 0.791111 17.9921 1.17676 17.9921L1.17676 17.2938ZM15.7584 31.1772V17.2938H14.3618V31.1772H15.7584ZM17.196 30.4789H15.0601V31.8755H17.196V30.4789ZM16.4977 17.2938V31.1772H17.8943V17.2938H16.4977ZM31.0794 16.5956H17.196V17.9921H31.0794V16.5956ZM30.3811 15.1579V17.2938H31.7777V15.1579H30.3811ZM17.196 15.8562H31.0794V14.4597H17.196V15.8562ZM16.4977 1.27454V15.1579H17.8943V1.27454H16.4977ZM15.0601 1.97281H17.196V0.57626H15.0601V1.97281ZM15.7584 15.1579V1.27454H14.3618V15.1579H15.7584ZM1.17676 15.8562H15.0601V14.4597H1.17676V15.8562ZM1.87503 17.2938V15.1579H0.478482V17.2938H1.87503ZM15.0601 16.5956H1.17676V17.9921H15.0601V16.5956Z" fill="#F6F6F6" mask="url(#path-1-outside-1)"/>
</svg>
