<svg width="35" height="35" viewBox="0 0 35 35" fill="none" xmlns="http://www.w3.org/2000/svg">
<g clip-path="url(#clip0)">
<path d="M21.6716 15.676H6.82941V16.9129H21.6716V15.676Z" fill="white"/>
<path d="M6.82941 19.3865V20.6233H18.8666L20.1034 19.3865H6.82941Z" fill="white"/>
<path d="M6.82941 23.0969V24.3338H15.1558L16.3927 23.0969H6.82941Z" fill="white"/>
<path d="M13.0136 26.8076H6.82941V28.0445H13.0136V26.8076Z" fill="white"/>
<path d="M32.4251 14.061L30.6759 12.3119C30.1932 11.8292 29.4096 11.8291 28.9268 12.3119C24.4628 16.7759 19.9869 21.2518 15.4873 25.7513C15.4873 27.8916 15.4873 27.4279 15.4873 29.2811C18.4648 29.2811 17.7116 29.2825 18.9594 29.2758C19.6049 28.6303 22.454 25.7813 25.3821 22.8533V31.755C25.3821 32.4381 24.8284 32.9919 24.1452 32.9919H4.35567C3.67254 32.9919 3.11882 32.4381 3.11882 31.755V9.49176C3.11882 8.80864 3.67254 8.25491 4.35567 8.25491H6.8296V10.7287H21.6715V8.25499L24.1452 8.25491C24.8284 8.25491 25.3821 8.80864 25.3821 9.49176V14.0856L26.6189 12.8401V9.49176C26.6189 8.12551 25.5114 7.01807 24.1452 7.01807H21.4579C21.0607 5.89547 20.1405 5.01986 18.9885 4.68862C18.419 4.52489 17.9807 4.08658 17.8169 3.51709C17.3712 1.96748 15.9432 0.833984 14.2504 0.833984C12.5576 0.833984 11.1297 1.96748 10.6841 3.51686C10.52 4.08705 10.0806 4.52481 9.51054 4.68908C8.35896 5.02095 7.43805 5.89563 7.04133 7.01807H4.35559C2.98942 7.01807 1.8819 8.12551 1.8819 9.49176V31.755C1.8819 33.1212 2.98942 34.2287 4.35559 34.2287H24.1451C25.5113 34.2287 26.6188 33.1212 26.6188 31.755V21.6165C29.278 18.9574 31.7546 16.4807 32.4251 15.8102C32.9078 15.3274 32.9078 14.5437 32.4251 14.061ZM8.06629 8.23513C8.07479 7.14778 8.80948 6.1784 9.85291 5.87769C10.8354 5.59461 11.5905 4.83982 11.8727 3.85885C12.1755 2.80598 13.1532 2.07083 14.2504 2.07083C15.3476 2.07083 16.3253 2.80598 16.6281 3.85885C16.9104 4.84044 17.6649 5.595 18.6465 5.87723C19.6992 6.1801 20.4345 7.15783 20.4345 8.25499V9.49184H8.06629V8.23513ZM18.4441 28.0419C18.1233 28.0437 17.992 28.0442 17.5482 28.0444L16.7241 27.2203V26.2636C17.0306 25.9571 17.2427 25.745 17.5572 25.4305L19.3064 27.1796L18.4441 28.0419ZM20.1809 26.3051L18.4318 24.5559L26.3031 16.6847L28.0522 18.4339L20.1809 26.3051ZM28.9267 17.5593L27.1776 15.8101L28.0522 14.9355L29.8014 16.6846L28.9267 17.5593ZM30.6759 15.8102L28.9267 14.061L29.8013 13.1865L31.5505 14.9356L30.6759 15.8102Z" fill="#F6F6F6"/>
<path d="M14.269 5.47197C14.7813 5.47197 15.1966 5.05665 15.1966 4.54433C15.1966 4.03202 14.7813 3.6167 14.269 3.6167C13.7567 3.6167 13.3414 4.03202 13.3414 4.54433C13.3414 5.05665 13.7567 5.47197 14.269 5.47197Z" fill="white"/>
</g>
<defs>
<clipPath id="clip0">
<rect x="0.637207" y="0.833984" width="33.3947" height="33.3947" fill="white"/>
</clipPath>
</defs>
</svg>
