<svg width="9" height="10" viewBox="0 0 9 10" fill="none" xmlns="http://www.w3.org/2000/svg">
<path d="M5.8891 3.99353C5.8891 3.79579 5.72882 3.6355 5.53108 3.6355H1.84338C1.64564 3.6355 1.48535 3.79579 1.48535 3.99353C1.48535 4.19127 1.64564 4.35155 1.84338 4.35155H5.53108C5.72882 4.35155 5.8891 4.19127 5.8891 3.99353Z" fill="white"/>
<path d="M1.84338 5.06763C1.64564 5.06763 1.48535 5.22792 1.48535 5.42566C1.48535 5.62339 1.64564 5.78368 1.84338 5.78368H4.08304C4.28078 5.78368 4.44107 5.62339 4.44107 5.42566C4.44107 5.22792 4.28078 5.06763 4.08304 5.06763H1.84338Z" fill="white"/>
<path d="M2.68518 8.50464H1.48778C1.09294 8.50464 0.77172 8.18342 0.77172 7.78859V1.48729C0.77172 1.09246 1.09294 0.771232 1.48778 0.771232H5.88954C6.28437 0.771232 6.60559 1.09246 6.60559 1.48729V3.68916C6.60559 3.8869 6.76588 4.04719 6.96362 4.04719C7.16136 4.04719 7.32165 3.8869 7.32165 3.68916V1.48729C7.32165 0.697622 6.6792 0.0551758 5.88954 0.0551758H1.48778C0.69811 0.0551758 0.0556641 0.697622 0.0556641 1.48729V7.78859C0.0556641 8.57825 0.69811 9.2207 1.48778 9.2207H2.68518C2.88292 9.2207 3.04321 9.06041 3.04321 8.86267C3.04321 8.66493 2.88292 8.50464 2.68518 8.50464Z" fill="white"/>
<path d="M7.95604 5.23894C7.53725 4.82015 6.85585 4.82013 6.43733 5.23865L4.47171 7.19993C4.42996 7.24158 4.39917 7.29289 4.38202 7.34931L3.95394 8.7586C3.91599 8.88355 3.94906 9.01923 4.04025 9.11269C4.10856 9.1827 4.20136 9.22071 4.29654 9.22071C4.32839 9.22071 4.36054 9.21645 4.3921 9.20769L5.83719 8.8074C5.89666 8.79093 5.95086 8.75937 5.99454 8.71576L7.95605 6.75794C8.37484 6.33916 8.37484 5.65776 7.95604 5.23894ZM5.62277 8.07514C5.57855 8.11928 5.52367 8.15123 5.46346 8.16791L5.44825 8.17213C5.17944 8.24659 4.9342 7.99522 5.01526 7.72833C5.0322 7.67257 5.06264 7.62186 5.1039 7.5807L6.11412 6.57271C6.25403 6.43312 6.48056 6.43324 6.62031 6.57299C6.76027 6.71294 6.76016 6.93988 6.62008 7.0797L5.62277 8.07514ZM7.44998 6.2514C7.41166 6.28965 7.3496 6.28961 7.31132 6.25133L6.94334 5.88335C6.9052 5.84522 6.90524 5.78339 6.94341 5.74529C7.083 5.6057 7.31014 5.6057 7.44973 5.74529C7.58933 5.88489 7.58933 6.11202 7.44998 6.2514Z" fill="white"/>
<path d="M5.53108 2.20325H1.84338C1.64564 2.20325 1.48535 2.36354 1.48535 2.56128C1.48535 2.75901 1.64564 2.9193 1.84338 2.9193H5.53108C5.72882 2.9193 5.8891 2.75901 5.8891 2.56128C5.8891 2.36354 5.72882 2.20325 5.53108 2.20325Z" fill="white"/>
</svg>
