<svg width="29" height="30" viewBox="0 0 29 30" fill="none" xmlns="http://www.w3.org/2000/svg">
<mask id="path-1-outside-1" maskUnits="userSpaceOnUse" x="-0.232788" y="0.0947266" width="29" height="29" fill="black">
<rect fill="white" x="-0.232788" y="0.0947266" width="29" height="29"/>
<path fill-rule="evenodd" clip-rule="evenodd" d="M13.411 15.6837V28.3275H15.3562V15.6837H28V13.7385H15.3562V1.09473H13.411V13.7385H0.767212V15.6837H13.411Z"/>
</mask>
<path fill-rule="evenodd" clip-rule="evenodd" d="M13.411 15.6837V28.3275H15.3562V15.6837H28V13.7385H15.3562V1.09473H13.411V13.7385H0.767212V15.6837H13.411Z" fill="#F6F6F6"/>
<path d="M13.411 28.3275H12.7127C12.7127 28.7131 13.0253 29.0258 13.411 29.0258V28.3275ZM13.411 15.6837H14.1093C14.1093 15.2981 13.7966 14.9855 13.411 14.9855V15.6837ZM15.3562 28.3275V29.0258C15.7418 29.0258 16.0544 28.7131 16.0544 28.3275H15.3562ZM15.3562 15.6837V14.9855C14.9705 14.9855 14.6579 15.2981 14.6579 15.6837H15.3562ZM28 15.6837V16.382C28.3856 16.382 28.6982 16.0694 28.6982 15.6837H28ZM28 13.7385H28.6982C28.6982 13.3529 28.3856 13.0403 28 13.0403V13.7385ZM15.3562 13.7385H14.6579C14.6579 14.1242 14.9705 14.4368 15.3562 14.4368V13.7385ZM15.3562 1.09473H16.0544C16.0544 0.709079 15.7418 0.396451 15.3562 0.396451V1.09473ZM13.411 1.09473V0.396451C13.0253 0.396451 12.7127 0.709079 12.7127 1.09473L13.411 1.09473ZM13.411 13.7385V14.4368C13.7966 14.4368 14.1093 14.1242 14.1093 13.7385H13.411ZM0.767212 13.7385V13.0403C0.381565 13.0403 0.068936 13.3529 0.068936 13.7385H0.767212ZM0.767212 15.6837H0.068936C0.068936 16.0694 0.381565 16.382 0.767212 16.382L0.767212 15.6837ZM14.1093 28.3275V15.6837H12.7127V28.3275H14.1093ZM15.3562 27.6292H13.411V29.0258H15.3562V27.6292ZM14.6579 15.6837V28.3275H16.0544V15.6837H14.6579ZM28 14.9855H15.3562V16.382H28V14.9855ZM27.3017 13.7385V15.6837H28.6982V13.7385H27.3017ZM15.3562 14.4368H28V13.0403H15.3562V14.4368ZM14.6579 1.09473V13.7385H16.0544V1.09473H14.6579ZM13.411 1.793H15.3562V0.396451H13.411V1.793ZM14.1093 13.7385V1.09473H12.7127V13.7385H14.1093ZM0.767212 14.4368H13.411V13.0403H0.767212V14.4368ZM1.46549 15.6837V13.7385H0.068936V15.6837H1.46549ZM13.411 14.9855H0.767212V16.382H13.411V14.9855Z" fill="#F6F6F6" mask="url(#path-1-outside-1)"/>
</svg>
