<svg width="32" height="32" viewBox="0 0 32 32" fill="none" xmlns="http://www.w3.org/2000/svg">
<path d="M1.17673 5.27466C1.17673 3.06552 2.96759 1.27466 5.17673 1.27466H27.0794C29.2885 1.27466 31.0794 3.06552 31.0794 5.27466V27.1773C31.0794 29.3864 29.2885 31.1773 27.0794 31.1773H5.17673C2.96759 31.1773 1.17673 29.3864 1.17673 27.1773V5.27466Z" fill="#663C67"/>
<mask id="path-2-outside-1" maskUnits="userSpaceOnUse" x="0.176727" y="0.274658" width="32" height="32" fill="black">
<rect fill="white" x="0.176727" y="0.274658" width="32" height="32"/>
<path fill-rule="evenodd" clip-rule="evenodd" d="M15.0601 17.294V31.1773H17.196V17.294H31.0794V15.1581H17.196V1.27466H15.0601V15.1581H1.17673V17.294H15.0601Z"/>
</mask>
<path fill-rule="evenodd" clip-rule="evenodd" d="M15.0601 17.294V31.1773H17.196V17.294H31.0794V15.1581H17.196V1.27466H15.0601V15.1581H1.17673V17.294H15.0601Z" fill="#F6F6F6"/>
<path d="M15.0601 31.1773H14.3618C14.3618 31.5629 14.6744 31.8756 15.0601 31.8756V31.1773ZM15.0601 17.294H15.7584C15.7584 16.9083 15.4457 16.5957 15.0601 16.5957V17.294ZM17.196 31.1773V31.8756C17.5816 31.8756 17.8943 31.5629 17.8943 31.1773H17.196ZM17.196 17.294V16.5957C16.8103 16.5957 16.4977 16.9083 16.4977 17.294H17.196ZM31.0794 17.294V17.9922C31.465 17.9922 31.7776 17.6796 31.7776 17.294H31.0794ZM31.0794 15.1581H31.7776C31.7776 14.7724 31.465 14.4598 31.0794 14.4598V15.1581ZM17.196 15.1581H16.4977C16.4977 15.5437 16.8103 15.8563 17.196 15.8563V15.1581ZM17.196 1.27466H17.8943C17.8943 0.889011 17.5816 0.576382 17.196 0.576382V1.27466ZM15.0601 1.27466V0.576382C14.6744 0.576382 14.3618 0.889011 14.3618 1.27466L15.0601 1.27466ZM15.0601 15.1581V15.8563C15.4457 15.8563 15.7584 15.5437 15.7584 15.1581H15.0601ZM1.17673 15.1581V14.4598C0.79108 14.4598 0.478451 14.7724 0.478451 15.1581H1.17673ZM1.17673 17.294H0.478451C0.478451 17.6796 0.79108 17.9922 1.17673 17.9922L1.17673 17.294ZM15.7584 31.1773V17.294H14.3618V31.1773H15.7584ZM17.196 30.479H15.0601V31.8756H17.196V30.479ZM16.4977 17.294V31.1773H17.8943V17.294H16.4977ZM31.0794 16.5957H17.196V17.9922H31.0794V16.5957ZM30.3811 15.1581V17.294H31.7776V15.1581H30.3811ZM17.196 15.8563H31.0794V14.4598H17.196V15.8563ZM16.4977 1.27466V15.1581H17.8943V1.27466H16.4977ZM15.0601 1.97293H17.196V0.576382H15.0601V1.97293ZM15.7584 15.1581V1.27466H14.3618V15.1581H15.7584ZM1.17673 15.8563H15.0601V14.4598H1.17673V15.8563ZM1.875 17.294V15.1581H0.478451V17.294H1.875ZM15.0601 16.5957H1.17673V17.9922H15.0601V16.5957Z" fill="#F6F6F6" mask="url(#path-2-outside-1)"/>
</svg>
