<svg width="29" height="29" viewBox="0 0 29 29" fill="none" xmlns="http://www.w3.org/2000/svg">
<mask id="path-1-outside-1" maskUnits="userSpaceOnUse" x="7" y="7" width="16" height="16" fill="black">
<rect fill="white" x="7" y="7" width="16" height="16"/>
<path fill-rule="evenodd" clip-rule="evenodd" d="M14.3767 15.3578V21.7343H15.3577V15.3578H21.7343V14.3767H15.3577V8H14.3767V14.3767H8V15.3578H14.3767Z"/>
</mask>
<path fill-rule="evenodd" clip-rule="evenodd" d="M14.3767 15.3578V21.7343H15.3577V15.3578H21.7343V14.3767H15.3577V8H14.3767V14.3767H8V15.3578H14.3767Z" fill="#797979"/>
<path d="M14.3767 21.7343H13.9296C13.9296 21.9812 14.1298 22.1814 14.3767 22.1814V21.7343ZM14.3767 15.3578H14.8237C14.8237 15.1109 14.6236 14.9107 14.3767 14.9107V15.3578ZM15.3577 21.7343V22.1814C15.6046 22.1814 15.8047 21.9812 15.8047 21.7343H15.3577ZM15.3577 15.3578V14.9107C15.1108 14.9107 14.9107 15.1109 14.9107 15.3578H15.3577ZM21.7343 15.3578V15.8048C21.9812 15.8048 22.1814 15.6047 22.1814 15.3578H21.7343ZM21.7343 14.3767H22.1814C22.1814 14.1298 21.9812 13.9297 21.7343 13.9297V14.3767ZM15.3577 14.3767H14.9107C14.9107 14.6236 15.1108 14.8238 15.3577 14.8238V14.3767ZM15.3577 8H15.8047C15.8047 7.75311 15.6046 7.55296 15.3577 7.55296V8ZM14.3767 8V7.55296C14.1298 7.55296 13.9296 7.75311 13.9296 8H14.3767ZM14.3767 14.3767V14.8238C14.6236 14.8238 14.8237 14.6236 14.8237 14.3767H14.3767ZM8 14.3767V13.9297C7.75311 13.9297 7.55296 14.1298 7.55296 14.3767H8ZM8 15.3578H7.55296C7.55296 15.6047 7.75311 15.8048 8 15.8048V15.3578ZM14.8237 21.7343V15.3578H13.9296V21.7343H14.8237ZM15.3577 21.2873H14.3767V22.1814H15.3577V21.2873ZM14.9107 15.3578V21.7343H15.8047V15.3578H14.9107ZM21.7343 14.9107H15.3577V15.8048H21.7343V14.9107ZM21.2873 14.3767V15.3578H22.1814V14.3767H21.2873ZM15.3577 14.8238H21.7343V13.9297H15.3577V14.8238ZM14.9107 8V14.3767H15.8047V8H14.9107ZM14.3767 8.44704H15.3577V7.55296H14.3767V8.44704ZM14.8237 14.3767V8H13.9296V14.3767H14.8237ZM8 14.8238H14.3767V13.9297H8V14.8238ZM8.44704 15.3578V14.3767H7.55296V15.3578H8.44704ZM14.3767 14.9107H8V15.8048H14.3767V14.9107Z" fill="#797979" mask="url(#path-1-outside-1)"/>
<circle cx="14.5" cy="14.5" r="14" stroke="#797979"/>
</svg>
